<ttFont>
<head>
    <!-- Most of this table will be recalculated by the compiler -->
    <tableVersion value="1.0"/>
    <fontRevision value="1.0"/>
    <checkSumAdjustment value="0x167a4799"/>
    <magicNumber value="0x5f0f3cf5"/>
    <flags value="00000000 00011001"/>
    <unitsPerEm value="1000"/>
    <created value="Thu Dec 23 11:29:01 2010"/>
    <modified value="Thu Dec 23 21:22:41 2010"/>
    <xMin value="-376"/>
    <yMin value="-272"/>
    <xMax value="1145"/>
    <yMax value="1003"/>
    <macStyle value="00000000 00000000"/>
    <lowestRecPPEM value="9"/>
    <fontDirectionHint value="2"/>
    <indexToLocFormat value="0"/>
    <glyphDataFormat value="0"/>
  </head>
    <TTGlyph name=".notdef" xMin="50" yMin="0" xMax="700" yMax="700">
      <contour>
        <pt x="50" y="700" on="1"/>
        <pt x="700" y="700" on="1"/>
        <pt x="700" y="0" on="1"/>
        <pt x="50" y="0" on="1"/>
      </contour>
      <contour>
        <pt x="570" y="650" on="1"/>
        <pt x="375" y="433" on="1"/>
        <pt x="180" y="650" on="1"/>
        <pt x="130" y="600" on="1"/>
        <pt x="327" y="380" on="1"/>
        <pt x="130" y="160" on="1"/>
        <pt x="180" y="110" on="1"/>
        <pt x="375" y="327" on="1"/>
        <pt x="570" y="110" on="1"/>
        <pt x="620" y="160" on="1"/>
        <pt x="422" y="380" on="1"/>
        <pt x="620" y="600" on="1"/>
      </contour>
      <contour>
        <pt x="162" y="68" on="1"/>
        <pt x="127" y="68" on="1"/>
        <pt x="127" y="61" on="1"/>
        <pt x="140" y="61" on="1"/>
        <pt x="140" y="26" on="1"/>
        <pt x="149" y="26" on="1"/>
        <pt x="149" y="61" on="1"/>
        <pt x="162" y="61" on="1"/>
      </contour>
      <contour>
        <pt x="271" y="58" on="1"/>
        <pt x="269" y="58" on="1"/>
        <pt x="268" y="58" on="0"/>
        <pt x="267" y="59" on="1"/>
        <pt x="263" y="59" on="0"/>
        <pt x="258" y="54" on="1"/>
        <pt x="258" y="58" on="1"/>
        <pt x="251" y="58" on="1"/>
        <pt x="251" y="26" on="1"/>
        <pt x="259" y="26" on="1"/>
        <pt x="259" y="46" on="1"/>
        <pt x="262" y="51" on="0"/>
        <pt x="266" y="51" on="1"/>
        <pt x="268" y="51" on="0"/>
        <pt x="270" y="50" on="1"/>
      </contour>
      <contour>
        <pt x="276" y="65" on="1"/>
        <pt x="276" y="60" on="0"/>
        <pt x="280" y="60" on="1"/>
        <pt x="285" y="60" on="0"/>
        <pt x="285" y="64" on="1"/>
        <pt x="285" y="69" on="0"/>
        <pt x="280" y="69" on="1"/>
        <pt x="276" y="69" on="0"/>
      </contour>
      <contour>
        <pt x="276" y="26" on="1"/>
        <pt x="285" y="26" on="1"/>
        <pt x="285" y="58" on="1"/>
        <pt x="276" y="58" on="1"/>
      </contour>
      <contour>
        <pt x="291" y="51" on="1"/>
        <pt x="296" y="51" on="1"/>
        <pt x="296" y="26" on="1"/>
        <pt x="304" y="26" on="1"/>
        <pt x="304" y="51" on="1"/>
        <pt x="312" y="51" on="1"/>
        <pt x="312" y="58" on="1"/>
        <pt x="304" y="58" on="1"/>
        <pt x="304" y="60" on="0"/>
        <pt x="305" y="61" on="1"/>
        <pt x="306" y="62" on="0"/>
        <pt x="308" y="62" on="1"/>
        <pt x="311" y="62" on="1"/>
        <pt x="314" y="62" on="1"/>
        <pt x="315" y="68" on="1"/>
        <pt x="315" y="69" on="0"/>
        <pt x="311" y="69" on="1"/>
        <pt x="306" y="69" on="1"/>
        <pt x="302" y="69" on="1"/>
        <pt x="301" y="69" on="0"/>
        <pt x="297" y="66" on="0"/>
        <pt x="297" y="65" on="1"/>
        <pt x="296" y="63" on="0"/>
        <pt x="296" y="60" on="1"/>
        <pt x="296" y="58" on="1"/>
        <pt x="291" y="58" on="1"/>
      </contour>
      <contour>
        <pt x="331" y="45" on="1"/>
        <pt x="331" y="20" on="0"/>
        <pt x="354" y="20" on="1"/>
        <pt x="365" y="20" on="0"/>
        <pt x="378" y="32" on="0"/>
        <pt x="378" y="45" on="1"/>
        <pt x="378" y="68" on="0"/>
        <pt x="354" y="68" on="1"/>
        <pt x="344" y="68" on="0"/>
        <pt x="331" y="56" on="0"/>
      </contour>
      <contour>
        <pt x="338" y="45" on="1"/>
        <pt x="338" y="62" on="0"/>
        <pt x="354" y="62" on="1"/>
        <pt x="371" y="62" on="0"/>
        <pt x="371" y="45" on="1"/>
        <pt x="371" y="27" on="0"/>
        <pt x="354" y="27" on="1"/>
        <pt x="338" y="27" on="0"/>
      </contour>
      <contour>
        <pt x="361" y="40" on="1"/>
        <pt x="359" y="39" on="0"/>
        <pt x="357" y="39" on="1"/>
        <pt x="352" y="39" on="0"/>
        <pt x="352" y="45" on="1"/>
        <pt x="352" y="49" on="0"/>
        <pt x="357" y="49" on="1"/>
        <pt x="360" y="49" on="1"/>
        <pt x="363" y="54" on="1"/>
        <pt x="359" y="56" on="0"/>
        <pt x="354" y="56" on="1"/>
        <pt x="344" y="56" on="0"/>
        <pt x="344" y="45" on="1"/>
        <pt x="344" y="32" on="0"/>
        <pt x="354" y="32" on="1"/>
        <pt x="359" y="32" on="0"/>
        <pt x="363" y="34" on="1"/>
      </contour>
      <contour>
        <pt x="402" y="27" on="1"/>
        <pt x="411" y="27" on="1"/>
        <pt x="411" y="41" on="1"/>
        <pt x="416" y="41" on="1"/>
        <pt x="423" y="41" on="0"/>
        <pt x="434" y="47" on="0"/>
        <pt x="434" y="55" on="1"/>
        <pt x="434" y="65" on="0"/>
        <pt x="422" y="69" on="0"/>
        <pt x="415" y="69" on="1"/>
        <pt x="402" y="69" on="1"/>
      </contour>
      <contour>
        <pt x="416" y="62" on="1"/>
        <pt x="425" y="62" on="0"/>
        <pt x="425" y="56" on="1"/>
        <pt x="425" y="50" on="0"/>
        <pt x="420" y="49" on="0"/>
        <pt x="415" y="49" on="1"/>
        <pt x="411" y="49" on="1"/>
        <pt x="411" y="62" on="1"/>
      </contour>
      <contour>
        <pt x="440" y="51" on="1"/>
        <pt x="443" y="52" on="0"/>
        <pt x="448" y="53" on="0"/>
        <pt x="451" y="53" on="1"/>
        <pt x="456" y="53" on="0"/>
        <pt x="456" y="48" on="1"/>
        <pt x="456" y="46" on="1"/>
        <pt x="455" y="46" on="0"/>
        <pt x="453" y="47" on="0"/>
        <pt x="451" y="47" on="1"/>
        <pt x="436" y="47" on="0"/>
        <pt x="436" y="35" on="1"/>
        <pt x="436" y="26" on="0"/>
        <pt x="446" y="26" on="1"/>
        <pt x="453" y="26" on="0"/>
        <pt x="456" y="32" on="1"/>
        <pt x="459" y="27" on="1"/>
        <pt x="466" y="27" on="1"/>
        <pt x="465" y="28" on="0"/>
        <pt x="465" y="35" on="1"/>
        <pt x="465" y="48" on="1"/>
        <pt x="465" y="60" on="0"/>
        <pt x="453" y="60" on="1"/>
        <pt x="448" y="60" on="0"/>
        <pt x="440" y="57" on="0"/>
        <pt x="438" y="56" on="1"/>
      </contour>
      <contour>
        <pt x="450" y="33" on="1"/>
        <pt x="445" y="33" on="0"/>
        <pt x="445" y="38" on="1"/>
        <pt x="445" y="42" on="0"/>
        <pt x="451" y="42" on="1"/>
        <pt x="453" y="42" on="0"/>
        <pt x="455" y="41" on="0"/>
        <pt x="456" y="41" on="1"/>
        <pt x="456" y="38" on="1"/>
        <pt x="455" y="33" on="0"/>
      </contour>
      <contour>
        <pt x="494" y="59" on="1"/>
        <pt x="492" y="60" on="0"/>
        <pt x="489" y="60" on="1"/>
        <pt x="484" y="60" on="0"/>
        <pt x="482" y="54" on="1"/>
        <pt x="481" y="54" on="1"/>
        <pt x="480" y="59" on="1"/>
        <pt x="473" y="59" on="1"/>
        <pt x="473" y="27" on="1"/>
        <pt x="482" y="27" on="1"/>
        <pt x="482" y="47" on="1"/>
        <pt x="482" y="52" on="0"/>
        <pt x="489" y="52" on="1"/>
        <pt x="490" y="52" on="0"/>
        <pt x="490" y="51" on="0"/>
        <pt x="491" y="51" on="1"/>
        <pt x="492" y="51" on="1"/>
      </contour>
      <contour>
        <pt x="499" y="51" on="1"/>
        <pt x="509" y="53" on="0"/>
        <pt x="510" y="53" on="1"/>
        <pt x="516" y="53" on="0"/>
        <pt x="516" y="48" on="1"/>
        <pt x="516" y="46" on="1"/>
        <pt x="514" y="46" on="0"/>
        <pt x="512" y="47" on="0"/>
        <pt x="510" y="47" on="1"/>
        <pt x="495" y="47" on="0"/>
        <pt x="495" y="35" on="1"/>
        <pt x="495" y="26" on="0"/>
        <pt x="505" y="26" on="1"/>
        <pt x="513" y="26" on="0"/>
        <pt x="516" y="32" on="1"/>
        <pt x="517" y="32" on="1"/>
        <pt x="518" y="27" on="1"/>
        <pt x="525" y="27" on="1"/>
        <pt x="524" y="28" on="0"/>
        <pt x="524" y="35" on="1"/>
        <pt x="524" y="48" on="1"/>
        <pt x="524" y="60" on="0"/>
        <pt x="512" y="60" on="1"/>
        <pt x="507" y="60" on="0"/>
        <pt x="501" y="57" on="0"/>
        <pt x="498" y="56" on="1"/>
      </contour>
      <contour>
        <pt x="509" y="33" on="1"/>
        <pt x="504" y="33" on="0"/>
        <pt x="504" y="38" on="1"/>
        <pt x="504" y="42" on="0"/>
        <pt x="510" y="42" on="1"/>
        <pt x="512" y="42" on="0"/>
        <pt x="514" y="41" on="0"/>
        <pt x="516" y="41" on="1"/>
        <pt x="516" y="38" on="1"/>
        <pt x="513" y="33" on="0"/>
      </contour>
      <contour>
        <pt x="557" y="69" on="1"/>
        <pt x="521" y="69" on="1"/>
        <pt x="521" y="62" on="1"/>
        <pt x="535" y="62" on="1"/>
        <pt x="535" y="27" on="1"/>
        <pt x="543" y="27" on="1"/>
        <pt x="543" y="62" on="1"/>
        <pt x="557" y="62" on="1"/>
      </contour>
      <contour>
        <pt x="567" y="59" on="1"/>
        <pt x="557" y="59" on="1"/>
        <pt x="571" y="27" on="1"/>
        <pt x="569" y="22" on="0"/>
        <pt x="566" y="22" on="1"/>
        <pt x="564" y="23" on="1"/>
        <pt x="562" y="16" on="1"/>
        <pt x="563" y="15" on="0"/>
        <pt x="568" y="15" on="1"/>
        <pt x="575" y="15" on="0"/>
        <pt x="579" y="30" on="1"/>
        <pt x="591" y="59" on="1"/>
        <pt x="582" y="59" on="1"/>
        <pt x="576" y="41" on="1"/>
        <pt x="576" y="35" on="1"/>
        <pt x="575" y="35" on="1"/>
        <pt x="574" y="41" on="1"/>
      </contour>
      <contour>
        <pt x="595" y="15" on="1"/>
        <pt x="604" y="15" on="1"/>
        <pt x="604" y="28" on="1"/>
        <pt x="606" y="26" on="0"/>
        <pt x="610" y="26" on="1"/>
        <pt x="626" y="26" on="0"/>
        <pt x="626" y="44" on="1"/>
        <pt x="626" y="60" on="0"/>
        <pt x="613" y="60" on="1"/>
        <pt x="607" y="60" on="0"/>
        <pt x="603" y="55" on="1"/>
        <pt x="601" y="55" on="1"/>
        <pt x="600" y="59" on="1"/>
        <pt x="595" y="59" on="1"/>
      </contour>
      <contour>
        <pt x="611" y="53" on="1"/>
        <pt x="617" y="53" on="0"/>
        <pt x="617" y="44" on="1"/>
        <pt x="617" y="33" on="0"/>
        <pt x="608" y="33" on="1"/>
        <pt x="606" y="33" on="0"/>
        <pt x="604" y="35" on="1"/>
        <pt x="604" y="47" on="1"/>
        <pt x="604" y="53" on="0"/>
      </contour>
      <contour>
        <pt x="656" y="35" on="1"/>
        <pt x="654" y="33" on="0"/>
        <pt x="648" y="33" on="1"/>
        <pt x="640" y="33" on="0"/>
        <pt x="640" y="40" on="1"/>
        <pt x="661" y="40" on="1"/>
        <pt x="661" y="47" on="1"/>
        <pt x="661" y="60" on="0"/>
        <pt x="647" y="60" on="1"/>
        <pt x="631" y="60" on="0"/>
        <pt x="631" y="42" on="1"/>
        <pt x="631" y="26" on="0"/>
        <pt x="647" y="26" on="1"/>
        <pt x="655" y="26" on="0"/>
        <pt x="659" y="30" on="1"/>
      </contour>
      <contour>
        <pt x="647" y="53" on="1"/>
        <pt x="654" y="53" on="0"/>
        <pt x="653" y="46" on="1"/>
        <pt x="640" y="46" on="1"/>
        <pt x="640" y="53" on="0"/>
      </contour>
      <contour>
        <pt x="92" y="27" on="1"/>
        <pt x="101" y="27" on="1"/>
        <pt x="101" y="41" on="1"/>
        <pt x="106" y="41" on="1"/>
        <pt x="113" y="41" on="0"/>
        <pt x="124" y="47" on="0"/>
        <pt x="124" y="55" on="1"/>
        <pt x="124" y="65" on="0"/>
        <pt x="112" y="69" on="0"/>
        <pt x="105" y="69" on="1"/>
        <pt x="92" y="69" on="1"/>
      </contour>
      <contour>
        <pt x="106" y="62" on="1"/>
        <pt x="115" y="62" on="0"/>
        <pt x="115" y="56" on="1"/>
        <pt x="115" y="50" on="0"/>
        <pt x="110" y="49" on="0"/>
        <pt x="105" y="49" on="1"/>
        <pt x="101" y="49" on="1"/>
        <pt x="101" y="62" on="1"/>
      </contour>
      <contour>
        <pt x="200" y="38" on="1"/>
        <pt x="200" y="33" on="0"/>
        <pt x="192" y="33" on="1"/>
        <pt x="189" y="33" on="0"/>
        <pt x="185" y="34" on="0"/>
        <pt x="181" y="36" on="1"/>
        <pt x="178" y="27" on="1"/>
        <pt x="182" y="26" on="0"/>
        <pt x="188" y="25" on="0"/>
        <pt x="193" y="25" on="1"/>
        <pt x="209" y="25" on="0"/>
        <pt x="209" y="39" on="1"/>
        <pt x="209" y="44" on="0"/>
        <pt x="202" y="49" on="0"/>
        <pt x="195" y="52" on="0"/>
        <pt x="188" y="55" on="0"/>
        <pt x="188" y="58" on="1"/>
        <pt x="188" y="61" on="0"/>
        <pt x="195" y="61" on="1"/>
        <pt x="198" y="61" on="0"/>
        <pt x="203" y="60" on="0"/>
        <pt x="206" y="59" on="1"/>
        <pt x="208" y="67" on="1"/>
        <pt x="204" y="68" on="0"/>
        <pt x="198" y="69" on="0"/>
        <pt x="195" y="69" on="1"/>
        <pt x="179" y="69" on="0"/>
        <pt x="179" y="56" on="1"/>
        <pt x="179" y="51" on="0"/>
        <pt x="186" y="46" on="0"/>
        <pt x="193" y="43" on="0"/>
        <pt x="200" y="40" on="0"/>
      </contour>
      <contour>
        <pt x="239" y="34" on="1"/>
        <pt x="237" y="32" on="0"/>
        <pt x="231" y="32" on="1"/>
        <pt x="223" y="32" on="0"/>
        <pt x="223" y="39" on="1"/>
        <pt x="244" y="39" on="1"/>
        <pt x="244" y="46" on="1"/>
        <pt x="244" y="59" on="0"/>
        <pt x="230" y="59" on="1"/>
        <pt x="214" y="59" on="0"/>
        <pt x="214" y="41" on="1"/>
        <pt x="214" y="25" on="0"/>
        <pt x="230" y="25" on="1"/>
        <pt x="238" y="25" on="0"/>
        <pt x="242" y="29" on="1"/>
      </contour>
      <contour>
        <pt x="230" y="52" on="1"/>
        <pt x="237" y="52" on="0"/>
        <pt x="236" y="45" on="1"/>
        <pt x="223" y="45" on="1"/>
        <pt x="223" y="52" on="0"/>
      </contour>
    </TTGlyph>
    <TTGlyph name="A" xMin="0" yMin="0" xMax="683" yMax="712">
      <contour>
        <pt x="222" y="0" on="1"/>
        <pt x="0" y="0" on="1"/>
        <pt x="0" y="29" on="1"/>
        <pt x="36" y="45" on="0"/>
        <pt x="72" y="53" on="1"/>
        <pt x="325" y="712" on="1"/>
        <pt x="354" y="712" on="1"/>
        <pt x="607" y="53" on="1"/>
        <pt x="627" y="49" on="0"/>
        <pt x="666" y="39" on="0"/>
        <pt x="683" y="29" on="1"/>
        <pt x="683" y="0" on="1"/>
        <pt x="427" y="0" on="1"/>
        <pt x="427" y="29" on="1"/>
        <pt x="447" y="37" on="0"/>
        <pt x="489" y="49" on="0"/>
        <pt x="509" y="53" on="1"/>
        <pt x="441" y="236" on="1"/>
        <pt x="202" y="236" on="1"/>
        <pt x="136" y="53" on="1"/>
        <pt x="178" y="47" on="0"/>
        <pt x="222" y="29" on="1"/>
      </contour>
      <contour>
        <pt x="222" y="288" on="1"/>
        <pt x="424" y="288" on="1"/>
        <pt x="345" y="500" on="1"/>
        <pt x="326" y="586" on="1"/>
        <pt x="324" y="586" on="1"/>
        <pt x="299" y="498" on="1"/>
      </contour>
    </TTGlyph>
    <TTGlyph name="AE" xMin="0" yMin="0" xMax="864" yMax="700">
      <contour>
        <pt x="842" y="700" on="1"/>
        <pt x="841" y="660" on="0"/>
        <pt x="837" y="579" on="0"/>
        <pt x="831" y="538" on="1"/>
        <pt x="806" y="538" on="1"/>
        <pt x="764" y="648" on="1"/>
        <pt x="547" y="648" on="1"/>
        <pt x="547" y="383" on="1"/>
        <pt x="709" y="383" on="1"/>
        <pt x="749" y="457" on="1"/>
        <pt x="773" y="457" on="1"/>
        <pt x="781" y="358" on="0"/>
        <pt x="773" y="255" on="1"/>
        <pt x="749" y="255" on="1"/>
        <pt x="709" y="331" on="1"/>
        <pt x="547" y="331" on="1"/>
        <pt x="547" y="52" on="1"/>
        <pt x="777" y="52" on="1"/>
        <pt x="825" y="172" on="1"/>
        <pt x="851" y="172" on="1"/>
        <pt x="857" y="130" on="0"/>
        <pt x="864" y="44" on="0"/>
        <pt x="862" y="0" on="1"/>
        <pt x="369" y="0" on="1"/>
        <pt x="369" y="29" on="1"/>
        <pt x="404" y="45" on="0"/>
        <pt x="451" y="53" on="1"/>
        <pt x="451" y="256" on="1"/>
        <pt x="255" y="256" on="1"/>
        <pt x="139" y="53" on="1"/>
        <pt x="180" y="47" on="0"/>
        <pt x="224" y="29" on="1"/>
        <pt x="224" y="0" on="1"/>
        <pt x="0" y="0" on="1"/>
        <pt x="0" y="29" on="1"/>
        <pt x="36" y="45" on="0"/>
        <pt x="72" y="53" on="1"/>
        <pt x="426" y="652" on="1"/>
        <pt x="412" y="656" on="0"/>
        <pt x="382" y="665" on="0"/>
        <pt x="368" y="671" on="1"/>
        <pt x="368" y="700" on="1"/>
      </contour>
      <contour>
        <pt x="285" y="308" on="1"/>
        <pt x="451" y="308" on="1"/>
        <pt x="451" y="611" on="1"/>
        <pt x="449" y="611" on="1"/>
        <pt x="408" y="518" on="1"/>
      </contour>
    </TTGlyph>
    <TTGlyph name="Aacute" xMin="0" yMin="0" xMax="683" yMax="894">
      <component glyphName="A" x="0" y="0" flags="0x204"/>
      <component glyphName="uniF6C9" x="245" y="0" flags="0x4"/>
    </TTGlyph>
    <TTGlyph name="Acircumflex" xMin="0" yMin="0" xMax="683" yMax="887">
      <component glyphName="A" x="0" y="0" flags="0x204"/>
      <component glyphName="uniF408" x="142" y="0" flags="0x4"/>
    </TTGlyph>
    <TTGlyph name="Adieresis" xMin="0" yMin="0" xMax="683" yMax="837">
      <component glyphName="A" x="0" y="0" flags="0x204"/>
      <component glyphName="uniF6CB" x="114" y="0" flags="0x4"/>
    </TTGlyph>
    <TTGlyph name="Agrave" xMin="0" yMin="0" xMax="683" yMax="894">
      <component glyphName="A" x="0" y="0" flags="0x204"/>
      <component glyphName="uniF6CE" x="67" y="0" flags="0x4"/>
    </TTGlyph>
    <TTGlyph name="Aring" xMin="0" yMin="0" xMax="683" yMax="874">
      <contour>
        <pt x="230" y="788" on="1"/>
        <pt x="230" y="808" on="0"/>
        <pt x="248" y="840" on="0"/>
        <pt x="280" y="862" on="0"/>
        <pt x="321" y="874" on="0"/>
        <pt x="345" y="874" on="1"/>
        <pt x="364" y="874" on="0"/>
        <pt x="403" y="864" on="0"/>
        <pt x="435" y="844" on="0"/>
        <pt x="454" y="813" on="0"/>
        <pt x="454" y="791" on="1"/>
        <pt x="454" y="754" on="0"/>
        <pt x="395" y="712" on="0"/>
        <pt x="355" y="709" on="1"/>
        <pt x="607" y="53" on="1"/>
        <pt x="627" y="49" on="0"/>
        <pt x="666" y="39" on="0"/>
        <pt x="683" y="29" on="1"/>
        <pt x="683" y="0" on="1"/>
        <pt x="427" y="0" on="1"/>
        <pt x="427" y="29" on="1"/>
        <pt x="447" y="37" on="0"/>
        <pt x="489" y="49" on="0"/>
        <pt x="509" y="53" on="1"/>
        <pt x="441" y="236" on="1"/>
        <pt x="202" y="236" on="1"/>
        <pt x="136" y="53" on="1"/>
        <pt x="178" y="47" on="0"/>
        <pt x="222" y="29" on="1"/>
        <pt x="222" y="0" on="1"/>
        <pt x="0" y="0" on="1"/>
        <pt x="0" y="29" on="1"/>
        <pt x="36" y="45" on="0"/>
        <pt x="72" y="53" on="1"/>
        <pt x="324" y="710" on="1"/>
        <pt x="282" y="714" on="0"/>
        <pt x="230" y="754" on="0"/>
      </contour>
      <contour>
        <pt x="222" y="288" on="1"/>
        <pt x="424" y="288" on="1"/>
        <pt x="345" y="500" on="1"/>
        <pt x="326" y="586" on="1"/>
        <pt x="324" y="586" on="1"/>
        <pt x="299" y="498" on="1"/>
      </contour>
      <contour>
        <pt x="286" y="788" on="1"/>
        <pt x="286" y="768" on="0"/>
        <pt x="321" y="750" on="0"/>
        <pt x="340" y="750" on="1"/>
        <pt x="366" y="750" on="0"/>
        <pt x="398" y="768" on="0"/>
        <pt x="398" y="787" on="1"/>
        <pt x="398" y="813" on="0"/>
        <pt x="362" y="833" on="0"/>
        <pt x="343" y="833" on="1"/>
        <pt x="318" y="833" on="0"/>
        <pt x="286" y="814" on="0"/>
      </contour>
    </TTGlyph>
    <TTGlyph name="Atilde" xMin="0" yMin="0" xMax="683" yMax="862">
      <component glyphName="A" x="0" y="0" flags="0x204"/>
      <component glyphName="uniF40D" x="123" y="0" flags="0x4"/>
    </TTGlyph>
    <TTGlyph name="B" xMin="29" yMin="-6" xMax="562" yMax="706">
      <contour>
        <pt x="29" y="0" on="1"/>
        <pt x="29" y="29" on="1"/>
        <pt x="69" y="48" on="0"/>
        <pt x="111" y="53" on="1"/>
        <pt x="111" y="646" on="1"/>
        <pt x="91" y="650" on="0"/>
        <pt x="49" y="663" on="0"/>
        <pt x="29" y="671" on="1"/>
        <pt x="29" y="700" on="1"/>
        <pt x="135" y="700" on="1"/>
        <pt x="154" y="700" on="0"/>
        <pt x="189" y="702" on="0"/>
        <pt x="227" y="704" on="0"/>
        <pt x="271" y="706" on="0"/>
        <pt x="299" y="706" on="1"/>
        <pt x="339" y="706" on="0"/>
        <pt x="422" y="693" on="0"/>
        <pt x="489" y="657" on="0"/>
        <pt x="531" y="592" on="0"/>
        <pt x="531" y="540" on="1"/>
        <pt x="531" y="514" on="0"/>
        <pt x="515" y="462" on="0"/>
        <pt x="482" y="417" on="0"/>
        <pt x="432" y="383" on="0"/>
        <pt x="398" y="375" on="1"/>
        <pt x="398" y="371" on="1"/>
        <pt x="428" y="366" on="0"/>
        <pt x="487" y="342" on="0"/>
        <pt x="533" y="301" on="0"/>
        <pt x="562" y="241" on="0"/>
        <pt x="562" y="199" on="1"/>
        <pt x="562" y="145" on="0"/>
        <pt x="514" y="67" on="0"/>
        <pt x="437" y="17" on="0"/>
        <pt x="339" y="-6" on="0"/>
        <pt x="289" y="-6" on="1"/>
        <pt x="254" y="-6" on="0"/>
        <pt x="166" y="0" on="0"/>
        <pt x="125" y="0" on="1"/>
      </contour>
      <contour>
        <pt x="296" y="46" on="1"/>
        <pt x="332" y="46" on="0"/>
        <pt x="395" y="68" on="0"/>
        <pt x="440" y="107" on="0"/>
        <pt x="466" y="162" on="0"/>
        <pt x="466" y="194" on="1"/>
        <pt x="466" y="234" on="0"/>
        <pt x="435" y="287" on="0"/>
        <pt x="382" y="318" on="0"/>
        <pt x="313" y="330" on="0"/>
        <pt x="276" y="330" on="1"/>
        <pt x="201" y="330" on="1"/>
        <pt x="201" y="54" on="1"/>
        <pt x="215" y="50" on="0"/>
        <pt x="254" y="46" on="0"/>
      </contour>
      <contour>
        <pt x="251" y="382" on="1"/>
        <pt x="268" y="382" on="0"/>
        <pt x="315" y="385" on="0"/>
        <pt x="330" y="387" on="1"/>
        <pt x="376" y="403" on="0"/>
        <pt x="435" y="474" on="0"/>
        <pt x="435" y="522" on="1"/>
        <pt x="435" y="588" on="0"/>
        <pt x="356" y="654" on="0"/>
        <pt x="290" y="654" on="1"/>
        <pt x="259" y="654" on="0"/>
        <pt x="215" y="652" on="0"/>
        <pt x="201" y="650" on="1"/>
        <pt x="201" y="382" on="1"/>
      </contour>
    </TTGlyph>
    <TTGlyph name="C" xMin="53" yMin="-12" xMax="586" yMax="712">
      <contour>
        <pt x="547" y="182" on="1"/>
        <pt x="573" y="182" on="1"/>
        <pt x="578" y="154" on="0"/>
        <pt x="586" y="69" on="0"/>
        <pt x="584" y="29" on="1"/>
        <pt x="569" y="17" on="0"/>
        <pt x="527" y="2" on="0"/>
        <pt x="480" y="-8" on="0"/>
        <pt x="431" y="-12" on="0"/>
        <pt x="409" y="-12" on="1"/>
        <pt x="325" y="-12" on="0"/>
        <pt x="193" y="31" on="0"/>
        <pt x="102" y="119" on="0"/>
        <pt x="53" y="256" on="0"/>
        <pt x="53" y="350" on="1"/>
        <pt x="53" y="448" on="0"/>
        <pt x="107" y="585" on="0"/>
        <pt x="199" y="672" on="0"/>
        <pt x="321" y="712" on="0"/>
        <pt x="388" y="712" on="1"/>
        <pt x="454" y="712" on="0"/>
        <pt x="544" y="695" on="0"/>
        <pt x="578" y="678" on="1"/>
        <pt x="578" y="662" on="0"/>
        <pt x="576" y="619" on="0"/>
        <pt x="572" y="571" on="0"/>
        <pt x="566" y="525" on="0"/>
        <pt x="563" y="506" on="1"/>
        <pt x="537" y="506" on="1"/>
        <pt x="485" y="650" on="1"/>
        <pt x="474" y="656" on="0"/>
        <pt x="423" y="660" on="0"/>
        <pt x="398" y="660" on="1"/>
        <pt x="348" y="660" on="0"/>
        <pt x="259" y="623" on="0"/>
        <pt x="192" y="546" on="0"/>
        <pt x="152" y="429" on="0"/>
        <pt x="152" y="350" on="1"/>
        <pt x="152" y="279" on="0"/>
        <pt x="188" y="164" on="0"/>
        <pt x="256" y="83" on="0"/>
        <pt x="354" y="40" on="0"/>
        <pt x="416" y="40" on="1"/>
        <pt x="449" y="40" on="0"/>
        <pt x="493" y="50" on="0"/>
        <pt x="500" y="58" on="1"/>
      </contour>
    </TTGlyph>
    <TTGlyph name="Ccedilla" xMin="53" yMin="-272" xMax="586" yMax="712">
      <contour>
        <pt x="547" y="182" on="1"/>
        <pt x="573" y="182" on="1"/>
        <pt x="578" y="154" on="0"/>
        <pt x="586" y="69" on="0"/>
        <pt x="584" y="29" on="1"/>
        <pt x="567" y="16" on="0"/>
        <pt x="520" y="0" on="0"/>
        <pt x="468" y="-9" on="0"/>
        <pt x="415" y="-12" on="0"/>
        <pt x="392" y="-12" on="1"/>
        <pt x="368" y="-75" on="1"/>
        <pt x="428" y="-76" on="0"/>
        <pt x="485" y="-119" on="0"/>
        <pt x="485" y="-154" on="1"/>
        <pt x="485" y="-184" on="0"/>
        <pt x="450" y="-228" on="0"/>
        <pt x="397" y="-258" on="0"/>
        <pt x="333" y="-272" on="0"/>
        <pt x="304" y="-272" on="1"/>
        <pt x="304" y="-239" on="1"/>
        <pt x="344" y="-233" on="0"/>
        <pt x="398" y="-201" on="0"/>
        <pt x="397" y="-172" on="1"/>
        <pt x="396" y="-144" on="0"/>
        <pt x="352" y="-119" on="0"/>
        <pt x="307" y="-116" on="1"/>
        <pt x="343" y="-8" on="1"/>
        <pt x="205" y="7" on="0"/>
        <pt x="53" y="180" on="0"/>
        <pt x="53" y="350" on="1"/>
        <pt x="53" y="448" on="0"/>
        <pt x="107" y="585" on="0"/>
        <pt x="199" y="672" on="0"/>
        <pt x="321" y="712" on="0"/>
        <pt x="388" y="712" on="1"/>
        <pt x="454" y="712" on="0"/>
        <pt x="544" y="695" on="0"/>
        <pt x="578" y="678" on="1"/>
        <pt x="578" y="662" on="0"/>
        <pt x="576" y="619" on="0"/>
        <pt x="572" y="571" on="0"/>
        <pt x="566" y="525" on="0"/>
        <pt x="563" y="506" on="1"/>
        <pt x="537" y="506" on="1"/>
        <pt x="485" y="650" on="1"/>
        <pt x="474" y="656" on="0"/>
        <pt x="423" y="660" on="0"/>
        <pt x="398" y="660" on="1"/>
        <pt x="348" y="660" on="0"/>
        <pt x="259" y="623" on="0"/>
        <pt x="192" y="546" on="0"/>
        <pt x="152" y="429" on="0"/>
        <pt x="152" y="350" on="1"/>
        <pt x="152" y="279" on="0"/>
        <pt x="188" y="164" on="0"/>
        <pt x="256" y="83" on="0"/>
        <pt x="354" y="40" on="0"/>
        <pt x="416" y="40" on="1"/>
        <pt x="449" y="40" on="0"/>
        <pt x="493" y="50" on="0"/>
        <pt x="500" y="58" on="1"/>
      </contour>
    </TTGlyph>
    <TTGlyph name="D" xMin="29" yMin="-9" xMax="656" yMax="708">
      <contour>
        <pt x="29" y="0" on="1"/>
        <pt x="29" y="29" on="1"/>
        <pt x="64" y="45" on="0"/>
        <pt x="111" y="53" on="1"/>
        <pt x="111" y="646" on="1"/>
        <pt x="88" y="651" on="0"/>
        <pt x="46" y="664" on="0"/>
        <pt x="29" y="671" on="1"/>
        <pt x="29" y="700" on="1"/>
        <pt x="131" y="700" on="1"/>
        <pt x="148" y="700" on="0"/>
        <pt x="194" y="702" on="0"/>
        <pt x="243" y="705" on="0"/>
        <pt x="288" y="708" on="0"/>
        <pt x="303" y="708" on="1"/>
        <pt x="473" y="708" on="0"/>
        <pt x="656" y="526" on="0"/>
        <pt x="656" y="359" on="1"/>
        <pt x="656" y="280" on="0"/>
        <pt x="611" y="145" on="0"/>
        <pt x="519" y="47" on="0"/>
        <pt x="378" y="-9" on="0"/>
        <pt x="282" y="-9" on="1"/>
        <pt x="267" y="-9" on="0"/>
        <pt x="229" y="-6" on="0"/>
        <pt x="187" y="-3" on="0"/>
        <pt x="144" y="0" on="0"/>
        <pt x="125" y="0" on="1"/>
      </contour>
      <contour>
        <pt x="289" y="656" on="1"/>
        <pt x="263" y="656" on="0"/>
        <pt x="215" y="655" on="0"/>
        <pt x="201" y="652" on="1"/>
        <pt x="201" y="46" on="1"/>
        <pt x="206" y="45" on="0"/>
        <pt x="232" y="44" on="0"/>
        <pt x="262" y="43" on="0"/>
        <pt x="289" y="43" on="0"/>
        <pt x="295" y="43" on="1"/>
        <pt x="364" y="43" on="0"/>
        <pt x="460" y="95" on="0"/>
        <pt x="521" y="182" on="0"/>
        <pt x="549" y="296" on="0"/>
        <pt x="549" y="359" on="1"/>
        <pt x="549" y="408" on="0"/>
        <pt x="522" y="513" on="0"/>
        <pt x="461" y="600" on="0"/>
        <pt x="361" y="656" on="0"/>
      </contour>
    </TTGlyph>
    <TTGlyph name="E" xMin="29" yMin="0" xMax="524" yMax="700">
      <contour>
        <pt x="503" y="700" on="1"/>
        <pt x="502" y="660" on="0"/>
        <pt x="497" y="579" on="0"/>
        <pt x="492" y="538" on="1"/>
        <pt x="466" y="538" on="1"/>
        <pt x="425" y="648" on="1"/>
        <pt x="207" y="648" on="1"/>
        <pt x="207" y="383" on="1"/>
        <pt x="370" y="383" on="1"/>
        <pt x="409" y="457" on="1"/>
        <pt x="434" y="457" on="1"/>
        <pt x="440" y="358" on="0"/>
        <pt x="434" y="255" on="1"/>
        <pt x="409" y="255" on="1"/>
        <pt x="370" y="331" on="1"/>
        <pt x="207" y="331" on="1"/>
        <pt x="207" y="52" on="1"/>
        <pt x="437" y="52" on="1"/>
        <pt x="486" y="172" on="1"/>
        <pt x="511" y="172" on="1"/>
        <pt x="518" y="130" on="0"/>
        <pt x="524" y="44" on="0"/>
        <pt x="522" y="0" on="1"/>
        <pt x="29" y="0" on="1"/>
        <pt x="29" y="29" on="1"/>
        <pt x="64" y="45" on="0"/>
        <pt x="111" y="53" on="1"/>
        <pt x="111" y="646" on="1"/>
        <pt x="91" y="650" on="0"/>
        <pt x="49" y="663" on="0"/>
        <pt x="29" y="671" on="1"/>
        <pt x="29" y="700" on="1"/>
      </contour>
    </TTGlyph>
    <TTGlyph name="Eacute" xMin="29" yMin="0" xMax="524" yMax="894">
      <component glyphName="E" x="0" y="0" flags="0x204"/>
      <component glyphName="uniF6C9" x="155" y="0" flags="0x4"/>
    </TTGlyph>
    <TTGlyph name="Ecircumflex" xMin="29" yMin="0" xMax="524" yMax="887">
      <component glyphName="E" x="0" y="0" flags="0x204"/>
      <component glyphName="uniF408" x="101" y="0" flags="0x4"/>
    </TTGlyph>
    <TTGlyph name="Edieresis" xMin="29" yMin="0" xMax="524" yMax="837">
      <component glyphName="E" x="0" y="0" flags="0x204"/>
      <component glyphName="uniF6CB" x="59" y="0" flags="0x4"/>
    </TTGlyph>
    <TTGlyph name="Egrave" xMin="29" yMin="0" xMax="524" yMax="894">
      <component glyphName="E" x="0" y="0" flags="0x204"/>
      <component glyphName="uniF6CE" x="53" y="0" flags="0x4"/>
    </TTGlyph>
    <TTGlyph name="Eth" xMin="22" yMin="-9" xMax="656" yMax="708">
      <contour>
        <pt x="22" y="384" on="1"/>
        <pt x="111" y="384" on="1"/>
        <pt x="111" y="646" on="1"/>
        <pt x="88" y="651" on="0"/>
        <pt x="46" y="664" on="0"/>
        <pt x="29" y="671" on="1"/>
        <pt x="29" y="700" on="1"/>
        <pt x="131" y="700" on="1"/>
        <pt x="148" y="700" on="0"/>
        <pt x="194" y="702" on="0"/>
        <pt x="243" y="705" on="0"/>
        <pt x="288" y="708" on="0"/>
        <pt x="303" y="708" on="1"/>
        <pt x="388" y="708" on="0"/>
        <pt x="519" y="661" on="0"/>
        <pt x="609" y="572" on="0"/>
        <pt x="656" y="442" on="0"/>
        <pt x="656" y="359" on="1"/>
        <pt x="656" y="280" on="0"/>
        <pt x="611" y="145" on="0"/>
        <pt x="519" y="47" on="0"/>
        <pt x="378" y="-9" on="0"/>
        <pt x="282" y="-9" on="1"/>
        <pt x="268" y="-9" on="0"/>
        <pt x="229" y="-6" on="0"/>
        <pt x="187" y="-3" on="0"/>
        <pt x="144" y="0" on="0"/>
        <pt x="125" y="0" on="1"/>
        <pt x="29" y="0" on="1"/>
        <pt x="29" y="29" on="1"/>
        <pt x="64" y="45" on="0"/>
        <pt x="111" y="53" on="1"/>
        <pt x="111" y="332" on="1"/>
        <pt x="22" y="332" on="1"/>
      </contour>
      <contour>
        <pt x="289" y="656" on="1"/>
        <pt x="263" y="656" on="0"/>
        <pt x="215" y="655" on="0"/>
        <pt x="201" y="652" on="1"/>
        <pt x="201" y="384" on="1"/>
        <pt x="368" y="384" on="1"/>
        <pt x="368" y="332" on="1"/>
        <pt x="201" y="332" on="1"/>
        <pt x="201" y="46" on="1"/>
        <pt x="206" y="45" on="0"/>
        <pt x="233" y="44" on="0"/>
        <pt x="263" y="43" on="0"/>
        <pt x="290" y="43" on="0"/>
        <pt x="296" y="43" on="1"/>
        <pt x="365" y="43" on="0"/>
        <pt x="461" y="95" on="0"/>
        <pt x="521" y="182" on="0"/>
        <pt x="549" y="296" on="0"/>
        <pt x="549" y="359" on="1"/>
        <pt x="549" y="408" on="0"/>
        <pt x="522" y="513" on="0"/>
        <pt x="461" y="600" on="0"/>
        <pt x="362" y="656" on="0"/>
      </contour>
    </TTGlyph>
    <TTGlyph name="Euro" xMin="-56" yMin="-12" xMax="529" yMax="712">
      <contour>
        <pt x="-41" y="439" on="1"/>
        <pt x="28" y="439" on="1"/>
        <pt x="38" y="510" on="0"/>
        <pt x="92" y="613" on="0"/>
        <pt x="172" y="680" on="0"/>
        <pt x="273" y="712" on="0"/>
        <pt x="332" y="712" on="1"/>
        <pt x="398" y="712" on="0"/>
        <pt x="488" y="695" on="0"/>
        <pt x="522" y="678" on="1"/>
        <pt x="522" y="662" on="0"/>
        <pt x="520" y="619" on="0"/>
        <pt x="516" y="571" on="0"/>
        <pt x="510" y="525" on="0"/>
        <pt x="507" y="506" on="1"/>
        <pt x="481" y="506" on="1"/>
        <pt x="429" y="650" on="1"/>
        <pt x="418" y="656" on="0"/>
        <pt x="367" y="660" on="0"/>
        <pt x="342" y="660" on="1"/>
        <pt x="257" y="660" on="0"/>
        <pt x="143" y="555" on="0"/>
        <pt x="126" y="439" on="1"/>
        <pt x="428" y="439" on="1"/>
        <pt x="413" y="383" on="1"/>
        <pt x="120" y="383" on="1"/>
        <pt x="120" y="350" on="1"/>
        <pt x="120" y="340" on="0"/>
        <pt x="120" y="322" on="0"/>
        <pt x="121" y="314" on="1"/>
        <pt x="394" y="314" on="1"/>
        <pt x="379" y="257" on="1"/>
        <pt x="127" y="257" on="1"/>
        <pt x="136" y="208" on="0"/>
        <pt x="173" y="128" on="0"/>
        <pt x="230" y="71" on="0"/>
        <pt x="309" y="40" on="0"/>
        <pt x="360" y="40" on="1"/>
        <pt x="393" y="40" on="0"/>
        <pt x="437" y="50" on="0"/>
        <pt x="444" y="58" on="1"/>
        <pt x="491" y="182" on="1"/>
        <pt x="517" y="182" on="1"/>
        <pt x="522" y="154" on="0"/>
        <pt x="529" y="69" on="0"/>
        <pt x="528" y="29" on="1"/>
        <pt x="513" y="17" on="0"/>
        <pt x="471" y="2" on="0"/>
        <pt x="424" y="-8" on="0"/>
        <pt x="376" y="-12" on="0"/>
        <pt x="354" y="-12" on="1"/>
        <pt x="208" y="-12" on="0"/>
        <pt x="48" y="122" on="0"/>
        <pt x="29" y="257" on="1"/>
        <pt x="-56" y="257" on="1"/>
        <pt x="-41" y="314" on="1"/>
        <pt x="23" y="314" on="1"/>
        <pt x="22" y="323" on="0"/>
        <pt x="22" y="341" on="0"/>
        <pt x="22" y="351" on="1"/>
        <pt x="22" y="359" on="0"/>
        <pt x="22" y="375" on="0"/>
        <pt x="23" y="383" on="1"/>
        <pt x="-56" y="383" on="1"/>
      </contour>
    </TTGlyph>
    <TTGlyph name="F" xMin="29" yMin="0" xMax="498" yMax="700">
      <contour>
        <pt x="197" y="53" on="1"/>
        <pt x="241" y="47" on="0"/>
        <pt x="283" y="29" on="1"/>
        <pt x="283" y="0" on="1"/>
        <pt x="29" y="0" on="1"/>
        <pt x="29" y="29" on="1"/>
        <pt x="46" y="37" on="0"/>
        <pt x="82" y="49" on="0"/>
        <pt x="101" y="53" on="1"/>
        <pt x="101" y="646" on="1"/>
        <pt x="79" y="651" on="0"/>
        <pt x="43" y="664" on="0"/>
        <pt x="29" y="671" on="1"/>
        <pt x="29" y="700" on="1"/>
        <pt x="498" y="700" on="1"/>
        <pt x="497" y="661" on="0"/>
        <pt x="492" y="579" on="0"/>
        <pt x="487" y="538" on="1"/>
        <pt x="461" y="538" on="1"/>
        <pt x="420" y="648" on="1"/>
        <pt x="197" y="648" on="1"/>
        <pt x="197" y="363" on="1"/>
        <pt x="370" y="363" on="1"/>
        <pt x="411" y="437" on="1"/>
        <pt x="434" y="437" on="1"/>
        <pt x="436" y="414" on="0"/>
        <pt x="438" y="363" on="0"/>
        <pt x="438" y="337" on="1"/>
        <pt x="438" y="310" on="0"/>
        <pt x="436" y="258" on="0"/>
        <pt x="434" y="235" on="1"/>
        <pt x="411" y="235" on="1"/>
        <pt x="370" y="312" on="1"/>
        <pt x="197" y="312" on="1"/>
      </contour>
    </TTGlyph>
    <TTGlyph name="G" xMin="53" yMin="-12" xMax="671" yMax="712">
      <contour>
        <pt x="609" y="48" on="1"/>
        <pt x="590" y="37" on="0"/>
        <pt x="539" y="16" on="0"/>
        <pt x="482" y="-1" on="0"/>
        <pt x="425" y="-12" on="0"/>
        <pt x="400" y="-12" on="1"/>
        <pt x="320" y="-12" on="0"/>
        <pt x="192" y="31" on="0"/>
        <pt x="102" y="120" on="0"/>
        <pt x="53" y="256" on="0"/>
        <pt x="53" y="350" on="1"/>
        <pt x="53" y="448" on="0"/>
        <pt x="110" y="586" on="0"/>
        <pt x="205" y="673" on="0"/>
        <pt x="326" y="712" on="0"/>
        <pt x="389" y="712" on="1"/>
        <pt x="455" y="712" on="0"/>
        <pt x="546" y="695" on="0"/>
        <pt x="580" y="678" on="1"/>
        <pt x="580" y="663" on="0"/>
        <pt x="578" y="619" on="0"/>
        <pt x="574" y="571" on="0"/>
        <pt x="568" y="524" on="0"/>
        <pt x="565" y="506" on="1"/>
        <pt x="539" y="506" on="1"/>
        <pt x="487" y="650" on="1"/>
        <pt x="476" y="656" on="0"/>
        <pt x="424" y="660" on="0"/>
        <pt x="399" y="660" on="1"/>
        <pt x="349" y="660" on="0"/>
        <pt x="259" y="623" on="0"/>
        <pt x="192" y="546" on="0"/>
        <pt x="152" y="429" on="0"/>
        <pt x="152" y="350" on="1"/>
        <pt x="152" y="279" on="0"/>
        <pt x="191" y="165" on="0"/>
        <pt x="260" y="84" on="0"/>
        <pt x="353" y="40" on="0"/>
        <pt x="407" y="40" on="1"/>
        <pt x="427" y="40" on="0"/>
        <pt x="465" y="48" on="0"/>
        <pt x="497" y="59" on="0"/>
        <pt x="518" y="71" on="0"/>
        <pt x="522" y="75" on="1"/>
        <pt x="522" y="277" on="1"/>
        <pt x="496" y="279" on="0"/>
        <pt x="449" y="293" on="0"/>
        <pt x="426" y="301" on="1"/>
        <pt x="426" y="330" on="1"/>
        <pt x="671" y="330" on="1"/>
        <pt x="671" y="301" on="1"/>
        <pt x="661" y="294" on="0"/>
        <pt x="633" y="282" on="0"/>
        <pt x="609" y="277" on="1"/>
      </contour>
    </TTGlyph>
    <TTGlyph name="H" xMin="29" yMin="0" xMax="699" yMax="700">
      <contour>
        <pt x="282" y="0" on="1"/>
        <pt x="29" y="0" on="1"/>
        <pt x="29" y="29" on="1"/>
        <pt x="69" y="45" on="0"/>
        <pt x="111" y="53" on="1"/>
        <pt x="111" y="646" on="1"/>
        <pt x="64" y="653" on="0"/>
        <pt x="29" y="671" on="1"/>
        <pt x="29" y="700" on="1"/>
        <pt x="282" y="700" on="1"/>
        <pt x="282" y="671" on="1"/>
        <pt x="265" y="662" on="0"/>
        <pt x="227" y="650" on="0"/>
        <pt x="207" y="646" on="1"/>
        <pt x="207" y="385" on="1"/>
        <pt x="521" y="385" on="1"/>
        <pt x="521" y="646" on="1"/>
        <pt x="500" y="651" on="0"/>
        <pt x="463" y="663" on="0"/>
        <pt x="446" y="671" on="1"/>
        <pt x="446" y="700" on="1"/>
        <pt x="699" y="700" on="1"/>
        <pt x="699" y="671" on="1"/>
        <pt x="681" y="661" on="0"/>
        <pt x="638" y="650" on="0"/>
        <pt x="617" y="646" on="1"/>
        <pt x="617" y="53" on="1"/>
        <pt x="640" y="49" on="0"/>
        <pt x="682" y="37" on="0"/>
        <pt x="699" y="29" on="1"/>
        <pt x="699" y="0" on="1"/>
        <pt x="446" y="0" on="1"/>
        <pt x="446" y="29" on="1"/>
        <pt x="482" y="45" on="0"/>
        <pt x="521" y="53" on="1"/>
        <pt x="521" y="333" on="1"/>
        <pt x="207" y="333" on="1"/>
        <pt x="207" y="53" on="1"/>
        <pt x="227" y="49" on="0"/>
        <pt x="265" y="37" on="0"/>
        <pt x="282" y="29" on="1"/>
      </contour>
    </TTGlyph>
    <TTGlyph name="I" xMin="48" yMin="0" xMax="304" yMax="700">
      <contour>
        <pt x="304" y="0" on="1"/>
        <pt x="48" y="0" on="1"/>
        <pt x="48" y="29" on="1"/>
        <pt x="87" y="47" on="0"/>
        <pt x="128" y="53" on="1"/>
        <pt x="128" y="646" on="1"/>
        <pt x="108" y="650" on="0"/>
        <pt x="68" y="663" on="0"/>
        <pt x="48" y="671" on="1"/>
        <pt x="48" y="700" on="1"/>
        <pt x="304" y="700" on="1"/>
        <pt x="304" y="671" on="1"/>
        <pt x="286" y="663" on="0"/>
        <pt x="244" y="650" on="0"/>
        <pt x="224" y="646" on="1"/>
        <pt x="224" y="53" on="1"/>
        <pt x="245" y="49" on="0"/>
        <pt x="287" y="37" on="0"/>
        <pt x="304" y="29" on="1"/>
      </contour>
    </TTGlyph>
    <TTGlyph name="Iacute" xMin="48" yMin="0" xMax="337" yMax="894">
      <component glyphName="I" x="0" y="0" flags="0x204"/>
      <component glyphName="uniF6C9" x="34" y="0" flags="0x4"/>
    </TTGlyph>
    <TTGlyph name="Icircumflex" xMin="38" yMin="0" xMax="316" yMax="887">
      <component glyphName="I" x="0" y="0" flags="0x204"/>
      <component glyphName="uniF408" x="-22" y="0" flags="0x4"/>
    </TTGlyph>
    <TTGlyph name="Idieresis" xMin="9" yMin="0" xMax="345" yMax="837">
      <component glyphName="I" x="0" y="0" flags="0x204"/>
      <component glyphName="uniF6CB" x="-51" y="0" flags="0x4"/>
    </TTGlyph>
    <TTGlyph name="Igrave" xMin="36" yMin="0" xMax="304" yMax="894">
      <component glyphName="I" x="0" y="0" flags="0x204"/>
      <component glyphName="uniF6CE" x="-24" y="0" flags="0x4"/>
    </TTGlyph>
    <TTGlyph name="J" xMin="39" yMin="-160" xMax="293" yMax="700">
      <contour>
        <pt x="39" y="700" on="1"/>
        <pt x="293" y="700" on="1"/>
        <pt x="293" y="671" on="1"/>
        <pt x="275" y="663" on="0"/>
        <pt x="237" y="650" on="0"/>
        <pt x="217" y="646" on="1"/>
        <pt x="217" y="86" on="1"/>
        <pt x="217" y="16" on="0"/>
        <pt x="185" y="-74" on="0"/>
        <pt x="138" y="-129" on="0"/>
        <pt x="85" y="-155" on="0"/>
        <pt x="63" y="-160" on="1"/>
        <pt x="52" y="-145" on="1"/>
        <pt x="67" y="-132" on="0"/>
        <pt x="92" y="-99" on="0"/>
        <pt x="111" y="-49" on="0"/>
        <pt x="121" y="23" on="0"/>
        <pt x="121" y="75" on="1"/>
        <pt x="121" y="646" on="1"/>
        <pt x="99" y="651" on="0"/>
        <pt x="57" y="663" on="0"/>
        <pt x="39" y="671" on="1"/>
      </contour>
    </TTGlyph>
    <TTGlyph name="K" xMin="29" yMin="0" xMax="646" yMax="700">
      <contour>
        <pt x="382" y="700" on="1"/>
        <pt x="603" y="700" on="1"/>
        <pt x="603" y="671" on="1"/>
        <pt x="583" y="662" on="0"/>
        <pt x="545" y="650" on="0"/>
        <pt x="527" y="646" on="1"/>
        <pt x="326" y="380" on="1"/>
        <pt x="351" y="347" on="0"/>
        <pt x="416" y="265" on="0"/>
        <pt x="487" y="178" on="0"/>
        <pt x="562" y="89" on="0"/>
        <pt x="598" y="49" on="1"/>
        <pt x="646" y="25" on="1"/>
        <pt x="646" y="0" on="1"/>
        <pt x="521" y="0" on="1"/>
        <pt x="487" y="24" on="1"/>
        <pt x="428" y="93" on="0"/>
        <pt x="311" y="253" on="0"/>
        <pt x="256" y="335" on="1"/>
        <pt x="207" y="335" on="1"/>
        <pt x="207" y="53" on="1"/>
        <pt x="253" y="45" on="0"/>
        <pt x="282" y="29" on="1"/>
        <pt x="282" y="0" on="1"/>
        <pt x="29" y="0" on="1"/>
        <pt x="29" y="29" on="1"/>
        <pt x="69" y="45" on="0"/>
        <pt x="111" y="53" on="1"/>
        <pt x="111" y="646" on="1"/>
        <pt x="66" y="652" on="0"/>
        <pt x="29" y="671" on="1"/>
        <pt x="29" y="700" on="1"/>
        <pt x="282" y="700" on="1"/>
        <pt x="282" y="671" on="1"/>
        <pt x="266" y="664" on="0"/>
        <pt x="228" y="651" on="0"/>
        <pt x="207" y="646" on="1"/>
        <pt x="207" y="369" on="1"/>
        <pt x="267" y="383" on="1"/>
        <pt x="454" y="646" on="1"/>
        <pt x="434" y="651" on="0"/>
        <pt x="398" y="663" on="0"/>
        <pt x="382" y="671" on="1"/>
      </contour>
    </TTGlyph>
    <TTGlyph name="L" xMin="29" yMin="0" xMax="533" yMax="700">
      <contour>
        <pt x="29" y="700" on="1"/>
        <pt x="303" y="700" on="1"/>
        <pt x="303" y="671" on="1"/>
        <pt x="279" y="662" on="0"/>
        <pt x="231" y="649" on="0"/>
        <pt x="207" y="646" on="1"/>
        <pt x="207" y="52" on="1"/>
        <pt x="437" y="52" on="1"/>
        <pt x="496" y="213" on="1"/>
        <pt x="522" y="213" on="1"/>
        <pt x="525" y="192" on="0"/>
        <pt x="530" y="137" on="0"/>
        <pt x="533" y="78" on="0"/>
        <pt x="533" y="22" on="0"/>
        <pt x="532" y="0" on="1"/>
        <pt x="29" y="0" on="1"/>
        <pt x="29" y="29" on="1"/>
        <pt x="53" y="40" on="0"/>
        <pt x="93" y="50" on="0"/>
        <pt x="111" y="53" on="1"/>
        <pt x="111" y="646" on="1"/>
        <pt x="88" y="650" on="0"/>
        <pt x="46" y="663" on="0"/>
        <pt x="29" y="671" on="1"/>
      </contour>
    </TTGlyph>
    <TTGlyph name="M" xMin="29" yMin="0" xMax="838" yMax="700">
      <contour>
        <pt x="837" y="0" on="1"/>
        <pt x="589" y="0" on="1"/>
        <pt x="589" y="29" on="1"/>
        <pt x="609" y="37" on="0"/>
        <pt x="649" y="48" on="0"/>
        <pt x="670" y="53" on="1"/>
        <pt x="670" y="503" on="1"/>
        <pt x="674" y="620" on="1"/>
        <pt x="666" y="620" on="1"/>
        <pt x="633" y="513" on="1"/>
        <pt x="428" y="0" on="1"/>
        <pt x="402" y="0" on="1"/>
        <pt x="207" y="513" on="1"/>
        <pt x="171" y="630" on="1"/>
        <pt x="162" y="630" on="1"/>
        <pt x="163" y="503" on="1"/>
        <pt x="163" y="53" on="1"/>
        <pt x="182" y="49" on="0"/>
        <pt x="220" y="37" on="0"/>
        <pt x="239" y="29" on="1"/>
        <pt x="239" y="0" on="1"/>
        <pt x="30" y="0" on="1"/>
        <pt x="30" y="29" on="1"/>
        <pt x="49" y="37" on="0"/>
        <pt x="90" y="50" on="0"/>
        <pt x="111" y="54" on="1"/>
        <pt x="111" y="646" on="1"/>
        <pt x="90" y="650" on="0"/>
        <pt x="49" y="663" on="0"/>
        <pt x="29" y="671" on="1"/>
        <pt x="29" y="700" on="1"/>
        <pt x="234" y="700" on="1"/>
        <pt x="408" y="243" on="1"/>
        <pt x="442" y="140" on="1"/>
        <pt x="443" y="140" on="1"/>
        <pt x="477" y="245" on="1"/>
        <pt x="657" y="700" on="1"/>
        <pt x="838" y="700" on="1"/>
        <pt x="838" y="671" on="1"/>
        <pt x="820" y="663" on="0"/>
        <pt x="782" y="650" on="0"/>
        <pt x="762" y="646" on="1"/>
        <pt x="762" y="52" on="1"/>
        <pt x="783" y="48" on="0"/>
        <pt x="820" y="37" on="0"/>
        <pt x="837" y="29" on="1"/>
      </contour>
    </TTGlyph>
    <TTGlyph name="N" xMin="29" yMin="-12" xMax="703" yMax="700">
      <contour>
        <pt x="487" y="700" on="1"/>
        <pt x="703" y="700" on="1"/>
        <pt x="703" y="671" on="1"/>
        <pt x="661" y="643" on="0"/>
        <pt x="621" y="631" on="1"/>
        <pt x="621" y="-12" on="1"/>
        <pt x="564" y="-12" on="1"/>
        <pt x="201" y="539" on="1"/>
        <pt x="162" y="617" on="1"/>
        <pt x="159" y="617" on="1"/>
        <pt x="168" y="539" on="1"/>
        <pt x="168" y="64" on="1"/>
        <pt x="209" y="53" on="0"/>
        <pt x="245" y="29" on="1"/>
        <pt x="245" y="0" on="1"/>
        <pt x="29" y="0" on="1"/>
        <pt x="29" y="29" on="1"/>
        <pt x="47" y="40" on="0"/>
        <pt x="88" y="57" on="0"/>
        <pt x="111" y="64" on="1"/>
        <pt x="111" y="637" on="1"/>
        <pt x="91" y="645" on="0"/>
        <pt x="52" y="663" on="0"/>
        <pt x="35" y="672" on="1"/>
        <pt x="35" y="700" on="1"/>
        <pt x="204" y="700" on="1"/>
        <pt x="519" y="225" on="1"/>
        <pt x="565" y="139" on="1"/>
        <pt x="569" y="139" on="1"/>
        <pt x="564" y="225" on="1"/>
        <pt x="564" y="631" on="1"/>
        <pt x="543" y="640" on="0"/>
        <pt x="504" y="660" on="0"/>
        <pt x="487" y="671" on="1"/>
      </contour>
    </TTGlyph>
    <TTGlyph name="Ntilde" xMin="29" yMin="-12" xMax="703" yMax="862">
      <component glyphName="N" x="0" y="0" flags="0x204"/>
      <component glyphName="uniF40D" x="147" y="0" flags="0x4"/>
    </TTGlyph>
    <TTGlyph name="O" xMin="53" yMin="-12" xMax="687" yMax="712">
      <contour>
        <pt x="53" y="350" on="1"/>
        <pt x="53" y="428" on="0"/>
        <pt x="96" y="561" on="0"/>
        <pt x="177" y="658" on="0"/>
        <pt x="295" y="712" on="0"/>
        <pt x="370" y="712" on="1"/>
        <pt x="445" y="712" on="0"/>
        <pt x="563" y="658" on="0"/>
        <pt x="644" y="561" on="0"/>
        <pt x="687" y="428" on="0"/>
        <pt x="687" y="350" on="1"/>
        <pt x="687" y="272" on="0"/>
        <pt x="644" y="139" on="0"/>
        <pt x="563" y="42" on="0"/>
        <pt x="445" y="-12" on="0"/>
        <pt x="370" y="-12" on="1"/>
        <pt x="295" y="-12" on="0"/>
        <pt x="177" y="42" on="0"/>
        <pt x="96" y="139" on="0"/>
        <pt x="53" y="272" on="0"/>
      </contour>
      <contour>
        <pt x="160" y="350" on="1"/>
        <pt x="160" y="286" on="0"/>
        <pt x="187" y="173" on="0"/>
        <pt x="241" y="89" on="0"/>
        <pt x="323" y="40" on="0"/>
        <pt x="379" y="40" on="1"/>
        <pt x="430" y="40" on="0"/>
        <pt x="506" y="89" on="0"/>
        <pt x="555" y="173" on="0"/>
        <pt x="580" y="286" on="0"/>
        <pt x="580" y="350" on="1"/>
        <pt x="580" y="414" on="0"/>
        <pt x="554" y="527" on="0"/>
        <pt x="500" y="611" on="0"/>
        <pt x="418" y="660" on="0"/>
        <pt x="362" y="660" on="1"/>
        <pt x="307" y="660" on="0"/>
        <pt x="230" y="611" on="0"/>
        <pt x="182" y="527" on="0"/>
        <pt x="160" y="414" on="0"/>
      </contour>
    </TTGlyph>
    <TTGlyph name="OE" xMin="53" yMin="-12" xMax="897" yMax="712">
      <contour>
        <pt x="486" y="0" on="1"/>
        <pt x="460" y="-5" on="0"/>
        <pt x="397" y="-12" on="0"/>
        <pt x="370" y="-12" on="1"/>
        <pt x="295" y="-12" on="0"/>
        <pt x="177" y="42" on="0"/>
        <pt x="96" y="139" on="0"/>
        <pt x="53" y="272" on="0"/>
        <pt x="53" y="350" on="1"/>
        <pt x="53" y="428" on="0"/>
        <pt x="96" y="561" on="0"/>
        <pt x="177" y="658" on="0"/>
        <pt x="295" y="712" on="0"/>
        <pt x="370" y="712" on="1"/>
        <pt x="393" y="712" on="0"/>
        <pt x="455" y="706" on="0"/>
        <pt x="484" y="700" on="1"/>
        <pt x="876" y="700" on="1"/>
        <pt x="874" y="660" on="0"/>
        <pt x="870" y="579" on="0"/>
        <pt x="865" y="538" on="1"/>
        <pt x="839" y="538" on="1"/>
        <pt x="797" y="648" on="1"/>
        <pt x="580" y="648" on="1"/>
        <pt x="580" y="383" on="1"/>
        <pt x="742" y="383" on="1"/>
        <pt x="782" y="457" on="1"/>
        <pt x="806" y="457" on="1"/>
        <pt x="814" y="358" on="0"/>
        <pt x="806" y="255" on="1"/>
        <pt x="782" y="255" on="1"/>
        <pt x="742" y="331" on="1"/>
        <pt x="580" y="331" on="1"/>
        <pt x="580" y="52" on="1"/>
        <pt x="810" y="52" on="1"/>
        <pt x="858" y="172" on="1"/>
        <pt x="884" y="172" on="1"/>
        <pt x="890" y="130" on="0"/>
        <pt x="897" y="44" on="0"/>
        <pt x="895" y="0" on="1"/>
      </contour>
      <contour>
        <pt x="379" y="40" on="1"/>
        <pt x="405" y="40" on="0"/>
        <pt x="458" y="48" on="0"/>
        <pt x="484" y="59" on="1"/>
        <pt x="484" y="636" on="1"/>
        <pt x="458" y="647" on="0"/>
        <pt x="395" y="660" on="0"/>
        <pt x="362" y="660" on="1"/>
        <pt x="307" y="660" on="0"/>
        <pt x="230" y="611" on="0"/>
        <pt x="182" y="527" on="0"/>
        <pt x="160" y="414" on="0"/>
        <pt x="160" y="350" on="1"/>
        <pt x="160" y="286" on="0"/>
        <pt x="187" y="173" on="0"/>
        <pt x="241" y="89" on="0"/>
        <pt x="323" y="40" on="0"/>
      </contour>
    </TTGlyph>
    <TTGlyph name="Oacute" xMin="53" yMin="-12" xMax="687" yMax="894">
      <component glyphName="O" x="0" y="0" flags="0x204"/>
      <component glyphName="uniF6C9" x="216" y="0" flags="0x4"/>
    </TTGlyph>
    <TTGlyph name="Ocircumflex" xMin="53" yMin="-12" xMax="687" yMax="887">
      <component glyphName="O" x="0" y="0" flags="0x204"/>
      <component glyphName="uniF408" x="171" y="0" flags="0x4"/>
    </TTGlyph>
    <TTGlyph name="Odieresis" xMin="53" yMin="-12" xMax="687" yMax="837">
      <component glyphName="O" x="0" y="0" flags="0x204"/>
      <component glyphName="uniF6CB" x="142" y="0" flags="0x4"/>
    </TTGlyph>
    <TTGlyph name="Ograve" xMin="53" yMin="-12" xMax="687" yMax="894">
      <component glyphName="O" x="0" y="0" flags="0x204"/>
      <component glyphName="uniF6CE" x="135" y="0" flags="0x4"/>
    </TTGlyph>
    <TTGlyph name="Oslash" xMin="53" yMin="-13" xMax="687" yMax="713">
      <contour>
        <pt x="53" y="350" on="1"/>
        <pt x="53" y="428" on="0"/>
        <pt x="96" y="561" on="0"/>
        <pt x="177" y="658" on="0"/>
        <pt x="295" y="712" on="0"/>
        <pt x="370" y="712" on="1"/>
        <pt x="419" y="712" on="0"/>
        <pt x="502" y="688" on="0"/>
        <pt x="537" y="667" on="1"/>
        <pt x="565" y="713" on="1"/>
        <pt x="616" y="684" on="1"/>
        <pt x="582" y="631" on="1"/>
        <pt x="633" y="582" on="0"/>
        <pt x="687" y="438" on="0"/>
        <pt x="687" y="350" on="1"/>
        <pt x="687" y="272" on="0"/>
        <pt x="644" y="139" on="0"/>
        <pt x="563" y="42" on="0"/>
        <pt x="445" y="-12" on="0"/>
        <pt x="370" y="-12" on="1"/>
        <pt x="322" y="-12" on="0"/>
        <pt x="239" y="11" on="0"/>
        <pt x="204" y="31" on="1"/>
        <pt x="176" y="-13" on="1"/>
        <pt x="129" y="16" on="1"/>
        <pt x="159" y="65" on="1"/>
        <pt x="107" y="114" on="0"/>
        <pt x="53" y="260" on="0"/>
      </contour>
      <contour>
        <pt x="160" y="350" on="1"/>
        <pt x="160" y="290" on="0"/>
        <pt x="184" y="184" on="0"/>
        <pt x="208" y="143" on="1"/>
        <pt x="498" y="606" on="1"/>
        <pt x="472" y="632" on="0"/>
        <pt x="404" y="660" on="0"/>
        <pt x="362" y="660" on="1"/>
        <pt x="307" y="660" on="0"/>
        <pt x="230" y="611" on="0"/>
        <pt x="182" y="527" on="0"/>
        <pt x="160" y="414" on="0"/>
      </contour>
      <contour>
        <pt x="580" y="350" on="1"/>
        <pt x="580" y="410" on="0"/>
        <pt x="557" y="513" on="0"/>
        <pt x="533" y="554" on="1"/>
        <pt x="244" y="93" on="1"/>
        <pt x="270" y="67" on="0"/>
        <pt x="336" y="40" on="0"/>
        <pt x="379" y="40" on="1"/>
        <pt x="430" y="40" on="0"/>
        <pt x="506" y="89" on="0"/>
        <pt x="555" y="173" on="0"/>
        <pt x="580" y="286" on="0"/>
      </contour>
    </TTGlyph>
    <TTGlyph name="Otilde" xMin="53" yMin="-12" xMax="687" yMax="862">
      <component glyphName="O" x="0" y="0" flags="0x204"/>
      <component glyphName="uniF40D" x="151" y="0" flags="0x4"/>
    </TTGlyph>
    <TTGlyph name="P" xMin="29" yMin="0" xMax="557" yMax="708">
      <contour>
        <pt x="207" y="53" on="1"/>
        <pt x="234" y="50" on="0"/>
        <pt x="282" y="37" on="0"/>
        <pt x="303" y="29" on="1"/>
        <pt x="303" y="0" on="1"/>
        <pt x="29" y="0" on="1"/>
        <pt x="29" y="29" on="1"/>
        <pt x="49" y="39" on="0"/>
        <pt x="91" y="49" on="0"/>
        <pt x="111" y="53" on="1"/>
        <pt x="111" y="646" on="1"/>
        <pt x="88" y="650" on="0"/>
        <pt x="48" y="663" on="0"/>
        <pt x="29" y="671" on="1"/>
        <pt x="29" y="700" on="1"/>
        <pt x="119" y="700" on="1"/>
        <pt x="159" y="700" on="0"/>
        <pt x="253" y="708" on="0"/>
        <pt x="296" y="708" on="1"/>
        <pt x="345" y="708" on="0"/>
        <pt x="439" y="687" on="0"/>
        <pt x="512" y="637" on="0"/>
        <pt x="557" y="554" on="0"/>
        <pt x="557" y="492" on="1"/>
        <pt x="557" y="433" on="0"/>
        <pt x="511" y="349" on="0"/>
        <pt x="434" y="295" on="0"/>
        <pt x="336" y="270" on="0"/>
        <pt x="284" y="270" on="1"/>
        <pt x="279" y="270" on="0"/>
        <pt x="258" y="270" on="0"/>
        <pt x="234" y="271" on="0"/>
        <pt x="212" y="273" on="0"/>
        <pt x="207" y="274" on="1"/>
      </contour>
      <contour>
        <pt x="275" y="656" on="1"/>
        <pt x="251" y="656" on="0"/>
        <pt x="221" y="654" on="0"/>
        <pt x="207" y="651" on="1"/>
        <pt x="207" y="327" on="1"/>
        <pt x="212" y="325" on="0"/>
        <pt x="231" y="324" on="0"/>
        <pt x="252" y="322" on="0"/>
        <pt x="272" y="322" on="0"/>
        <pt x="278" y="322" on="1"/>
        <pt x="313" y="322" on="0"/>
        <pt x="375" y="341" on="0"/>
        <pt x="422" y="383" on="0"/>
        <pt x="450" y="447" on="0"/>
        <pt x="450" y="492" on="1"/>
        <pt x="450" y="574" on="0"/>
        <pt x="357" y="656" on="0"/>
      </contour>
    </TTGlyph>
    <TTGlyph name="Q" xMin="53" yMin="-202" xMax="760" yMax="712">
      <contour>
        <pt x="760" y="-115" on="1"/>
        <pt x="720" y="-151" on="0"/>
        <pt x="636" y="-202" on="0"/>
        <pt x="588" y="-201" on="1"/>
        <pt x="547" y="-201" on="0"/>
        <pt x="457" y="-171" on="0"/>
        <pt x="355" y="-129" on="0"/>
        <pt x="240" y="-83" on="0"/>
        <pt x="173" y="-66" on="1"/>
        <pt x="203" y="-46" on="1"/>
        <pt x="225" y="-43" on="0"/>
        <pt x="246" y="-43" on="1"/>
        <pt x="296" y="-43" on="0"/>
        <pt x="393" y="-67" on="0"/>
        <pt x="491" y="-95" on="0"/>
        <pt x="591" y="-119" on="0"/>
        <pt x="643" y="-119" on="1"/>
        <pt x="670" y="-119" on="0"/>
        <pt x="726" y="-111" on="0"/>
        <pt x="755" y="-101" on="1"/>
      </contour>
      <contour>
        <pt x="53" y="350" on="1"/>
        <pt x="53" y="428" on="0"/>
        <pt x="96" y="561" on="0"/>
        <pt x="177" y="658" on="0"/>
        <pt x="295" y="712" on="0"/>
        <pt x="370" y="712" on="1"/>
        <pt x="445" y="712" on="0"/>
        <pt x="563" y="658" on="0"/>
        <pt x="644" y="561" on="0"/>
        <pt x="687" y="428" on="0"/>
        <pt x="687" y="350" on="1"/>
        <pt x="687" y="272" on="0"/>
        <pt x="644" y="139" on="0"/>
        <pt x="563" y="42" on="0"/>
        <pt x="445" y="-12" on="0"/>
        <pt x="370" y="-12" on="1"/>
        <pt x="295" y="-12" on="0"/>
        <pt x="177" y="42" on="0"/>
        <pt x="96" y="139" on="0"/>
        <pt x="53" y="272" on="0"/>
      </contour>
      <contour>
        <pt x="160" y="350" on="1"/>
        <pt x="160" y="286" on="0"/>
        <pt x="187" y="173" on="0"/>
        <pt x="241" y="89" on="0"/>
        <pt x="323" y="40" on="0"/>
        <pt x="379" y="40" on="1"/>
        <pt x="430" y="40" on="0"/>
        <pt x="506" y="89" on="0"/>
        <pt x="555" y="173" on="0"/>
        <pt x="580" y="286" on="0"/>
        <pt x="580" y="350" on="1"/>
        <pt x="580" y="414" on="0"/>
        <pt x="554" y="527" on="0"/>
        <pt x="500" y="611" on="0"/>
        <pt x="418" y="660" on="0"/>
        <pt x="362" y="660" on="1"/>
        <pt x="307" y="660" on="0"/>
        <pt x="230" y="611" on="0"/>
        <pt x="182" y="527" on="0"/>
        <pt x="160" y="414" on="0"/>
      </contour>
    </TTGlyph>
    <TTGlyph name="R" xMin="29" yMin="0" xMax="627" yMax="708">
      <contour>
        <pt x="207" y="53" on="1"/>
        <pt x="230" y="48" on="0"/>
        <pt x="272" y="37" on="0"/>
        <pt x="292" y="29" on="1"/>
        <pt x="292" y="0" on="1"/>
        <pt x="29" y="0" on="1"/>
        <pt x="29" y="29" on="1"/>
        <pt x="51" y="39" on="0"/>
        <pt x="91" y="49" on="0"/>
        <pt x="111" y="53" on="1"/>
        <pt x="111" y="646" on="1"/>
        <pt x="85" y="651" on="0"/>
        <pt x="45" y="664" on="0"/>
        <pt x="29" y="671" on="1"/>
        <pt x="29" y="700" on="1"/>
        <pt x="117" y="700" on="1"/>
        <pt x="157" y="700" on="0"/>
        <pt x="252" y="708" on="0"/>
        <pt x="297" y="708" on="1"/>
        <pt x="346" y="708" on="0"/>
        <pt x="431" y="686" on="0"/>
        <pt x="493" y="638" on="0"/>
        <pt x="528" y="564" on="0"/>
        <pt x="528" y="512" on="1"/>
        <pt x="528" y="439" on="0"/>
        <pt x="451" y="343" on="0"/>
        <pt x="385" y="322" on="1"/>
        <pt x="428" y="254" on="0"/>
        <pt x="522" y="120" on="0"/>
        <pt x="573" y="54" on="1"/>
        <pt x="627" y="25" on="1"/>
        <pt x="627" y="0" on="1"/>
        <pt x="506" y="0" on="1"/>
        <pt x="468" y="28" on="1"/>
        <pt x="440" y="63" on="0"/>
        <pt x="394" y="130" on="0"/>
        <pt x="354" y="199" on="0"/>
        <pt x="319" y="270" on="0"/>
        <pt x="301" y="310" on="1"/>
        <pt x="207" y="310" on="1"/>
      </contour>
      <contour>
        <pt x="275" y="656" on="1"/>
        <pt x="251" y="656" on="0"/>
        <pt x="220" y="654" on="0"/>
        <pt x="207" y="651" on="1"/>
        <pt x="207" y="352" on="1"/>
        <pt x="279" y="352" on="1"/>
        <pt x="348" y="352" on="0"/>
        <pt x="429" y="440" on="0"/>
        <pt x="429" y="512" on="1"/>
        <pt x="429" y="586" on="0"/>
        <pt x="343" y="656" on="0"/>
      </contour>
    </TTGlyph>
    <TTGlyph name="S" xMin="58" yMin="-12" xMax="484" yMax="712">
      <contour>
        <pt x="150" y="69" on="1"/>
        <pt x="162" y="57" on="0"/>
        <pt x="200" y="40" on="0"/>
        <pt x="238" y="40" on="1"/>
        <pt x="270" y="40" on="0"/>
        <pt x="326" y="57" on="0"/>
        <pt x="367" y="90" on="0"/>
        <pt x="391" y="137" on="0"/>
        <pt x="391" y="167" on="1"/>
        <pt x="391" y="207" on="0"/>
        <pt x="342" y="261" on="0"/>
        <pt x="269" y="303" on="0"/>
        <pt x="183" y="343" on="0"/>
        <pt x="110" y="398" on="0"/>
        <pt x="61" y="475" on="0"/>
        <pt x="61" y="533" on="1"/>
        <pt x="61" y="575" on="0"/>
        <pt x="91" y="641" on="0"/>
        <pt x="146" y="687" on="0"/>
        <pt x="222" y="712" on="0"/>
        <pt x="269" y="712" on="1"/>
        <pt x="330" y="712" on="0"/>
        <pt x="431" y="693" on="0"/>
        <pt x="460" y="679" on="1"/>
        <pt x="460" y="662" on="0"/>
        <pt x="455" y="617" on="0"/>
        <pt x="448" y="569" on="0"/>
        <pt x="440" y="524" on="0"/>
        <pt x="436" y="507" on="1"/>
        <pt x="410" y="507" on="1"/>
        <pt x="370" y="644" on="1"/>
        <pt x="352" y="652" on="0"/>
        <pt x="297" y="660" on="0"/>
        <pt x="266" y="660" on="1"/>
        <pt x="215" y="660" on="0"/>
        <pt x="153" y="603" on="0"/>
        <pt x="153" y="552" on="1"/>
        <pt x="153" y="511" on="0"/>
        <pt x="202" y="455" on="0"/>
        <pt x="276" y="411" on="0"/>
        <pt x="361" y="370" on="0"/>
        <pt x="435" y="316" on="0"/>
        <pt x="484" y="242" on="0"/>
        <pt x="484" y="187" on="1"/>
        <pt x="484" y="142" on="0"/>
        <pt x="451" y="68" on="0"/>
        <pt x="389" y="16" on="0"/>
        <pt x="299" y="-12" on="0"/>
        <pt x="242" y="-12" on="1"/>
        <pt x="179" y="-12" on="0"/>
        <pt x="79" y="18" on="0"/>
        <pt x="58" y="35" on="1"/>
        <pt x="59" y="52" on="0"/>
        <pt x="64" y="100" on="0"/>
        <pt x="71" y="151" on="0"/>
        <pt x="79" y="199" on="0"/>
        <pt x="83" y="216" on="1"/>
        <pt x="109" y="216" on="1"/>
      </contour>
    </TTGlyph>
    <TTGlyph name="T" xMin="19" yMin="0" xMax="600" yMax="700">
      <contour>
        <pt x="450" y="0" on="1"/>
        <pt x="169" y="0" on="1"/>
        <pt x="169" y="29" on="1"/>
        <pt x="191" y="37" on="0"/>
        <pt x="236" y="49" on="0"/>
        <pt x="262" y="53" on="1"/>
        <pt x="262" y="648" on="1"/>
        <pt x="109" y="648" on="1"/>
        <pt x="56" y="505" on="1"/>
        <pt x="31" y="505" on="1"/>
        <pt x="28" y="525" on="0"/>
        <pt x="24" y="576" on="0"/>
        <pt x="21" y="629" on="0"/>
        <pt x="19" y="680" on="0"/>
        <pt x="19" y="700" on="1"/>
        <pt x="600" y="700" on="1"/>
        <pt x="600" y="680" on="0"/>
        <pt x="598" y="630" on="0"/>
        <pt x="595" y="577" on="0"/>
        <pt x="592" y="526" on="0"/>
        <pt x="589" y="505" on="1"/>
        <pt x="563" y="505" on="1"/>
        <pt x="511" y="648" on="1"/>
        <pt x="358" y="648" on="1"/>
        <pt x="358" y="53" on="1"/>
        <pt x="384" y="48" on="0"/>
        <pt x="429" y="38" on="0"/>
        <pt x="450" y="29" on="1"/>
      </contour>
    </TTGlyph>
    <TTGlyph name="Thorn" xMin="29" yMin="0" xMax="557" yMax="700">
      <contour>
        <pt x="207" y="53" on="1"/>
        <pt x="263" y="45" on="0"/>
        <pt x="303" y="28" on="1"/>
        <pt x="303" y="0" on="1"/>
        <pt x="29" y="0" on="1"/>
        <pt x="29" y="28" on="1"/>
        <pt x="49" y="39" on="0"/>
        <pt x="91" y="49" on="0"/>
        <pt x="111" y="53" on="1"/>
        <pt x="111" y="647" on="1"/>
        <pt x="70" y="655" on="0"/>
        <pt x="31" y="672" on="1"/>
        <pt x="31" y="700" on="1"/>
        <pt x="287" y="700" on="1"/>
        <pt x="287" y="672" on="1"/>
        <pt x="269" y="663" on="0"/>
        <pt x="227" y="651" on="0"/>
        <pt x="207" y="647" on="1"/>
        <pt x="207" y="598" on="1"/>
        <pt x="230" y="600" on="0"/>
        <pt x="275" y="602" on="0"/>
        <pt x="297" y="602" on="1"/>
        <pt x="346" y="602" on="0"/>
        <pt x="440" y="581" on="0"/>
        <pt x="513" y="532" on="0"/>
        <pt x="557" y="451" on="0"/>
        <pt x="557" y="391" on="1"/>
        <pt x="557" y="334" on="0"/>
        <pt x="511" y="253" on="0"/>
        <pt x="434" y="200" on="0"/>
        <pt x="336" y="175" on="0"/>
        <pt x="284" y="175" on="1"/>
        <pt x="279" y="175" on="0"/>
        <pt x="258" y="175" on="0"/>
        <pt x="234" y="176" on="0"/>
        <pt x="212" y="178" on="0"/>
        <pt x="207" y="179" on="1"/>
      </contour>
      <contour>
        <pt x="275" y="550" on="1"/>
        <pt x="251" y="550" on="0"/>
        <pt x="221" y="548" on="0"/>
        <pt x="207" y="544" on="1"/>
        <pt x="207" y="231" on="1"/>
        <pt x="212" y="229" on="0"/>
        <pt x="231" y="228" on="0"/>
        <pt x="252" y="227" on="0"/>
        <pt x="272" y="227" on="0"/>
        <pt x="278" y="227" on="1"/>
        <pt x="313" y="227" on="0"/>
        <pt x="375" y="246" on="0"/>
        <pt x="422" y="286" on="0"/>
        <pt x="450" y="348" on="0"/>
        <pt x="450" y="391" on="1"/>
        <pt x="450" y="469" on="0"/>
        <pt x="357" y="550" on="0"/>
      </contour>
    </TTGlyph>
    <TTGlyph name="U" xMin="10" yMin="-9" xMax="662" yMax="700">
      <contour>
        <pt x="10" y="700" on="1"/>
        <pt x="264" y="700" on="1"/>
        <pt x="264" y="671" on="1"/>
        <pt x="245" y="663" on="0"/>
        <pt x="207" y="651" on="0"/>
        <pt x="188" y="646" on="1"/>
        <pt x="188" y="237" on="1"/>
        <pt x="188" y="184" on="0"/>
        <pt x="211" y="113" on="0"/>
        <pt x="255" y="70" on="0"/>
        <pt x="320" y="51" on="0"/>
        <pt x="361" y="51" on="1"/>
        <pt x="440" y="51" on="0"/>
        <pt x="528" y="138" on="0"/>
        <pt x="528" y="238" on="1"/>
        <pt x="528" y="637" on="1"/>
        <pt x="505" y="645" on="0"/>
        <pt x="465" y="662" on="0"/>
        <pt x="449" y="671" on="1"/>
        <pt x="449" y="700" on="1"/>
        <pt x="662" y="700" on="1"/>
        <pt x="662" y="671" on="1"/>
        <pt x="643" y="660" on="0"/>
        <pt x="604" y="642" on="0"/>
        <pt x="584" y="637" on="1"/>
        <pt x="584" y="236" on="1"/>
        <pt x="584" y="172" on="0"/>
        <pt x="550" y="80" on="0"/>
        <pt x="489" y="20" on="0"/>
        <pt x="402" y="-9" on="0"/>
        <pt x="349" y="-9" on="1"/>
        <pt x="224" y="-9" on="0"/>
        <pt x="92" y="104" on="0"/>
        <pt x="92" y="221" on="1"/>
        <pt x="92" y="646" on="1"/>
        <pt x="51" y="652" on="0"/>
        <pt x="10" y="671" on="1"/>
      </contour>
    </TTGlyph>
    <TTGlyph name="Uacute" xMin="10" yMin="-9" xMax="662" yMax="894">
      <component glyphName="U" x="0" y="0" flags="0x204"/>
      <component glyphName="uniF6C9" x="259" y="0" flags="0x4"/>
    </TTGlyph>
    <TTGlyph name="Ucircumflex" xMin="10" yMin="-9" xMax="662" yMax="887">
      <component glyphName="U" x="0" y="0" flags="0x204"/>
      <component glyphName="uniF408" x="158" y="0" flags="0x4"/>
    </TTGlyph>
    <TTGlyph name="Udieresis" xMin="10" yMin="-9" xMax="662" yMax="837">
      <component glyphName="U" x="0" y="0" flags="0x204"/>
      <component glyphName="uniF6CB" x="129" y="0" flags="0x4"/>
    </TTGlyph>
    <TTGlyph name="Ugrave" xMin="10" yMin="-9" xMax="662" yMax="894">
      <component glyphName="U" x="0" y="0" flags="0x204"/>
      <component glyphName="uniF6CE" x="98" y="0" flags="0x4"/>
    </TTGlyph>
    <TTGlyph name="V" xMin="0" yMin="-12" xMax="684" yMax="700">
      <contour>
        <pt x="545" y="646" on="1"/>
        <pt x="521" y="651" on="0"/>
        <pt x="479" y="664" on="0"/>
        <pt x="459" y="671" on="1"/>
        <pt x="459" y="700" on="1"/>
        <pt x="684" y="700" on="1"/>
        <pt x="684" y="671" on="1"/>
        <pt x="655" y="655" on="0"/>
        <pt x="612" y="646" on="1"/>
        <pt x="386" y="0" on="1"/>
        <pt x="331" y="-12" on="1"/>
        <pt x="76" y="646" on="1"/>
        <pt x="56" y="651" on="0"/>
        <pt x="18" y="664" on="0"/>
        <pt x="0" y="671" on="1"/>
        <pt x="0" y="700" on="1"/>
        <pt x="265" y="700" on="1"/>
        <pt x="265" y="671" on="1"/>
        <pt x="248" y="664" on="0"/>
        <pt x="206" y="651" on="0"/>
        <pt x="183" y="646" on="1"/>
        <pt x="354" y="189" on="1"/>
        <pt x="375" y="109" on="1"/>
        <pt x="377" y="109" on="1"/>
        <pt x="397" y="191" on="1"/>
      </contour>
    </TTGlyph>
    <TTGlyph name="W" xMin="0" yMin="-12" xMax="934" yMax="700">
      <contour>
        <pt x="796" y="646" on="1"/>
        <pt x="775" y="649" on="0"/>
        <pt x="733" y="662" on="0"/>
        <pt x="710" y="671" on="1"/>
        <pt x="710" y="700" on="1"/>
        <pt x="934" y="700" on="1"/>
        <pt x="934" y="671" on="1"/>
        <pt x="900" y="656" on="0"/>
        <pt x="862" y="646" on="1"/>
        <pt x="695" y="0" on="1"/>
        <pt x="633" y="-12" on="1"/>
        <pt x="472" y="532" on="1"/>
        <pt x="314" y="0" on="1"/>
        <pt x="253" y="-12" on="1"/>
        <pt x="76" y="646" on="1"/>
        <pt x="56" y="651" on="0"/>
        <pt x="18" y="663" on="0"/>
        <pt x="0" y="671" on="1"/>
        <pt x="0" y="700" on="1"/>
        <pt x="260" y="700" on="1"/>
        <pt x="260" y="671" on="1"/>
        <pt x="241" y="664" on="0"/>
        <pt x="201" y="651" on="0"/>
        <pt x="178" y="646" on="1"/>
        <pt x="277" y="243" on="1"/>
        <pt x="299" y="113" on="1"/>
        <pt x="301" y="113" on="1"/>
        <pt x="336" y="245" on="1"/>
        <pt x="471" y="700" on="1"/>
        <pt x="505" y="700" on="1"/>
        <pt x="650" y="245" on="1"/>
        <pt x="679" y="115" on="1"/>
        <pt x="681" y="115" on="1"/>
        <pt x="704" y="247" on="1"/>
      </contour>
    </TTGlyph>
    <TTGlyph name="X" xMin="10" yMin="0" xMax="661" yMax="700">
      <contour>
        <pt x="395" y="700" on="1"/>
        <pt x="625" y="700" on="1"/>
        <pt x="625" y="671" on="1"/>
        <pt x="608" y="664" on="0"/>
        <pt x="570" y="651" on="0"/>
        <pt x="550" y="646" on="1"/>
        <pt x="374" y="375" on="1"/>
        <pt x="579" y="53" on="1"/>
        <pt x="627" y="45" on="0"/>
        <pt x="661" y="29" on="1"/>
        <pt x="661" y="0" on="1"/>
        <pt x="395" y="0" on="1"/>
        <pt x="395" y="29" on="1"/>
        <pt x="431" y="47" on="0"/>
        <pt x="471" y="53" on="1"/>
        <pt x="313" y="304" on="1"/>
        <pt x="161" y="52" on="1"/>
        <pt x="182" y="49" on="0"/>
        <pt x="222" y="40" on="0"/>
        <pt x="241" y="29" on="1"/>
        <pt x="241" y="0" on="1"/>
        <pt x="10" y="0" on="1"/>
        <pt x="10" y="29" on="1"/>
        <pt x="29" y="39" on="0"/>
        <pt x="66" y="49" on="0"/>
        <pt x="84" y="53" on="1"/>
        <pt x="280" y="352" on="1"/>
        <pt x="92" y="646" on="1"/>
        <pt x="72" y="652" on="0"/>
        <pt x="33" y="664" on="0"/>
        <pt x="13" y="671" on="1"/>
        <pt x="13" y="700" on="1"/>
        <pt x="278" y="700" on="1"/>
        <pt x="278" y="671" on="1"/>
        <pt x="263" y="665" on="0"/>
        <pt x="226" y="653" on="0"/>
        <pt x="202" y="646" on="1"/>
        <pt x="342" y="420" on="1"/>
        <pt x="478" y="646" on="1"/>
        <pt x="437" y="655" on="0"/>
        <pt x="395" y="671" on="1"/>
      </contour>
    </TTGlyph>
    <TTGlyph name="Y" xMin="0" yMin="0" xMax="644" yMax="700">
      <contour>
        <pt x="424" y="700" on="1"/>
        <pt x="644" y="700" on="1"/>
        <pt x="644" y="671" on="1"/>
        <pt x="606" y="652" on="0"/>
        <pt x="568" y="646" on="1"/>
        <pt x="379" y="298" on="1"/>
        <pt x="379" y="53" on="1"/>
        <pt x="418" y="48" on="0"/>
        <pt x="455" y="29" on="1"/>
        <pt x="455" y="0" on="1"/>
        <pt x="201" y="0" on="1"/>
        <pt x="201" y="29" on="1"/>
        <pt x="237" y="47" on="0"/>
        <pt x="283" y="53" on="1"/>
        <pt x="283" y="297" on="1"/>
        <pt x="81" y="646" on="1"/>
        <pt x="58" y="650" on="0"/>
        <pt x="19" y="663" on="0"/>
        <pt x="0" y="671" on="1"/>
        <pt x="0" y="700" on="1"/>
        <pt x="265" y="700" on="1"/>
        <pt x="265" y="671" on="1"/>
        <pt x="250" y="665" on="0"/>
        <pt x="212" y="652" on="0"/>
        <pt x="188" y="646" on="1"/>
        <pt x="352" y="352" on="1"/>
        <pt x="506" y="646" on="1"/>
        <pt x="483" y="651" on="0"/>
        <pt x="442" y="664" on="0"/>
        <pt x="424" y="671" on="1"/>
      </contour>
    </TTGlyph>
    <TTGlyph name="Yacute" xMin="0" yMin="0" xMax="644" yMax="894">
      <component glyphName="Y" x="0" y="0" flags="0x204"/>
      <component glyphName="uniF6C9" x="259" y="0" flags="0x4"/>
    </TTGlyph>
    <TTGlyph name="Z" xMin="39" yMin="0" xMax="571" yMax="700">
      <contour>
        <pt x="533" y="192" on="1"/>
        <pt x="559" y="192" on="1"/>
        <pt x="562" y="172" on="0"/>
        <pt x="567" y="122" on="0"/>
        <pt x="570" y="70" on="0"/>
        <pt x="571" y="20" on="0"/>
        <pt x="570" y="0" on="1"/>
        <pt x="39" y="0" on="1"/>
        <pt x="39" y="51" on="1"/>
        <pt x="455" y="648" on="1"/>
        <pt x="147" y="648" on="1"/>
        <pt x="86" y="508" on="1"/>
        <pt x="61" y="508" on="1"/>
        <pt x="58" y="529" on="0"/>
        <pt x="53" y="579" on="0"/>
        <pt x="50" y="631" on="0"/>
        <pt x="49" y="680" on="0"/>
        <pt x="49" y="700" on="1"/>
        <pt x="560" y="700" on="1"/>
        <pt x="560" y="648" on="1"/>
        <pt x="146" y="52" on="1"/>
        <pt x="472" y="52" on="1"/>
      </contour>
    </TTGlyph>
    <TTGlyph name="a" xMin="39" yMin="-12" xMax="482" yMax="512">
      <contour>
        <pt x="410" y="131" on="1"/>
        <pt x="410" y="109" on="0"/>
        <pt x="412" y="77" on="0"/>
        <pt x="413" y="59" on="1"/>
        <pt x="482" y="49" on="1"/>
        <pt x="482" y="28" on="1"/>
        <pt x="457" y="15" on="0"/>
        <pt x="396" y="-5" on="0"/>
        <pt x="368" y="-10" on="1"/>
        <pt x="343" y="-10" on="1"/>
        <pt x="333" y="13" on="0"/>
        <pt x="329" y="68" on="0"/>
        <pt x="328" y="101" on="1"/>
        <pt x="323" y="101" on="1"/>
        <pt x="319" y="81" on="0"/>
        <pt x="296" y="40" on="0"/>
        <pt x="259" y="8" on="0"/>
        <pt x="209" y="-12" on="0"/>
        <pt x="177" y="-12" on="1"/>
        <pt x="116" y="-12" on="0"/>
        <pt x="39" y="62" on="0"/>
        <pt x="39" y="122" on="1"/>
        <pt x="39" y="168" on="0"/>
        <pt x="76" y="227" on="0"/>
        <pt x="148" y="261" on="0"/>
        <pt x="254" y="276" on="0"/>
        <pt x="324" y="280" on="1"/>
        <pt x="328" y="323" on="0"/>
        <pt x="325" y="392" on="0"/>
        <pt x="306" y="441" on="0"/>
        <pt x="269" y="468" on="0"/>
        <pt x="239" y="468" on="1"/>
        <pt x="225" y="468" on="0"/>
        <pt x="190" y="465" on="0"/>
        <pt x="173" y="458" on="1"/>
        <pt x="126" y="338" on="1"/>
        <pt x="100" y="338" on="1"/>
        <pt x="90" y="368" on="0"/>
        <pt x="75" y="432" on="0"/>
        <pt x="73" y="463" on="1"/>
        <pt x="111" y="486" on="0"/>
        <pt x="204" y="512" on="0"/>
        <pt x="261" y="512" on="1"/>
        <pt x="312" y="512" on="0"/>
        <pt x="373" y="483" on="0"/>
        <pt x="405" y="437" on="0"/>
        <pt x="415" y="381" on="0"/>
        <pt x="415" y="353" on="1"/>
        <pt x="415" y="293" on="0"/>
        <pt x="410" y="182" on="0"/>
      </contour>
      <contour>
        <pt x="217" y="50" on="1"/>
        <pt x="242" y="50" on="0"/>
        <pt x="280" y="70" on="0"/>
        <pt x="306" y="98" on="0"/>
        <pt x="322" y="127" on="0"/>
        <pt x="325" y="137" on="1"/>
        <pt x="325" y="242" on="1"/>
        <pt x="267" y="242" on="0"/>
        <pt x="193" y="230" on="0"/>
        <pt x="151" y="204" on="0"/>
        <pt x="135" y="165" on="0"/>
        <pt x="135" y="140" on="1"/>
        <pt x="135" y="97" on="0"/>
        <pt x="179" y="50" on="0"/>
      </contour>
    </TTGlyph>
    <TTGlyph name="aacute" xMin="39" yMin="-12" xMax="482" yMax="768">
      <component glyphName="a" x="0" y="0" flags="0x204"/>
      <component glyphName="acute" x="128" y="0" flags="0x4"/>
    </TTGlyph>
    <TTGlyph name="acircumflex" xMin="39" yMin="-12" xMax="482" yMax="796">
      <component glyphName="a" x="0" y="0" flags="0x204"/>
      <component glyphName="circumflex" x="68" y="0" flags="0x4"/>
    </TTGlyph>
    <TTGlyph name="acute" xMin="60" yMin="575" xMax="269" yMax="768">
      <contour>
        <pt x="177" y="767" on="1"/>
        <pt x="185" y="768" on="0"/>
        <pt x="211" y="765" on="0"/>
        <pt x="239" y="759" on="0"/>
        <pt x="263" y="750" on="0"/>
        <pt x="269" y="745" on="1"/>
        <pt x="269" y="726" on="1"/>
        <pt x="82" y="575" on="1"/>
        <pt x="60" y="593" on="1"/>
      </contour>
    </TTGlyph>
    <TTGlyph name="adieresis" xMin="39" yMin="-12" xMax="482" yMax="716">
      <component glyphName="a" x="0" y="0" flags="0x204"/>
      <component glyphName="dieresis" x="17" y="0" flags="0x4"/>
    </TTGlyph>
    <TTGlyph name="ae" xMin="39" yMin="-12" xMax="731" yMax="512">
      <component glyphName="uni04D5" x="0" y="0" flags="0x204"/>
    </TTGlyph>
    <TTGlyph name="agrave" xMin="39" yMin="-12" xMax="482" yMax="768">
      <component glyphName="a" x="0" y="0" flags="0x204"/>
      <component glyphName="grave" x="48" y="0" flags="0x4"/>
    </TTGlyph>
    <TTGlyph name="ampersand" xMin="118" yMin="-12" xMax="839" yMax="712">
      <contour>
        <pt x="540" y="123" on="1"/>
        <pt x="510" y="150" on="0"/>
        <pt x="439" y="223" on="0"/>
        <pt x="373" y="299" on="0"/>
        <pt x="317" y="369" on="0"/>
        <pt x="301" y="392" on="1"/>
        <pt x="258" y="350" on="0"/>
        <pt x="220" y="271" on="0"/>
        <pt x="220" y="218" on="1"/>
        <pt x="220" y="180" on="0"/>
        <pt x="245" y="115" on="0"/>
        <pt x="289" y="67" on="0"/>
        <pt x="351" y="40" on="0"/>
        <pt x="387" y="40" on="1"/>
        <pt x="432" y="40" on="0"/>
        <pt x="510" y="81" on="0"/>
      </contour>
      <contour>
        <pt x="282" y="583" on="1"/>
        <pt x="282" y="565" on="0"/>
        <pt x="296" y="524" on="0"/>
        <pt x="319" y="484" on="0"/>
        <pt x="346" y="446" on="0"/>
        <pt x="359" y="431" on="1"/>
        <pt x="395" y="461" on="0"/>
        <pt x="440" y="540" on="0"/>
        <pt x="435" y="594" on="1"/>
        <pt x="433" y="626" on="0"/>
        <pt x="397" y="670" on="0"/>
        <pt x="358" y="670" on="1"/>
        <pt x="336" y="670" on="0"/>
        <pt x="307" y="655" on="0"/>
        <pt x="289" y="630" on="0"/>
        <pt x="282" y="599" on="0"/>
      </contour>
      <contour>
        <pt x="697" y="0" on="1"/>
        <pt x="676" y="14" on="0"/>
        <pt x="612" y="55" on="0"/>
        <pt x="574" y="92" on="1"/>
        <pt x="560" y="73" on="0"/>
        <pt x="518" y="36" on="0"/>
        <pt x="461" y="6" on="0"/>
        <pt x="391" y="-12" on="0"/>
        <pt x="350" y="-12" on="1"/>
        <pt x="297" y="-12" on="0"/>
        <pt x="211" y="20" on="0"/>
        <pt x="151" y="74" on="0"/>
        <pt x="118" y="144" on="0"/>
        <pt x="118" y="182" on="1"/>
        <pt x="118" y="231" on="0"/>
        <pt x="154" y="310" on="0"/>
        <pt x="204" y="369" on="0"/>
        <pt x="258" y="410" on="0"/>
        <pt x="276" y="423" on="1"/>
        <pt x="247" y="455" on="0"/>
        <pt x="207" y="541" on="0"/>
        <pt x="207" y="578" on="1"/>
        <pt x="207" y="603" on="0"/>
        <pt x="227" y="652" on="0"/>
        <pt x="266" y="689" on="0"/>
        <pt x="323" y="712" on="0"/>
        <pt x="359" y="712" on="1"/>
        <pt x="425" y="712" on="0"/>
        <pt x="506" y="655" on="0"/>
        <pt x="506" y="601" on="1"/>
        <pt x="506" y="568" on="0"/>
        <pt x="483" y="511" on="0"/>
        <pt x="447" y="463" on="0"/>
        <pt x="402" y="423" on="0"/>
        <pt x="380" y="406" on="1"/>
        <pt x="421" y="355" on="0"/>
        <pt x="529" y="247" on="0"/>
        <pt x="589" y="193" on="1"/>
        <pt x="597" y="204" on="0"/>
        <pt x="621" y="256" on="0"/>
        <pt x="642" y="326" on="0"/>
        <pt x="655" y="409" on="0"/>
        <pt x="652" y="450" on="1"/>
        <pt x="622" y="456" on="0"/>
        <pt x="593" y="474" on="1"/>
        <pt x="593" y="500" on="1"/>
        <pt x="796" y="500" on="1"/>
        <pt x="796" y="474" on="1"/>
        <pt x="769" y="457" on="0"/>
        <pt x="730" y="450" on="1"/>
        <pt x="721" y="391" on="0"/>
        <pt x="693" y="295" on="0"/>
        <pt x="663" y="222" on="0"/>
        <pt x="636" y="171" on="0"/>
        <pt x="628" y="159" on="1"/>
        <pt x="666" y="128" on="0"/>
        <pt x="739" y="75" on="0"/>
        <pt x="784" y="49" on="1"/>
        <pt x="839" y="25" on="1"/>
        <pt x="839" y="0" on="1"/>
      </contour>
    </TTGlyph>
    <TTGlyph name="aring" xMin="39" yMin="-12" xMax="482" yMax="780">
      <component glyphName="a" x="0" y="0" flags="0x204"/>
      <component glyphName="ring" x="83" y="0" flags="0x4"/>
    </TTGlyph>
    <TTGlyph name="asciicircum" xMin="47" yMin="434" xMax="435" yMax="711">
      <contour>
        <pt x="233" y="711" on="1"/>
        <pt x="265" y="711" on="1"/>
        <pt x="435" y="434" on="1"/>
        <pt x="347" y="434" on="1"/>
        <pt x="259" y="585" on="1"/>
        <pt x="235" y="652" on="1"/>
        <pt x="203" y="584" on="1"/>
        <pt x="103" y="434" on="1"/>
        <pt x="47" y="434" on="1"/>
      </contour>
    </TTGlyph>
    <TTGlyph name="asciitilde" xMin="58" yMin="285" xMax="471" yMax="417">
      <contour>
        <pt x="58" y="322" on="1"/>
        <pt x="94" y="376" on="0"/>
        <pt x="160" y="417" on="0"/>
        <pt x="190" y="417" on="1"/>
        <pt x="215" y="417" on="0"/>
        <pt x="263" y="396" on="0"/>
        <pt x="309" y="370" on="0"/>
        <pt x="356" y="349" on="0"/>
        <pt x="381" y="349" on="1"/>
        <pt x="399" y="349" on="0"/>
        <pt x="438" y="364" on="0"/>
        <pt x="458" y="383" on="1"/>
        <pt x="471" y="362" on="1"/>
        <pt x="442" y="320" on="0"/>
        <pt x="385" y="285" on="0"/>
        <pt x="358" y="285" on="1"/>
        <pt x="332" y="285" on="0"/>
        <pt x="283" y="306" on="0"/>
        <pt x="235" y="332" on="0"/>
        <pt x="187" y="353" on="0"/>
        <pt x="163" y="353" on="1"/>
        <pt x="141" y="353" on="0"/>
        <pt x="96" y="329" on="0"/>
        <pt x="73" y="298" on="1"/>
      </contour>
    </TTGlyph>
    <TTGlyph name="asterisk" xMin="58" yMin="377" xMax="406" yMax="750">
      <contour>
        <pt x="62" y="616" on="1"/>
        <pt x="59" y="623" on="0"/>
        <pt x="63" y="644" on="0"/>
        <pt x="75" y="665" on="0"/>
        <pt x="92" y="681" on="0"/>
        <pt x="101" y="683" on="1"/>
        <pt x="201" y="596" on="1"/>
        <pt x="201" y="588" on="0"/>
        <pt x="195" y="574" on="0"/>
        <pt x="187" y="570" on="1"/>
      </contour>
      <contour>
        <pt x="100" y="444" on="1"/>
        <pt x="92" y="445" on="0"/>
        <pt x="76" y="460" on="0"/>
        <pt x="64" y="481" on="0"/>
        <pt x="58" y="503" on="0"/>
        <pt x="61" y="511" on="1"/>
        <pt x="186" y="554" on="1"/>
        <pt x="201" y="546" on="0"/>
        <pt x="201" y="530" on="1"/>
      </contour>
      <contour>
        <pt x="271" y="389" on="1"/>
        <pt x="266" y="383" on="0"/>
        <pt x="245" y="377" on="0"/>
        <pt x="233" y="377" on="1"/>
        <pt x="221" y="377" on="0"/>
        <pt x="200" y="383" on="0"/>
        <pt x="195" y="388" on="1"/>
        <pt x="218" y="518" on="1"/>
        <pt x="234" y="526" on="0"/>
        <pt x="250" y="518" on="1"/>
      </contour>
      <contour>
        <pt x="402" y="511" on="1"/>
        <pt x="406" y="504" on="0"/>
        <pt x="401" y="482" on="0"/>
        <pt x="389" y="461" on="0"/>
        <pt x="373" y="445" on="0"/>
        <pt x="364" y="444" on="1"/>
        <pt x="266" y="528" on="1"/>
        <pt x="266" y="537" on="0"/>
        <pt x="273" y="548" on="0"/>
        <pt x="279" y="553" on="1"/>
      </contour>
      <contour>
        <pt x="366" y="683" on="1"/>
        <pt x="374" y="682" on="0"/>
        <pt x="390" y="667" on="0"/>
        <pt x="401" y="646" on="0"/>
        <pt x="406" y="624" on="0"/>
        <pt x="403" y="615" on="1"/>
        <pt x="279" y="568" on="1"/>
        <pt x="265" y="578" on="0"/>
        <pt x="265" y="594" on="1"/>
      </contour>
      <contour>
        <pt x="194" y="737" on="1"/>
        <pt x="198" y="743" on="0"/>
        <pt x="219" y="750" on="0"/>
        <pt x="231" y="750" on="1"/>
        <pt x="243" y="750" on="0"/>
        <pt x="265" y="743" on="0"/>
        <pt x="270" y="737" on="1"/>
        <pt x="248" y="607" on="1"/>
        <pt x="233" y="597" on="0"/>
        <pt x="217" y="607" on="1"/>
      </contour>
    </TTGlyph>
    <TTGlyph name="at" xMin="94" yMin="-180" xMax="978" yMax="712">
      <contour>
        <pt x="669" y="474" on="1"/>
        <pt x="706" y="491" on="0"/>
        <pt x="744" y="490" on="1"/>
        <pt x="693" y="204" on="1"/>
        <pt x="687" y="171" on="0"/>
        <pt x="682" y="117" on="0"/>
        <pt x="687" y="78" on="0"/>
        <pt x="704" y="57" on="0"/>
        <pt x="721" y="57" on="1"/>
        <pt x="754" y="57" on="0"/>
        <pt x="824" y="94" on="0"/>
        <pt x="883" y="164" on="0"/>
        <pt x="921" y="264" on="0"/>
        <pt x="921" y="326" on="1"/>
        <pt x="921" y="402" on="0"/>
        <pt x="863" y="526" on="0"/>
        <pt x="762" y="613" on="0"/>
        <pt x="627" y="660" on="0"/>
        <pt x="550" y="660" on="1"/>
        <pt x="458" y="660" on="0"/>
        <pt x="311" y="595" on="0"/>
        <pt x="207" y="482" on="0"/>
        <pt x="151" y="329" on="0"/>
        <pt x="151" y="242" on="1"/>
        <pt x="151" y="153" on="0"/>
        <pt x="209" y="16" on="0"/>
        <pt x="314" y="-79" on="0"/>
        <pt x="459" y="-128" on="0"/>
        <pt x="546" y="-128" on="1"/>
        <pt x="575" y="-128" on="0"/>
        <pt x="649" y="-114" on="0"/>
        <pt x="679" y="-100" on="1"/>
        <pt x="695" y="-144" on="1"/>
        <pt x="660" y="-164" on="0"/>
        <pt x="576" y="-180" on="0"/>
        <pt x="525" y="-180" on="1"/>
        <pt x="439" y="-180" on="0"/>
        <pt x="283" y="-128" on="0"/>
        <pt x="164" y="-24" on="0"/>
        <pt x="94" y="132" on="0"/>
        <pt x="94" y="236" on="1"/>
        <pt x="94" y="345" on="0"/>
        <pt x="166" y="521" on="0"/>
        <pt x="291" y="645" on="0"/>
        <pt x="459" y="712" on="0"/>
        <pt x="555" y="712" on="1"/>
        <pt x="645" y="712" on="0"/>
        <pt x="800" y="659" on="0"/>
        <pt x="914" y="560" on="0"/>
        <pt x="978" y="417" on="0"/>
        <pt x="978" y="326" on="1"/>
        <pt x="978" y="261" on="0"/>
        <pt x="933" y="145" on="0"/>
        <pt x="856" y="57" on="0"/>
        <pt x="756" y="5" on="0"/>
        <pt x="701" y="5" on="1"/>
        <pt x="671" y="5" on="0"/>
        <pt x="629" y="24" on="0"/>
        <pt x="607" y="67" on="0"/>
        <pt x="606" y="135" on="0"/>
        <pt x="617" y="183" on="1"/>
        <pt x="613" y="183" on="1"/>
        <pt x="602" y="151" on="0"/>
        <pt x="563" y="88" on="0"/>
        <pt x="513" y="37" on="0"/>
        <pt x="456" y="5" on="0"/>
        <pt x="427" y="5" on="1"/>
        <pt x="367" y="5" on="0"/>
        <pt x="302" y="88" on="0"/>
        <pt x="302" y="157" on="1"/>
        <pt x="302" y="221" on="0"/>
        <pt x="345" y="343" on="0"/>
        <pt x="418" y="439" on="0"/>
        <pt x="514" y="497" on="0"/>
        <pt x="567" y="497" on="1"/>
        <pt x="603" y="497" on="0"/>
        <pt x="645" y="485" on="0"/>
      </contour>
      <contour>
        <pt x="652" y="426" on="1"/>
        <pt x="636" y="436" on="0"/>
        <pt x="603" y="446" on="0"/>
        <pt x="577" y="446" on="1"/>
        <pt x="539" y="446" on="0"/>
        <pt x="471" y="393" on="0"/>
        <pt x="421" y="311" on="0"/>
        <pt x="392" y="214" on="0"/>
        <pt x="392" y="169" on="1"/>
        <pt x="392" y="121" on="0"/>
        <pt x="422" y="67" on="0"/>
        <pt x="464" y="67" on="1"/>
        <pt x="483" y="67" on="0"/>
        <pt x="527" y="104" on="0"/>
        <pt x="570" y="164" on="0"/>
        <pt x="611" y="239" on="0"/>
        <pt x="627" y="277" on="1"/>
      </contour>
    </TTGlyph>
    <TTGlyph name="atilde" xMin="39" yMin="-12" xMax="482" yMax="712">
      <component glyphName="a" x="0" y="0" flags="0x204"/>
      <component glyphName="tilde" x="29" y="0" flags="0x4"/>
    </TTGlyph>
    <TTGlyph name="b" xMin="1" yMin="-9" xMax="504" yMax="752">
      <contour>
        <pt x="77" y="682" on="1"/>
        <pt x="1" y="690" on="1"/>
        <pt x="1" y="716" on="1"/>
        <pt x="32" y="729" on="0"/>
        <pt x="109" y="745" on="0"/>
        <pt x="142" y="752" on="1"/>
        <pt x="167" y="752" on="1"/>
        <pt x="167" y="401" on="1"/>
        <pt x="169" y="401" on="1"/>
        <pt x="186" y="452" on="0"/>
        <pt x="267" y="512" on="0"/>
        <pt x="316" y="512" on="1"/>
        <pt x="407" y="512" on="0"/>
        <pt x="504" y="388" on="0"/>
        <pt x="504" y="259" on="1"/>
        <pt x="504" y="127" on="0"/>
        <pt x="371" y="-9" on="0"/>
        <pt x="246" y="-9" on="1"/>
        <pt x="221" y="-9" on="0"/>
        <pt x="171" y="-2" on="0"/>
        <pt x="125" y="8" on="0"/>
        <pt x="88" y="22" on="0"/>
        <pt x="77" y="29" on="1"/>
      </contour>
      <contour>
        <pt x="289" y="450" on="1"/>
        <pt x="241" y="450" on="0"/>
        <pt x="181" y="385" on="0"/>
        <pt x="167" y="335" on="1"/>
        <pt x="167" y="56" on="1"/>
        <pt x="185" y="46" on="0"/>
        <pt x="237" y="35" on="0"/>
        <pt x="266" y="35" on="1"/>
        <pt x="332" y="35" on="0"/>
        <pt x="408" y="150" on="0"/>
        <pt x="408" y="259" on="1"/>
        <pt x="408" y="298" on="0"/>
        <pt x="395" y="368" on="0"/>
        <pt x="366" y="420" on="0"/>
        <pt x="321" y="450" on="0"/>
      </contour>
    </TTGlyph>
    <TTGlyph name="backslash" xMin="-47" yMin="-130" xMax="409" yMax="712">
      <contour>
        <pt x="409" y="-107" on="1"/>
        <pt x="368" y="-130" on="1"/>
        <pt x="-47" y="690" on="1"/>
        <pt x="-5" y="712" on="1"/>
      </contour>
    </TTGlyph>
    <TTGlyph name="bar" xMin="93" yMin="-130" xMax="145" yMax="700">
      <contour>
        <pt x="93" y="700" on="1"/>
        <pt x="145" y="700" on="1"/>
        <pt x="145" y="-130" on="1"/>
        <pt x="93" y="-130" on="1"/>
      </contour>
    </TTGlyph>
    <TTGlyph name="braceleft" xMin="55" yMin="-230" xMax="321" yMax="700">
      <contour>
        <pt x="135" y="111" on="1"/>
        <pt x="135" y="162" on="0"/>
        <pt x="93" y="220" on="0"/>
        <pt x="55" y="220" on="1"/>
        <pt x="55" y="250" on="1"/>
        <pt x="93" y="250" on="0"/>
        <pt x="135" y="311" on="0"/>
        <pt x="135" y="355" on="1"/>
        <pt x="135" y="594" on="1"/>
        <pt x="135" y="642" on="0"/>
        <pt x="183" y="700" on="0"/>
        <pt x="231" y="700" on="1"/>
        <pt x="321" y="700" on="1"/>
        <pt x="321" y="658" on="1"/>
        <pt x="273" y="658" on="1"/>
        <pt x="246" y="658" on="0"/>
        <pt x="221" y="630" on="0"/>
        <pt x="221" y="598" on="1"/>
        <pt x="221" y="365" on="1"/>
        <pt x="221" y="332" on="0"/>
        <pt x="200" y="286" on="0"/>
        <pt x="167" y="257" on="0"/>
        <pt x="129" y="242" on="0"/>
        <pt x="111" y="240" on="1"/>
        <pt x="111" y="234" on="1"/>
        <pt x="128" y="232" on="0"/>
        <pt x="167" y="216" on="0"/>
        <pt x="200" y="184" on="0"/>
        <pt x="221" y="137" on="0"/>
        <pt x="221" y="105" on="1"/>
        <pt x="221" y="-129" on="1"/>
        <pt x="221" y="-160" on="0"/>
        <pt x="245" y="-189" on="0"/>
        <pt x="274" y="-189" on="1"/>
        <pt x="321" y="-189" on="1"/>
        <pt x="321" y="-230" on="1"/>
        <pt x="231" y="-230" on="1"/>
        <pt x="186" y="-230" on="0"/>
        <pt x="135" y="-177" on="0"/>
        <pt x="135" y="-125" on="1"/>
      </contour>
    </TTGlyph>
    <TTGlyph name="braceright" xMin="52" yMin="-230" xMax="318" yMax="700">
      <contour>
        <pt x="238" y="360" on="1"/>
        <pt x="238" y="309" on="0"/>
        <pt x="280" y="251" on="0"/>
        <pt x="318" y="251" on="1"/>
        <pt x="318" y="221" on="1"/>
        <pt x="280" y="221" on="0"/>
        <pt x="238" y="160" on="0"/>
        <pt x="238" y="116" on="1"/>
        <pt x="238" y="-124" on="1"/>
        <pt x="238" y="-172" on="0"/>
        <pt x="190" y="-230" on="0"/>
        <pt x="142" y="-230" on="1"/>
        <pt x="52" y="-230" on="1"/>
        <pt x="52" y="-189" on="1"/>
        <pt x="101" y="-189" on="1"/>
        <pt x="128" y="-189" on="0"/>
        <pt x="153" y="-161" on="0"/>
        <pt x="153" y="-129" on="1"/>
        <pt x="153" y="106" on="1"/>
        <pt x="153" y="139" on="0"/>
        <pt x="171" y="185" on="0"/>
        <pt x="200" y="214" on="0"/>
        <pt x="235" y="229" on="0"/>
        <pt x="253" y="231" on="1"/>
        <pt x="253" y="237" on="1"/>
        <pt x="236" y="239" on="0"/>
        <pt x="200" y="255" on="0"/>
        <pt x="171" y="287" on="0"/>
        <pt x="153" y="334" on="0"/>
        <pt x="153" y="366" on="1"/>
        <pt x="153" y="598" on="1"/>
        <pt x="153" y="629" on="0"/>
        <pt x="129" y="658" on="0"/>
        <pt x="100" y="658" on="1"/>
        <pt x="52" y="658" on="1"/>
        <pt x="52" y="700" on="1"/>
        <pt x="143" y="700" on="1"/>
        <pt x="188" y="700" on="0"/>
        <pt x="238" y="647" on="0"/>
        <pt x="238" y="595" on="1"/>
      </contour>
    </TTGlyph>
    <TTGlyph name="bracketleft" xMin="83" yMin="-230" xMax="272" yMax="700">
      <contour>
        <pt x="83" y="700" on="1"/>
        <pt x="272" y="700" on="1"/>
        <pt x="272" y="658" on="1"/>
        <pt x="168" y="658" on="1"/>
        <pt x="168" y="-189" on="1"/>
        <pt x="272" y="-189" on="1"/>
        <pt x="272" y="-230" on="1"/>
        <pt x="83" y="-230" on="1"/>
      </contour>
    </TTGlyph>
    <TTGlyph name="bracketright" xMin="35" yMin="-230" xMax="224" yMax="700">
      <contour>
        <pt x="224" y="-230" on="1"/>
        <pt x="35" y="-230" on="1"/>
        <pt x="35" y="-189" on="1"/>
        <pt x="139" y="-189" on="1"/>
        <pt x="139" y="658" on="1"/>
        <pt x="35" y="658" on="1"/>
        <pt x="35" y="700" on="1"/>
        <pt x="224" y="700" on="1"/>
      </contour>
    </TTGlyph>
    <TTGlyph name="brokenbar" xMin="93" yMin="-130" xMax="145" yMax="700">
      <contour>
        <pt x="93" y="190" on="1"/>
        <pt x="145" y="190" on="1"/>
        <pt x="145" y="-130" on="1"/>
        <pt x="93" y="-130" on="1"/>
      </contour>
      <contour>
        <pt x="145" y="380" on="1"/>
        <pt x="93" y="380" on="1"/>
        <pt x="93" y="700" on="1"/>
        <pt x="145" y="700" on="1"/>
      </contour>
    </TTGlyph>
    <TTGlyph name="bullet" xMin="87" yMin="170" xMax="368" yMax="452">
      <contour>
        <pt x="87" y="311" on="1"/>
        <pt x="87" y="342" on="0"/>
        <pt x="109" y="394" on="0"/>
        <pt x="147" y="431" on="0"/>
        <pt x="199" y="452" on="0"/>
        <pt x="228" y="452" on="1"/>
        <pt x="257" y="452" on="0"/>
        <pt x="308" y="433" on="0"/>
        <pt x="346" y="396" on="0"/>
        <pt x="368" y="344" on="0"/>
        <pt x="368" y="311" on="1"/>
        <pt x="368" y="278" on="0"/>
        <pt x="346" y="226" on="0"/>
        <pt x="308" y="189" on="0"/>
        <pt x="257" y="170" on="0"/>
        <pt x="228" y="170" on="1"/>
        <pt x="199" y="170" on="0"/>
        <pt x="147" y="189" on="0"/>
        <pt x="109" y="226" on="0"/>
        <pt x="87" y="278" on="0"/>
      </contour>
    </TTGlyph>
    <TTGlyph name="c" xMin="41" yMin="-12" xMax="427" yMax="512">
      <contour>
        <pt x="427" y="70" on="1"/>
        <pt x="409" y="35" on="0"/>
        <pt x="328" y="-12" on="0"/>
        <pt x="274" y="-12" on="1"/>
        <pt x="215" y="-12" on="0"/>
        <pt x="128" y="25" on="0"/>
        <pt x="70" y="94" on="0"/>
        <pt x="41" y="191" on="0"/>
        <pt x="41" y="250" on="1"/>
        <pt x="41" y="377" on="0"/>
        <pt x="165" y="512" on="0"/>
        <pt x="272" y="512" on="1"/>
        <pt x="321" y="512" on="0"/>
        <pt x="398" y="495" on="0"/>
        <pt x="425" y="481" on="1"/>
        <pt x="422" y="448" on="0"/>
        <pt x="406" y="366" on="0"/>
        <pt x="394" y="339" on="1"/>
        <pt x="367" y="339" on="1"/>
        <pt x="325" y="458" on="1"/>
        <pt x="318" y="463" on="0"/>
        <pt x="300" y="468" on="0"/>
        <pt x="279" y="468" on="1"/>
        <pt x="211" y="468" on="0"/>
        <pt x="137" y="369" on="0"/>
        <pt x="137" y="251" on="1"/>
        <pt x="137" y="213" on="0"/>
        <pt x="158" y="141" on="0"/>
        <pt x="201" y="84" on="0"/>
        <pt x="266" y="50" on="0"/>
        <pt x="309" y="50" on="1"/>
        <pt x="344" y="50" on="0"/>
        <pt x="396" y="70" on="0"/>
        <pt x="414" y="84" on="1"/>
      </contour>
    </TTGlyph>
    <TTGlyph name="ccedilla" xMin="41" yMin="-252" xMax="427" yMax="512">
      <contour>
        <pt x="427" y="70" on="1"/>
        <pt x="408" y="34" on="0"/>
        <pt x="326" y="-12" on="0"/>
        <pt x="269" y="-12" on="1"/>
        <pt x="248" y="-68" on="1"/>
        <pt x="303" y="-70" on="0"/>
        <pt x="352" y="-107" on="0"/>
        <pt x="354" y="-139" on="1"/>
        <pt x="355" y="-168" on="0"/>
        <pt x="324" y="-211" on="0"/>
        <pt x="276" y="-239" on="0"/>
        <pt x="218" y="-252" on="0"/>
        <pt x="191" y="-251" on="1"/>
        <pt x="191" y="-221" on="1"/>
        <pt x="229" y="-216" on="0"/>
        <pt x="275" y="-186" on="0"/>
        <pt x="274" y="-155" on="1"/>
        <pt x="273" y="-130" on="0"/>
        <pt x="234" y="-108" on="0"/>
        <pt x="192" y="-105" on="1"/>
        <pt x="226" y="-8" on="1"/>
        <pt x="133" y="6" on="0"/>
        <pt x="41" y="144" on="0"/>
        <pt x="41" y="250" on="1"/>
        <pt x="41" y="377" on="0"/>
        <pt x="165" y="512" on="0"/>
        <pt x="272" y="512" on="1"/>
        <pt x="321" y="512" on="0"/>
        <pt x="398" y="495" on="0"/>
        <pt x="425" y="481" on="1"/>
        <pt x="422" y="448" on="0"/>
        <pt x="406" y="366" on="0"/>
        <pt x="394" y="339" on="1"/>
        <pt x="367" y="339" on="1"/>
        <pt x="325" y="458" on="1"/>
        <pt x="318" y="463" on="0"/>
        <pt x="300" y="468" on="0"/>
        <pt x="279" y="468" on="1"/>
        <pt x="211" y="468" on="0"/>
        <pt x="137" y="369" on="0"/>
        <pt x="137" y="251" on="1"/>
        <pt x="137" y="213" on="0"/>
        <pt x="158" y="141" on="0"/>
        <pt x="201" y="84" on="0"/>
        <pt x="266" y="50" on="0"/>
        <pt x="309" y="50" on="1"/>
        <pt x="344" y="50" on="0"/>
        <pt x="396" y="70" on="0"/>
        <pt x="414" y="84" on="1"/>
      </contour>
    </TTGlyph>
    <TTGlyph name="cedilla" xMin="60" yMin="-252" xMax="224" yMax="1">
      <contour>
        <pt x="117" y="-68" on="1"/>
        <pt x="172" y="-70" on="0"/>
        <pt x="222" y="-107" on="0"/>
        <pt x="223" y="-139" on="1"/>
        <pt x="224" y="-168" on="0"/>
        <pt x="193" y="-211" on="0"/>
        <pt x="145" y="-239" on="0"/>
        <pt x="87" y="-252" on="0"/>
        <pt x="60" y="-251" on="1"/>
        <pt x="60" y="-221" on="1"/>
        <pt x="98" y="-216" on="0"/>
        <pt x="144" y="-186" on="0"/>
        <pt x="143" y="-155" on="1"/>
        <pt x="143" y="-130" on="0"/>
        <pt x="103" y="-108" on="0"/>
        <pt x="61" y="-105" on="1"/>
        <pt x="98" y="1" on="1"/>
        <pt x="143" y="1" on="1"/>
      </contour>
    </TTGlyph>
    <TTGlyph name="cent" xMin="62" yMin="-170" xMax="480" yMax="660">
      <contour>
        <pt x="480" y="70" on="1"/>
        <pt x="460" y="34" on="0"/>
        <pt x="380" y="-11" on="0"/>
        <pt x="326" y="-12" on="1"/>
        <pt x="326" y="-170" on="1"/>
        <pt x="273" y="-170" on="1"/>
        <pt x="273" y="-8" on="1"/>
        <pt x="168" y="7" on="0"/>
        <pt x="62" y="144" on="0"/>
        <pt x="62" y="250" on="1"/>
        <pt x="62" y="305" on="0"/>
        <pt x="93" y="394" on="0"/>
        <pt x="149" y="460" on="0"/>
        <pt x="226" y="500" on="0"/>
        <pt x="273" y="508" on="1"/>
        <pt x="273" y="660" on="1"/>
        <pt x="326" y="660" on="1"/>
        <pt x="326" y="512" on="1"/>
        <pt x="374" y="512" on="0"/>
        <pt x="451" y="495" on="0"/>
        <pt x="478" y="481" on="1"/>
        <pt x="475" y="448" on="0"/>
        <pt x="458" y="366" on="0"/>
        <pt x="446" y="339" on="1"/>
        <pt x="421" y="339" on="1"/>
        <pt x="380" y="458" on="1"/>
        <pt x="373" y="463" on="0"/>
        <pt x="355" y="468" on="0"/>
        <pt x="335" y="468" on="1"/>
        <pt x="325" y="468" on="1"/>
        <pt x="325" y="53" on="1"/>
        <pt x="343" y="50" on="0"/>
        <pt x="361" y="50" on="1"/>
        <pt x="396" y="50" on="0"/>
        <pt x="448" y="70" on="0"/>
        <pt x="466" y="84" on="1"/>
      </contour>
      <contour>
        <pt x="158" y="251" on="1"/>
        <pt x="158" y="194" on="0"/>
        <pt x="217" y="92" on="0"/>
        <pt x="274" y="67" on="1"/>
        <pt x="274" y="460" on="1"/>
        <pt x="221" y="444" on="0"/>
        <pt x="158" y="344" on="0"/>
      </contour>
    </TTGlyph>
    <TTGlyph name="circumflex" xMin="60" yMin="590" xMax="309" yMax="796">
      <contour>
        <pt x="89" y="590" on="1"/>
        <pt x="60" y="606" on="1"/>
        <pt x="170" y="792" on="1"/>
        <pt x="175" y="795" on="0"/>
        <pt x="190" y="796" on="0"/>
        <pt x="195" y="792" on="1"/>
        <pt x="309" y="607" on="1"/>
        <pt x="282" y="590" on="1"/>
        <pt x="179" y="697" on="1"/>
      </contour>
    </TTGlyph>
    <TTGlyph name="colon" xMin="119" yMin="-8" xMax="256" yMax="508">
      <component glyphName="period" x="48" y="385" flags="0x4"/>
      <component glyphName="period" x="48" y="0" flags="0x4"/>
    </TTGlyph>
    <TTGlyph name="comma" xMin="51" yMin="-179" xMax="217" yMax="126">
      <contour>
        <pt x="51" y="-149" on="1"/>
        <pt x="70" y="-142" on="0"/>
        <pt x="104" y="-113" on="0"/>
        <pt x="129" y="-77" on="0"/>
        <pt x="142" y="-34" on="0"/>
        <pt x="140" y="-13" on="1"/>
        <pt x="128" y="-2" on="0"/>
        <pt x="88" y="20" on="0"/>
        <pt x="73" y="25" on="1"/>
        <pt x="68" y="44" on="0"/>
        <pt x="77" y="80" on="0"/>
        <pt x="95" y="108" on="0"/>
        <pt x="118" y="125" on="0"/>
        <pt x="129" y="126" on="1"/>
        <pt x="164" y="121" on="0"/>
        <pt x="217" y="69" on="0"/>
        <pt x="217" y="17" on="1"/>
        <pt x="217" y="-11" on="0"/>
        <pt x="197" y="-72" on="0"/>
        <pt x="159" y="-126" on="0"/>
        <pt x="105" y="-169" on="0"/>
        <pt x="71" y="-179" on="1"/>
      </contour>
    </TTGlyph>
    <TTGlyph name="copyright" xMin="51" yMin="-62" xMax="756" yMax="642">
      <contour>
        <pt x="51" y="290" on="1"/>
        <pt x="51" y="373" on="0"/>
        <pt x="110" y="504" on="0"/>
        <pt x="208" y="594" on="0"/>
        <pt x="335" y="642" on="0"/>
        <pt x="404" y="642" on="1"/>
        <pt x="473" y="642" on="0"/>
        <pt x="600" y="594" on="0"/>
        <pt x="697" y="504" on="0"/>
        <pt x="756" y="373" on="0"/>
        <pt x="756" y="290" on="1"/>
        <pt x="756" y="207" on="0"/>
        <pt x="697" y="76" on="0"/>
        <pt x="600" y="-14" on="0"/>
        <pt x="473" y="-62" on="0"/>
        <pt x="404" y="-62" on="1"/>
        <pt x="332" y="-62" on="0"/>
        <pt x="203" y="-14" on="0"/>
        <pt x="107" y="76" on="0"/>
        <pt x="51" y="207" on="0"/>
      </contour>
      <contour>
        <pt x="103" y="290" on="1"/>
        <pt x="103" y="221" on="0"/>
        <pt x="150" y="108" on="0"/>
        <pt x="232" y="29" on="0"/>
        <pt x="342" y="-15" on="0"/>
        <pt x="404" y="-15" on="1"/>
        <pt x="466" y="-15" on="0"/>
        <pt x="576" y="29" on="0"/>
        <pt x="657" y="108" on="0"/>
        <pt x="704" y="221" on="0"/>
        <pt x="704" y="290" on="1"/>
        <pt x="704" y="359" on="0"/>
        <pt x="654" y="472" on="0"/>
        <pt x="571" y="551" on="0"/>
        <pt x="462" y="595" on="0"/>
        <pt x="404" y="595" on="1"/>
        <pt x="338" y="595" on="0"/>
        <pt x="227" y="551" on="0"/>
        <pt x="148" y="471" on="0"/>
        <pt x="103" y="359" on="0"/>
      </contour>
      <contour>
        <pt x="510" y="206" on="1"/>
        <pt x="535" y="206" on="1"/>
        <pt x="539" y="191" on="0"/>
        <pt x="543" y="130" on="0"/>
        <pt x="540" y="106" on="1"/>
        <pt x="531" y="99" on="0"/>
        <pt x="504" y="90" on="0"/>
        <pt x="474" y="84" on="0"/>
        <pt x="442" y="82" on="0"/>
        <pt x="429" y="82" on="1"/>
        <pt x="380" y="82" on="0"/>
        <pt x="299" y="109" on="0"/>
        <pt x="240" y="162" on="0"/>
        <pt x="207" y="240" on="0"/>
        <pt x="207" y="291" on="1"/>
        <pt x="207" y="343" on="0"/>
        <pt x="244" y="421" on="0"/>
        <pt x="303" y="473" on="0"/>
        <pt x="378" y="500" on="0"/>
        <pt x="416" y="500" on="1"/>
        <pt x="455" y="500" on="0"/>
        <pt x="517" y="489" on="0"/>
        <pt x="537" y="479" on="1"/>
        <pt x="538" y="470" on="0"/>
        <pt x="538" y="441" on="0"/>
        <pt x="536" y="409" on="0"/>
        <pt x="532" y="379" on="0"/>
        <pt x="529" y="369" on="1"/>
        <pt x="504" y="369" on="1"/>
        <pt x="474" y="452" on="1"/>
        <pt x="467" y="457" on="0"/>
        <pt x="437" y="458" on="0"/>
        <pt x="423" y="458" on="1"/>
        <pt x="366" y="458" on="0"/>
        <pt x="303" y="369" on="0"/>
        <pt x="303" y="291" on="1"/>
        <pt x="303" y="258" on="0"/>
        <pt x="317" y="197" on="0"/>
        <pt x="348" y="150" on="0"/>
        <pt x="398" y="123" on="0"/>
        <pt x="433" y="123" on="1"/>
        <pt x="453" y="123" on="0"/>
        <pt x="478" y="131" on="0"/>
        <pt x="482" y="135" on="1"/>
      </contour>
    </TTGlyph>
    <TTGlyph name="currency" xMin="36" yMin="115" xMax="497" yMax="577">
      <contour>
        <pt x="36" y="170" on="1"/>
        <pt x="119" y="252" on="1"/>
        <pt x="154" y="263" on="1"/>
        <pt x="140" y="280" on="0"/>
        <pt x="128" y="322" on="0"/>
        <pt x="128" y="346" on="1"/>
        <pt x="128" y="369" on="0"/>
        <pt x="140" y="412" on="0"/>
        <pt x="154" y="429" on="1"/>
        <pt x="119" y="440" on="1"/>
        <pt x="37" y="523" on="1"/>
        <pt x="91" y="577" on="1"/>
        <pt x="173" y="494" on="1"/>
        <pt x="185" y="460" on="1"/>
        <pt x="202" y="473" on="0"/>
        <pt x="243" y="487" on="0"/>
        <pt x="267" y="487" on="1"/>
        <pt x="291" y="486" on="0"/>
        <pt x="333" y="473" on="0"/>
        <pt x="349" y="460" on="1"/>
        <pt x="362" y="494" on="1"/>
        <pt x="444" y="576" on="1"/>
        <pt x="497" y="522" on="1"/>
        <pt x="414" y="440" on="1"/>
        <pt x="382" y="429" on="1"/>
        <pt x="405" y="395" on="0"/>
        <pt x="405" y="346" on="1"/>
        <pt x="406" y="299" on="0"/>
        <pt x="382" y="262" on="1"/>
        <pt x="414" y="252" on="1"/>
        <pt x="496" y="169" on="1"/>
        <pt x="443" y="115" on="1"/>
        <pt x="361" y="197" on="1"/>
        <pt x="349" y="231" on="1"/>
        <pt x="333" y="220" on="0"/>
        <pt x="291" y="207" on="0"/>
        <pt x="267" y="207" on="1"/>
        <pt x="243" y="207" on="0"/>
        <pt x="202" y="220" on="0"/>
        <pt x="183" y="231" on="1"/>
        <pt x="173" y="198" on="1"/>
        <pt x="90" y="116" on="1"/>
      </contour>
      <contour>
        <pt x="267" y="264" on="1"/>
        <pt x="303" y="264" on="0"/>
        <pt x="352" y="310" on="0"/>
        <pt x="352" y="346" on="1"/>
        <pt x="352" y="382" on="0"/>
        <pt x="303" y="429" on="0"/>
        <pt x="267" y="429" on="1"/>
        <pt x="231" y="430" on="0"/>
        <pt x="182" y="382" on="0"/>
        <pt x="182" y="346" on="1"/>
        <pt x="182" y="310" on="0"/>
        <pt x="231" y="264" on="0"/>
      </contour>
    </TTGlyph>
    <TTGlyph name="d" xMin="41" yMin="-12" xMax="532" yMax="752">
      <contour>
        <pt x="373" y="99" on="1"/>
        <pt x="368" y="77" on="0"/>
        <pt x="344" y="37" on="0"/>
        <pt x="309" y="6" on="0"/>
        <pt x="264" y="-12" on="0"/>
        <pt x="238" y="-12" on="1"/>
        <pt x="139" y="-12" on="0"/>
        <pt x="41" y="114" on="0"/>
        <pt x="41" y="247" on="1"/>
        <pt x="41" y="375" on="0"/>
        <pt x="166" y="509" on="0"/>
        <pt x="272" y="509" on="1"/>
        <pt x="309" y="509" on="0"/>
        <pt x="351" y="502" on="0"/>
        <pt x="376" y="493" on="1"/>
        <pt x="376" y="682" on="1"/>
        <pt x="300" y="690" on="1"/>
        <pt x="300" y="716" on="1"/>
        <pt x="329" y="728" on="0"/>
        <pt x="406" y="746" on="0"/>
        <pt x="441" y="752" on="1"/>
        <pt x="466" y="752" on="1"/>
        <pt x="466" y="57" on="1"/>
        <pt x="532" y="49" on="1"/>
        <pt x="532" y="28" on="1"/>
        <pt x="503" y="14" on="0"/>
        <pt x="441" y="-6" on="0"/>
        <pt x="411" y="-10" on="1"/>
        <pt x="386" y="-10" on="1"/>
        <pt x="377" y="99" on="1"/>
      </contour>
      <contour>
        <pt x="258" y="50" on="1"/>
        <pt x="307" y="50" on="0"/>
        <pt x="365" y="112" on="0"/>
        <pt x="376" y="165" on="1"/>
        <pt x="376" y="447" on="1"/>
        <pt x="359" y="457" on="0"/>
        <pt x="313" y="465" on="0"/>
        <pt x="277" y="465" on="1"/>
        <pt x="209" y="465" on="0"/>
        <pt x="137" y="346" on="0"/>
        <pt x="137" y="247" on="1"/>
        <pt x="137" y="206" on="0"/>
        <pt x="151" y="135" on="0"/>
        <pt x="181" y="81" on="0"/>
        <pt x="226" y="50" on="0"/>
      </contour>
    </TTGlyph>
    <TTGlyph name="degree" xMin="83" yMin="430" xMax="366" yMax="712">
      <contour>
        <pt x="83" y="571" on="1"/>
        <pt x="83" y="602" on="0"/>
        <pt x="105" y="654" on="0"/>
        <pt x="144" y="691" on="0"/>
        <pt x="196" y="712" on="0"/>
        <pt x="225" y="712" on="1"/>
        <pt x="254" y="712" on="0"/>
        <pt x="306" y="694" on="0"/>
        <pt x="344" y="659" on="0"/>
        <pt x="366" y="606" on="0"/>
        <pt x="366" y="571" on="1"/>
        <pt x="366" y="538" on="0"/>
        <pt x="344" y="486" on="0"/>
        <pt x="306" y="449" on="0"/>
        <pt x="254" y="430" on="0"/>
        <pt x="225" y="430" on="1"/>
        <pt x="196" y="430" on="0"/>
        <pt x="144" y="449" on="0"/>
        <pt x="105" y="486" on="0"/>
        <pt x="83" y="538" on="0"/>
      </contour>
      <contour>
        <pt x="139" y="571" on="1"/>
        <pt x="139" y="530" on="0"/>
        <pt x="190" y="479" on="0"/>
        <pt x="225" y="479" on="1"/>
        <pt x="263" y="479" on="0"/>
        <pt x="311" y="527" on="0"/>
        <pt x="311" y="571" on="1"/>
        <pt x="311" y="613" on="0"/>
        <pt x="263" y="663" on="0"/>
        <pt x="225" y="663" on="1"/>
        <pt x="187" y="663" on="0"/>
        <pt x="139" y="613" on="0"/>
      </contour>
    </TTGlyph>
    <TTGlyph name="dieresis" xMin="60" yMin="612" xMax="390" yMax="716">
      <contour>
        <pt x="60" y="663" on="1"/>
        <pt x="60" y="687" on="0"/>
        <pt x="90" y="716" on="0"/>
        <pt x="114" y="716" on="1"/>
        <pt x="138" y="716" on="0"/>
        <pt x="168" y="687" on="0"/>
        <pt x="168" y="663" on="1"/>
        <pt x="168" y="640" on="0"/>
        <pt x="138" y="612" on="0"/>
        <pt x="114" y="612" on="1"/>
        <pt x="90" y="612" on="0"/>
        <pt x="60" y="640" on="0"/>
      </contour>
      <contour>
        <pt x="282" y="663" on="1"/>
        <pt x="282" y="687" on="0"/>
        <pt x="312" y="716" on="0"/>
        <pt x="336" y="716" on="1"/>
        <pt x="360" y="716" on="0"/>
        <pt x="390" y="687" on="0"/>
        <pt x="390" y="663" on="1"/>
        <pt x="390" y="640" on="0"/>
        <pt x="360" y="612" on="0"/>
        <pt x="336" y="612" on="1"/>
        <pt x="312" y="612" on="0"/>
        <pt x="282" y="640" on="0"/>
      </contour>
    </TTGlyph>
    <TTGlyph name="divide" xMin="42" yMin="89" xMax="492" yMax="601">
      <component glyphName="minus" x="0" y="2" flags="0x204"/>
      <component glyphName="period" x="127" y="478" flags="0x4"/>
      <component glyphName="period" x="127" y="97" flags="0x4"/>
    </TTGlyph>
    <TTGlyph name="dollar" xMin="52" yMin="-70" xMax="484" yMax="760">
      <contour>
        <pt x="239" y="-12" on="1"/>
        <pt x="209" y="-12" on="0"/>
        <pt x="153" y="-3" on="0"/>
        <pt x="106" y="12" on="0"/>
        <pt x="69" y="30" on="0"/>
        <pt x="59" y="39" on="1"/>
        <pt x="60" y="49" on="0"/>
        <pt x="62" y="82" on="0"/>
        <pt x="66" y="116" on="0"/>
        <pt x="71" y="148" on="0"/>
        <pt x="75" y="157" on="1"/>
        <pt x="100" y="157" on="1"/>
        <pt x="160" y="60" on="1"/>
        <pt x="173" y="52" on="0"/>
        <pt x="215" y="41" on="0"/>
        <pt x="239" y="40" on="1"/>
        <pt x="239" y="325" on="1"/>
        <pt x="235" y="325" on="0"/>
        <pt x="233" y="327" on="1"/>
        <pt x="201" y="342" on="1"/>
        <pt x="172" y="355" on="0"/>
        <pt x="118" y="387" on="0"/>
        <pt x="77" y="432" on="0"/>
        <pt x="52" y="492" on="0"/>
        <pt x="52" y="533" on="1"/>
        <pt x="52" y="569" on="0"/>
        <pt x="80" y="631" on="0"/>
        <pt x="129" y="679" on="0"/>
        <pt x="198" y="708" on="0"/>
        <pt x="239" y="711" on="1"/>
        <pt x="239" y="760" on="1"/>
        <pt x="291" y="760" on="1"/>
        <pt x="291" y="711" on="1"/>
        <pt x="339" y="708" on="0"/>
        <pt x="410" y="688" on="0"/>
        <pt x="436" y="676" on="1"/>
        <pt x="435" y="644" on="0"/>
        <pt x="420" y="602" on="0"/>
        <pt x="412" y="586" on="1"/>
        <pt x="386" y="586" on="1"/>
        <pt x="336" y="654" on="1"/>
        <pt x="325" y="656" on="0"/>
        <pt x="305" y="658" on="0"/>
        <pt x="291" y="659" on="1"/>
        <pt x="291" y="392" on="1"/>
        <pt x="320" y="379" on="1"/>
        <pt x="351" y="364" on="0"/>
        <pt x="410" y="331" on="0"/>
        <pt x="456" y="286" on="0"/>
        <pt x="484" y="222" on="0"/>
        <pt x="484" y="175" on="1"/>
        <pt x="484" y="102" on="0"/>
        <pt x="382" y="2" on="0"/>
        <pt x="291" y="-9" on="1"/>
        <pt x="291" y="-70" on="1"/>
        <pt x="239" y="-70" on="1"/>
      </contour>
      <contour>
        <pt x="394" y="168" on="1"/>
        <pt x="394" y="220" on="0"/>
        <pt x="334" y="281" on="0"/>
        <pt x="291" y="301" on="1"/>
        <pt x="291" y="45" on="1"/>
        <pt x="336" y="57" on="0"/>
        <pt x="394" y="120" on="0"/>
      </contour>
      <contour>
        <pt x="142" y="551" on="1"/>
        <pt x="142" y="524" on="0"/>
        <pt x="157" y="483" on="0"/>
        <pt x="183" y="451" on="0"/>
        <pt x="218" y="426" on="0"/>
        <pt x="239" y="415" on="1"/>
        <pt x="239" y="659" on="1"/>
        <pt x="194" y="654" on="0"/>
        <pt x="142" y="593" on="0"/>
      </contour>
    </TTGlyph>
    <TTGlyph name="dotaccent" xMin="60" yMin="612" xMax="187" yMax="729">
      <contour>
        <pt x="60" y="670" on="1"/>
        <pt x="60" y="697" on="0"/>
        <pt x="95" y="729" on="0"/>
        <pt x="124" y="729" on="1"/>
        <pt x="153" y="729" on="0"/>
        <pt x="187" y="697" on="0"/>
        <pt x="187" y="670" on="1"/>
        <pt x="187" y="643" on="0"/>
        <pt x="153" y="612" on="0"/>
        <pt x="124" y="612" on="1"/>
        <pt x="95" y="612" on="0"/>
        <pt x="60" y="643" on="0"/>
      </contour>
    </TTGlyph>
    <TTGlyph name="dotlessi" xMin="41" yMin="0" xMax="263" yMax="512">
      <contour>
        <pt x="263" y="0" on="1"/>
        <pt x="41" y="0" on="1"/>
        <pt x="41" y="25" on="1"/>
        <pt x="56" y="33" on="0"/>
        <pt x="88" y="44" on="0"/>
        <pt x="107" y="49" on="1"/>
        <pt x="107" y="442" on="1"/>
        <pt x="41" y="450" on="1"/>
        <pt x="41" y="476" on="1"/>
        <pt x="70" y="488" on="0"/>
        <pt x="138" y="506" on="0"/>
        <pt x="172" y="512" on="1"/>
        <pt x="197" y="512" on="1"/>
        <pt x="197" y="49" on="1"/>
        <pt x="217" y="44" on="0"/>
        <pt x="249" y="33" on="0"/>
        <pt x="263" y="25" on="1"/>
      </contour>
    </TTGlyph>
    <TTGlyph name="e" xMin="41" yMin="-12" xMax="456" yMax="512">
      <contour>
        <pt x="446" y="70" on="1"/>
        <pt x="438" y="53" on="0"/>
        <pt x="404" y="23" on="0"/>
        <pt x="360" y="1" on="0"/>
        <pt x="308" y="-12" on="0"/>
        <pt x="281" y="-12" on="1"/>
        <pt x="222" y="-12" on="0"/>
        <pt x="132" y="25" on="0"/>
        <pt x="72" y="94" on="0"/>
        <pt x="41" y="190" on="0"/>
        <pt x="41" y="250" on="1"/>
        <pt x="41" y="378" on="0"/>
        <pt x="159" y="512" on="0"/>
        <pt x="267" y="512" on="1"/>
        <pt x="302" y="512" on="0"/>
        <pt x="370" y="493" on="0"/>
        <pt x="423" y="449" on="0"/>
        <pt x="456" y="376" on="0"/>
        <pt x="456" y="322" on="1"/>
        <pt x="456" y="305" on="0"/>
        <pt x="453" y="270" on="0"/>
        <pt x="449" y="250" on="1"/>
        <pt x="137" y="250" on="1"/>
        <pt x="137" y="208" on="0"/>
        <pt x="158" y="135" on="0"/>
        <pt x="200" y="81" on="0"/>
        <pt x="264" y="50" on="0"/>
        <pt x="307" y="50" on="1"/>
        <pt x="342" y="50" on="0"/>
        <pt x="414" y="70" on="0"/>
        <pt x="432" y="86" on="1"/>
      </contour>
      <contour>
        <pt x="263" y="468" on="1"/>
        <pt x="206" y="468" on="0"/>
        <pt x="146" y="391" on="0"/>
        <pt x="140" y="294" on="1"/>
        <pt x="360" y="294" on="1"/>
        <pt x="361" y="303" on="0"/>
        <pt x="362" y="320" on="0"/>
        <pt x="362" y="328" on="1"/>
        <pt x="362" y="392" on="0"/>
        <pt x="314" y="468" on="0"/>
      </contour>
    </TTGlyph>
    <TTGlyph name="eacute" xMin="41" yMin="-12" xMax="456" yMax="768">
      <component glyphName="e" x="0" y="0" flags="0x204"/>
      <component glyphName="acute" x="145" y="0" flags="0x4"/>
    </TTGlyph>
    <TTGlyph name="ecircumflex" xMin="41" yMin="-12" xMax="456" yMax="796">
      <component glyphName="e" x="0" y="0" flags="0x204"/>
      <component glyphName="circumflex" x="77" y="0" flags="0x4"/>
    </TTGlyph>
    <TTGlyph name="edieresis" xMin="41" yMin="-12" xMax="456" yMax="716">
      <component glyphName="e" x="0" y="0" flags="0x204"/>
      <component glyphName="dieresis" x="33" y="0" flags="0x4"/>
    </TTGlyph>
    <TTGlyph name="egrave" xMin="41" yMin="-12" xMax="456" yMax="768">
      <component glyphName="e" x="0" y="0" flags="0x204"/>
      <component glyphName="grave" x="57" y="0" flags="0x4"/>
    </TTGlyph>
    <TTGlyph name="eight" xMin="49" yMin="-12" xMax="485" yMax="712">
      <contour>
        <pt x="49" y="157" on="1"/>
        <pt x="49" y="191" on="0"/>
        <pt x="73" y="252" on="0"/>
        <pt x="116" y="301" on="0"/>
        <pt x="175" y="339" on="0"/>
        <pt x="210" y="351" on="1"/>
        <pt x="182" y="366" on="0"/>
        <pt x="133" y="402" on="0"/>
        <pt x="97" y="448" on="0"/>
        <pt x="76" y="503" on="0"/>
        <pt x="76" y="537" on="1"/>
        <pt x="76" y="576" on="0"/>
        <pt x="104" y="640" on="0"/>
        <pt x="155" y="686" on="0"/>
        <pt x="228" y="712" on="0"/>
        <pt x="273" y="712" on="1"/>
        <pt x="361" y="712" on="0"/>
        <pt x="459" y="623" on="0"/>
        <pt x="459" y="553" on="1"/>
        <pt x="459" y="495" on="0"/>
        <pt x="383" y="408" on="0"/>
        <pt x="322" y="380" on="1"/>
        <pt x="357" y="362" on="0"/>
        <pt x="417" y="318" on="0"/>
        <pt x="460" y="266" on="0"/>
        <pt x="485" y="205" on="0"/>
        <pt x="485" y="170" on="1"/>
        <pt x="485" y="133" on="0"/>
        <pt x="456" y="67" on="0"/>
        <pt x="399" y="17" on="0"/>
        <pt x="316" y="-12" on="0"/>
        <pt x="262" y="-12" on="1"/>
        <pt x="207" y="-12" on="0"/>
        <pt x="127" y="16" on="0"/>
        <pt x="74" y="63" on="0"/>
        <pt x="49" y="124" on="0"/>
      </contour>
      <contour>
        <pt x="397" y="153" on="1"/>
        <pt x="397" y="187" on="0"/>
        <pt x="370" y="242" on="0"/>
        <pt x="325" y="285" on="0"/>
        <pt x="266" y="321" on="0"/>
        <pt x="235" y="336" on="1"/>
        <pt x="206" y="319" on="0"/>
        <pt x="168" y="277" on="0"/>
        <pt x="145" y="232" on="0"/>
        <pt x="135" y="188" on="0"/>
        <pt x="135" y="169" on="1"/>
        <pt x="135" y="145" on="0"/>
        <pt x="150" y="96" on="0"/>
        <pt x="182" y="58" on="0"/>
        <pt x="233" y="34" on="0"/>
        <pt x="270" y="34" on="1"/>
        <pt x="301" y="34" on="0"/>
        <pt x="349" y="55" on="0"/>
        <pt x="381" y="89" on="0"/>
        <pt x="397" y="132" on="0"/>
      </contour>
      <contour>
        <pt x="162" y="550" on="1"/>
        <pt x="162" y="519" on="0"/>
        <pt x="185" y="473" on="0"/>
        <pt x="223" y="436" on="0"/>
        <pt x="272" y="406" on="0"/>
        <pt x="298" y="393" on="1"/>
        <pt x="340" y="427" on="0"/>
        <pt x="374" y="495" on="0"/>
        <pt x="374" y="536" on="1"/>
        <pt x="374" y="598" on="0"/>
        <pt x="319" y="665" on="0"/>
        <pt x="271" y="665" on="1"/>
        <pt x="244" y="665" on="0"/>
        <pt x="204" y="645" on="0"/>
        <pt x="176" y="613" on="0"/>
        <pt x="162" y="572" on="0"/>
      </contour>
    </TTGlyph>
    <TTGlyph name="ellipsis" xMin="71" yMin="-8" xMax="813" yMax="123">
      <component glyphName="period" x="605" y="0" flags="0x4"/>
      <component glyphName="period" x="302" y="0" flags="0x4"/>
      <component glyphName="period" x="0" y="0" flags="0x4"/>
    </TTGlyph>
    <TTGlyph name="emdash" xMin="72" yMin="250" xMax="814" yMax="313">
      <contour>
        <pt x="72" y="313" on="1"/>
        <pt x="814" y="313" on="1"/>
        <pt x="814" y="250" on="1"/>
        <pt x="72" y="250" on="1"/>
      </contour>
    </TTGlyph>
    <TTGlyph name="endash" xMin="72" yMin="250" xMax="554" yMax="313">
      <contour>
        <pt x="72" y="313" on="1"/>
        <pt x="554" y="313" on="1"/>
        <pt x="554" y="250" on="1"/>
        <pt x="72" y="250" on="1"/>
      </contour>
    </TTGlyph>
    <TTGlyph name="equal" xMin="42" yMin="237" xMax="492" yMax="450">
      <component glyphName="minus" x="0" y="80" flags="0x204"/>
      <component glyphName="minus" x="0" y="-80" flags="0x4"/>
    </TTGlyph>
    <TTGlyph name="eth" xMin="28" yMin="-12" xMax="497" yMax="750">
      <contour>
        <pt x="158" y="604" on="1"/>
        <pt x="272" y="650" on="1"/>
        <pt x="246" y="677" on="0"/>
        <pt x="185" y="720" on="0"/>
        <pt x="151" y="733" on="1"/>
        <pt x="151" y="750" on="1"/>
        <pt x="212" y="750" on="1"/>
        <pt x="243" y="741" on="0"/>
        <pt x="306" y="704" on="0"/>
        <pt x="335" y="676" on="1"/>
        <pt x="445" y="722" on="1"/>
        <pt x="464" y="679" on="1"/>
        <pt x="371" y="641" on="1"/>
        <pt x="425" y="578" on="0"/>
        <pt x="497" y="400" on="0"/>
        <pt x="497" y="289" on="1"/>
        <pt x="497" y="224" on="0"/>
        <pt x="468" y="113" on="0"/>
        <pt x="409" y="33" on="0"/>
        <pt x="321" y="-12" on="0"/>
        <pt x="262" y="-12" on="1"/>
        <pt x="208" y="-12" on="0"/>
        <pt x="121" y="25" on="0"/>
        <pt x="60" y="93" on="0"/>
        <pt x="28" y="186" on="0"/>
        <pt x="28" y="242" on="1"/>
        <pt x="28" y="309" on="0"/>
        <pt x="66" y="411" on="0"/>
        <pt x="127" y="478" on="0"/>
        <pt x="205" y="512" on="0"/>
        <pt x="245" y="512" on="1"/>
        <pt x="298" y="512" on="0"/>
        <pt x="363" y="479" on="0"/>
        <pt x="386" y="455" on="1"/>
        <pt x="374" y="493" on="0"/>
        <pt x="333" y="575" on="0"/>
        <pt x="304" y="613" on="1"/>
        <pt x="178" y="561" on="1"/>
      </contour>
      <contour>
        <pt x="124" y="242" on="1"/>
        <pt x="124" y="201" on="0"/>
        <pt x="143" y="126" on="0"/>
        <pt x="181" y="68" on="0"/>
        <pt x="234" y="34" on="0"/>
        <pt x="269" y="34" on="1"/>
        <pt x="301" y="34" on="0"/>
        <pt x="351" y="68" on="0"/>
        <pt x="384" y="131" on="0"/>
        <pt x="401" y="219" on="0"/>
        <pt x="401" y="274" on="1"/>
        <pt x="401" y="327" on="0"/>
        <pt x="394" y="389" on="0"/>
        <pt x="391" y="402" on="1"/>
        <pt x="376" y="427" on="0"/>
        <pt x="311" y="460" on="0"/>
        <pt x="264" y="460" on="1"/>
        <pt x="203" y="460" on="0"/>
        <pt x="124" y="351" on="0"/>
      </contour>
    </TTGlyph>
    <TTGlyph name="exclam" xMin="119" yMin="-8" xMax="256" yMax="701">
      <contour>
        <pt x="174" y="218" on="1"/>
        <pt x="142" y="394" on="1"/>
        <pt x="142" y="690" on="1"/>
        <pt x="164" y="701" on="0"/>
        <pt x="187" y="701" on="1"/>
        <pt x="210" y="701" on="0"/>
        <pt x="232" y="690" on="1"/>
        <pt x="232" y="394" on="1"/>
        <pt x="200" y="218" on="1"/>
      </contour>
      <contour>
        <pt x="119" y="57" on="1"/>
        <pt x="119" y="87" on="0"/>
        <pt x="157" y="123" on="0"/>
        <pt x="187" y="123" on="1"/>
        <pt x="218" y="123" on="0"/>
        <pt x="256" y="87" on="0"/>
        <pt x="256" y="57" on="1"/>
        <pt x="256" y="28" on="0"/>
        <pt x="218" y="-8" on="0"/>
        <pt x="187" y="-8" on="1"/>
        <pt x="157" y="-8" on="0"/>
        <pt x="119" y="28" on="0"/>
      </contour>
    </TTGlyph>
    <TTGlyph name="exclamdown" xMin="71" yMin="-197" xMax="208" yMax="512">
      <contour>
        <pt x="153" y="286" on="1"/>
        <pt x="185" y="110" on="1"/>
        <pt x="185" y="-186" on="1"/>
        <pt x="164" y="-197" on="0"/>
        <pt x="116" y="-197" on="0"/>
        <pt x="95" y="-186" on="1"/>
        <pt x="95" y="110" on="1"/>
        <pt x="127" y="286" on="1"/>
      </contour>
      <contour>
        <pt x="208" y="446" on="1"/>
        <pt x="208" y="417" on="0"/>
        <pt x="170" y="381" on="0"/>
        <pt x="140" y="381" on="1"/>
        <pt x="109" y="381" on="0"/>
        <pt x="71" y="417" on="0"/>
        <pt x="71" y="446" on="1"/>
        <pt x="71" y="476" on="0"/>
        <pt x="109" y="512" on="0"/>
        <pt x="140" y="512" on="1"/>
        <pt x="170" y="512" on="0"/>
        <pt x="208" y="476" on="0"/>
      </contour>
    </TTGlyph>
    <TTGlyph name="f" xMin="31" yMin="0" xMax="398" yMax="752">
      <contour>
        <pt x="306" y="752" on="1"/>
        <pt x="315" y="752" on="0"/>
        <pt x="339" y="750" on="0"/>
        <pt x="365" y="747" on="0"/>
        <pt x="389" y="742" on="0"/>
        <pt x="398" y="739" on="1"/>
        <pt x="395" y="706" on="0"/>
        <pt x="384" y="649" on="0"/>
        <pt x="376" y="626" on="1"/>
        <pt x="351" y="626" on="1"/>
        <pt x="307" y="712" on="1"/>
        <pt x="278" y="712" on="0"/>
        <pt x="237" y="700" on="0"/>
        <pt x="210" y="666" on="0"/>
        <pt x="197" y="602" on="0"/>
        <pt x="197" y="550" on="1"/>
        <pt x="197" y="500" on="1"/>
        <pt x="312" y="500" on="1"/>
        <pt x="312" y="450" on="1"/>
        <pt x="197" y="450" on="1"/>
        <pt x="197" y="49" on="1"/>
        <pt x="249" y="43" on="0"/>
        <pt x="293" y="25" on="1"/>
        <pt x="293" y="0" on="1"/>
        <pt x="41" y="0" on="1"/>
        <pt x="41" y="25" on="1"/>
        <pt x="72" y="43" on="0"/>
        <pt x="107" y="49" on="1"/>
        <pt x="107" y="450" on="1"/>
        <pt x="31" y="450" on="1"/>
        <pt x="31" y="476" on="1"/>
        <pt x="66" y="498" on="0"/>
        <pt x="107" y="509" on="1"/>
        <pt x="107" y="544" on="1"/>
        <pt x="107" y="606" on="0"/>
        <pt x="137" y="687" on="0"/>
        <pt x="191" y="734" on="0"/>
        <pt x="264" y="752" on="0"/>
      </contour>
    </TTGlyph>
    <TTGlyph name="fi" xMin="31" yMin="0" xMax="562" yMax="752">
      <contour>
        <pt x="562" y="0" on="1"/>
        <pt x="340" y="0" on="1"/>
        <pt x="340" y="25" on="1"/>
        <pt x="371" y="42" on="0"/>
        <pt x="406" y="49" on="1"/>
        <pt x="406" y="450" on="1"/>
        <pt x="197" y="450" on="1"/>
        <pt x="197" y="49" on="1"/>
        <pt x="223" y="47" on="0"/>
        <pt x="270" y="34" on="0"/>
        <pt x="291" y="25" on="1"/>
        <pt x="291" y="0" on="1"/>
        <pt x="41" y="0" on="1"/>
        <pt x="41" y="25" on="1"/>
        <pt x="72" y="43" on="0"/>
        <pt x="107" y="49" on="1"/>
        <pt x="107" y="450" on="1"/>
        <pt x="31" y="450" on="1"/>
        <pt x="31" y="476" on="1"/>
        <pt x="66" y="498" on="0"/>
        <pt x="107" y="509" on="1"/>
        <pt x="107" y="544" on="1"/>
        <pt x="107" y="606" on="0"/>
        <pt x="147" y="687" on="0"/>
        <pt x="211" y="734" on="0"/>
        <pt x="294" y="752" on="0"/>
        <pt x="336" y="752" on="1"/>
        <pt x="356" y="752" on="0"/>
        <pt x="405" y="747" on="0"/>
        <pt x="452" y="738" on="0"/>
        <pt x="491" y="726" on="0"/>
        <pt x="501" y="719" on="1"/>
        <pt x="498" y="686" on="0"/>
        <pt x="486" y="648" on="0"/>
        <pt x="479" y="626" on="1"/>
        <pt x="449" y="626" on="1"/>
        <pt x="366" y="712" on="1"/>
        <pt x="337" y="712" on="0"/>
        <pt x="278" y="700" on="0"/>
        <pt x="228" y="666" on="0"/>
        <pt x="197" y="602" on="0"/>
        <pt x="197" y="550" on="1"/>
        <pt x="197" y="500" on="1"/>
        <pt x="302" y="500" on="1"/>
        <pt x="323" y="500" on="0"/>
        <pt x="368" y="501" on="0"/>
        <pt x="413" y="504" on="0"/>
        <pt x="454" y="509" on="0"/>
        <pt x="471" y="512" on="1"/>
        <pt x="496" y="512" on="1"/>
        <pt x="496" y="49" on="1"/>
        <pt x="516" y="44" on="0"/>
        <pt x="548" y="33" on="0"/>
        <pt x="562" y="25" on="1"/>
      </contour>
    </TTGlyph>
    <TTGlyph name="five" xMin="56" yMin="-12" xMax="456" yMax="755">
      <contour>
        <pt x="431" y="755" on="1"/>
        <pt x="456" y="755" on="1"/>
        <pt x="455" y="740" on="0"/>
        <pt x="452" y="703" on="0"/>
        <pt x="446" y="666" on="0"/>
        <pt x="440" y="632" on="0"/>
        <pt x="436" y="621" on="1"/>
        <pt x="190" y="621" on="1"/>
        <pt x="166" y="428" on="1"/>
        <pt x="231" y="428" on="1"/>
        <pt x="281" y="428" on="0"/>
        <pt x="364" y="401" on="0"/>
        <pt x="423" y="348" on="0"/>
        <pt x="456" y="272" on="0"/>
        <pt x="456" y="223" on="1"/>
        <pt x="456" y="165" on="0"/>
        <pt x="416" y="77" on="0"/>
        <pt x="350" y="18" on="0"/>
        <pt x="266" y="-12" on="0"/>
        <pt x="221" y="-12" on="1"/>
        <pt x="201" y="-12" on="0"/>
        <pt x="155" y="-5" on="0"/>
        <pt x="110" y="9" on="0"/>
        <pt x="70" y="28" on="0"/>
        <pt x="56" y="39" on="1"/>
        <pt x="85" y="129" on="1"/>
        <pt x="105" y="129" on="1"/>
        <pt x="111" y="122" on="0"/>
        <pt x="129" y="100" on="0"/>
        <pt x="148" y="76" on="0"/>
        <pt x="167" y="52" on="0"/>
        <pt x="175" y="43" on="1"/>
        <pt x="185" y="41" on="0"/>
        <pt x="202" y="35" on="0"/>
        <pt x="220" y="35" on="1"/>
        <pt x="253" y="35" on="0"/>
        <pt x="308" y="61" on="0"/>
        <pt x="348" y="106" on="0"/>
        <pt x="370" y="166" on="0"/>
        <pt x="370" y="201" on="1"/>
        <pt x="370" y="241" on="0"/>
        <pt x="340" y="300" on="0"/>
        <pt x="288" y="337" on="0"/>
        <pt x="219" y="355" on="0"/>
        <pt x="181" y="354" on="1"/>
        <pt x="110" y="353" on="1"/>
        <pt x="150" y="700" on="1"/>
        <pt x="388" y="700" on="1"/>
      </contour>
    </TTGlyph>
    <TTGlyph name="fl" xMin="31" yMin="0" xMax="574" yMax="752">
      <contour>
        <pt x="409" y="682" on="1"/>
        <pt x="387" y="694" on="0"/>
        <pt x="339" y="711" on="0"/>
        <pt x="316" y="711" on="1"/>
        <pt x="289" y="711" on="0"/>
        <pt x="245" y="699" on="0"/>
        <pt x="214" y="664" on="0"/>
        <pt x="197" y="601" on="0"/>
        <pt x="197" y="549" on="1"/>
        <pt x="197" y="500" on="1"/>
        <pt x="312" y="500" on="1"/>
        <pt x="312" y="450" on="1"/>
        <pt x="197" y="450" on="1"/>
        <pt x="197" y="49" on="1"/>
        <pt x="249" y="43" on="0"/>
        <pt x="291" y="25" on="1"/>
        <pt x="291" y="0" on="1"/>
        <pt x="41" y="0" on="1"/>
        <pt x="41" y="25" on="1"/>
        <pt x="72" y="43" on="0"/>
        <pt x="107" y="49" on="1"/>
        <pt x="107" y="450" on="1"/>
        <pt x="31" y="450" on="1"/>
        <pt x="31" y="476" on="1"/>
        <pt x="66" y="498" on="0"/>
        <pt x="107" y="509" on="1"/>
        <pt x="107" y="544" on="1"/>
        <pt x="107" y="606" on="0"/>
        <pt x="137" y="687" on="0"/>
        <pt x="190" y="734" on="0"/>
        <pt x="261" y="752" on="0"/>
        <pt x="303" y="752" on="1"/>
        <pt x="312" y="752" on="0"/>
        <pt x="337" y="749" on="0"/>
        <pt x="363" y="743" on="0"/>
        <pt x="387" y="736" on="0"/>
        <pt x="396" y="733" on="1"/>
        <pt x="414" y="738" on="0"/>
        <pt x="454" y="750" on="0"/>
        <pt x="474" y="752" on="1"/>
        <pt x="499" y="752" on="1"/>
        <pt x="499" y="49" on="1"/>
        <pt x="516" y="45" on="0"/>
        <pt x="557" y="33" on="0"/>
        <pt x="574" y="25" on="1"/>
        <pt x="574" y="0" on="1"/>
        <pt x="344" y="0" on="1"/>
        <pt x="344" y="25" on="1"/>
        <pt x="360" y="33" on="0"/>
        <pt x="392" y="46" on="0"/>
        <pt x="409" y="49" on="1"/>
      </contour>
    </TTGlyph>
    <TTGlyph name="four" xMin="4" yMin="0" xMax="528" yMax="712">
      <contour>
        <pt x="477" y="0" on="1"/>
        <pt x="217" y="0" on="1"/>
        <pt x="217" y="29" on="1"/>
        <pt x="266" y="46" on="0"/>
        <pt x="309" y="53" on="1"/>
        <pt x="309" y="193" on="1"/>
        <pt x="4" y="193" on="1"/>
        <pt x="4" y="216" on="1"/>
        <pt x="374" y="712" on="1"/>
        <pt x="401" y="712" on="1"/>
        <pt x="401" y="245" on="1"/>
        <pt x="528" y="245" on="1"/>
        <pt x="528" y="193" on="1"/>
        <pt x="401" y="193" on="1"/>
        <pt x="401" y="53" on="1"/>
        <pt x="440" y="45" on="0"/>
        <pt x="477" y="29" on="1"/>
      </contour>
      <contour>
        <pt x="309" y="502" on="1"/>
        <pt x="320" y="574" on="1"/>
        <pt x="317" y="574" on="1"/>
        <pt x="278" y="502" on="1"/>
        <pt x="110" y="271" on="1"/>
        <pt x="70" y="238" on="1"/>
        <pt x="141" y="245" on="1"/>
        <pt x="309" y="245" on="1"/>
      </contour>
    </TTGlyph>
    <TTGlyph name="fraction" xMin="-151" yMin="-7" xMax="468" yMax="710">
      <contour>
        <pt x="433" y="710" on="1"/>
        <pt x="468" y="679" on="1"/>
        <pt x="-117" y="-7" on="1"/>
        <pt x="-151" y="25" on="1"/>
      </contour>
    </TTGlyph>
    <TTGlyph name="g" xMin="30" yMin="-212" xMax="538" yMax="527">
      <contour>
        <pt x="247" y="512" on="1"/>
        <pt x="301" y="512" on="0"/>
        <pt x="375" y="491" on="0"/>
        <pt x="400" y="469" on="1"/>
        <pt x="459" y="509" on="0"/>
        <pt x="523" y="527" on="1"/>
        <pt x="531" y="516" on="0"/>
        <pt x="538" y="484" on="0"/>
        <pt x="538" y="470" on="1"/>
        <pt x="525" y="446" on="1"/>
        <pt x="420" y="446" on="1"/>
        <pt x="445" y="410" on="0"/>
        <pt x="445" y="351" on="1"/>
        <pt x="445" y="279" on="0"/>
        <pt x="344" y="189" on="0"/>
        <pt x="247" y="189" on="1"/>
        <pt x="228" y="189" on="0"/>
        <pt x="204" y="191" on="0"/>
        <pt x="189" y="193" on="1"/>
        <pt x="184" y="184" on="0"/>
        <pt x="171" y="162" on="0"/>
        <pt x="171" y="150" on="1"/>
        <pt x="171" y="130" on="0"/>
        <pt x="217" y="107" on="0"/>
        <pt x="286" y="89" on="0"/>
        <pt x="367" y="70" on="0"/>
        <pt x="437" y="37" on="0"/>
        <pt x="484" y="-16" on="0"/>
        <pt x="485" y="-58" on="1"/>
        <pt x="486" y="-94" on="0"/>
        <pt x="451" y="-152" on="0"/>
        <pt x="389" y="-191" on="0"/>
        <pt x="302" y="-212" on="0"/>
        <pt x="250" y="-212" on="1"/>
        <pt x="141" y="-212" on="0"/>
        <pt x="30" y="-138" on="0"/>
        <pt x="30" y="-82" on="1"/>
        <pt x="30" y="-55" on="0"/>
        <pt x="47" y="-15" on="0"/>
        <pt x="79" y="15" on="0"/>
        <pt x="127" y="38" on="0"/>
        <pt x="158" y="48" on="1"/>
        <pt x="136" y="58" on="0"/>
        <pt x="107" y="93" on="0"/>
        <pt x="107" y="118" on="1"/>
        <pt x="107" y="141" on="0"/>
        <pt x="146" y="186" on="0"/>
        <pt x="166" y="199" on="1"/>
        <pt x="109" y="214" on="0"/>
        <pt x="48" y="298" on="0"/>
        <pt x="48" y="351" on="1"/>
        <pt x="48" y="385" on="0"/>
        <pt x="74" y="444" on="0"/>
        <pt x="124" y="488" on="0"/>
        <pt x="198" y="512" on="0"/>
      </contour>
      <contour>
        <pt x="395" y="-81" on="1"/>
        <pt x="395" y="-49" on="0"/>
        <pt x="352" y="-11" on="0"/>
        <pt x="288" y="13" on="0"/>
        <pt x="214" y="29" on="0"/>
        <pt x="182" y="39" on="1"/>
        <pt x="144" y="16" on="0"/>
        <pt x="120" y="-35" on="0"/>
        <pt x="120" y="-62" on="1"/>
        <pt x="120" y="-115" on="0"/>
        <pt x="196" y="-168" on="0"/>
        <pt x="268" y="-168" on="1"/>
        <pt x="305" y="-168" on="0"/>
        <pt x="354" y="-154" on="0"/>
        <pt x="383" y="-131" on="0"/>
        <pt x="395" y="-99" on="0"/>
      </contour>
      <contour>
        <pt x="138" y="351" on="1"/>
        <pt x="138" y="327" on="0"/>
        <pt x="149" y="284" on="0"/>
        <pt x="174" y="252" on="0"/>
        <pt x="216" y="233" on="0"/>
        <pt x="247" y="233" on="1"/>
        <pt x="305" y="233" on="0"/>
        <pt x="355" y="301" on="0"/>
        <pt x="355" y="351" on="1"/>
        <pt x="355" y="405" on="0"/>
        <pt x="306" y="468" on="0"/>
        <pt x="247" y="468" on="1"/>
        <pt x="186" y="468" on="0"/>
        <pt x="138" y="407" on="0"/>
      </contour>
    </TTGlyph>
    <TTGlyph name="germandbls" xMin="31" yMin="-12" xMax="599" yMax="752">
      <contour>
        <pt x="433" y="590" on="1"/>
        <pt x="433" y="612" on="0"/>
        <pt x="416" y="654" on="0"/>
        <pt x="388" y="687" on="0"/>
        <pt x="352" y="708" on="0"/>
        <pt x="331" y="708" on="1"/>
        <pt x="304" y="708" on="0"/>
        <pt x="256" y="697" on="0"/>
        <pt x="219" y="659" on="0"/>
        <pt x="197" y="587" on="0"/>
        <pt x="197" y="526" on="1"/>
        <pt x="197" y="0" on="1"/>
        <pt x="41" y="0" on="1"/>
        <pt x="41" y="25" on="1"/>
        <pt x="72" y="43" on="0"/>
        <pt x="107" y="49" on="1"/>
        <pt x="107" y="450" on="1"/>
        <pt x="31" y="450" on="1"/>
        <pt x="31" y="476" on="1"/>
        <pt x="66" y="498" on="0"/>
        <pt x="107" y="509" on="1"/>
        <pt x="107" y="544" on="1"/>
        <pt x="107" y="606" on="0"/>
        <pt x="151" y="687" on="0"/>
        <pt x="216" y="734" on="0"/>
        <pt x="292" y="752" on="0"/>
        <pt x="325" y="752" on="1"/>
        <pt x="379" y="752" on="0"/>
        <pt x="454" y="722" on="0"/>
        <pt x="501" y="672" on="0"/>
        <pt x="522" y="608" on="0"/>
        <pt x="523" y="574" on="1"/>
        <pt x="485" y="569" on="0"/>
        <pt x="425" y="550" on="0"/>
        <pt x="383" y="518" on="0"/>
        <pt x="361" y="471" on="0"/>
        <pt x="361" y="438" on="1"/>
        <pt x="361" y="407" on="0"/>
        <pt x="396" y="362" on="0"/>
        <pt x="449" y="323" on="0"/>
        <pt x="511" y="286" on="0"/>
        <pt x="564" y="239" on="0"/>
        <pt x="599" y="179" on="0"/>
        <pt x="599" y="138" on="1"/>
        <pt x="599" y="68" on="0"/>
        <pt x="503" y="-12" on="0"/>
        <pt x="414" y="-12" on="1"/>
        <pt x="331" y="-12" on="0"/>
        <pt x="252" y="17" on="1"/>
        <pt x="254" y="42" on="0"/>
        <pt x="267" y="85" on="0"/>
        <pt x="276" y="102" on="1"/>
        <pt x="301" y="102" on="1"/>
        <pt x="366" y="40" on="1"/>
        <pt x="377" y="35" on="0"/>
        <pt x="398" y="32" on="0"/>
        <pt x="412" y="32" on="1"/>
        <pt x="460" y="32" on="0"/>
        <pt x="509" y="80" on="0"/>
        <pt x="509" y="114" on="1"/>
        <pt x="509" y="147" on="0"/>
        <pt x="474" y="193" on="0"/>
        <pt x="421" y="232" on="0"/>
        <pt x="359" y="269" on="0"/>
        <pt x="306" y="317" on="0"/>
        <pt x="271" y="381" on="0"/>
        <pt x="271" y="427" on="1"/>
        <pt x="271" y="482" on="0"/>
        <pt x="344" y="564" on="0"/>
      </contour>
    </TTGlyph>
    <TTGlyph name="grave" xMin="60" yMin="576" xMax="268" yMax="768">
      <contour>
        <pt x="268" y="593" on="1"/>
        <pt x="246" y="576" on="1"/>
        <pt x="60" y="725" on="1"/>
        <pt x="60" y="745" on="1"/>
        <pt x="66" y="750" on="0"/>
        <pt x="93" y="759" on="0"/>
        <pt x="125" y="765" on="0"/>
        <pt x="154" y="768" on="0"/>
        <pt x="162" y="767" on="1"/>
      </contour>
    </TTGlyph>
    <TTGlyph name="greater" xMin="67" yMin="103" xMax="490" yMax="590">
      <contour>
        <pt x="490" y="369" on="1"/>
        <pt x="490" y="338" on="1"/>
        <pt x="105" y="103" on="1"/>
        <pt x="81" y="147" on="1"/>
        <pt x="331" y="298" on="1"/>
        <pt x="417" y="338" on="1"/>
        <pt x="332" y="369" on="1"/>
        <pt x="67" y="525" on="1"/>
        <pt x="106" y="590" on="1"/>
      </contour>
    </TTGlyph>
    <TTGlyph name="guillemotleft" xMin="24" yMin="55" xMax="418" yMax="466">
      <contour>
        <pt x="218" y="259" on="1"/>
        <pt x="387" y="464" on="1"/>
        <pt x="412" y="445" on="1"/>
        <pt x="306" y="266" on="1"/>
        <pt x="418" y="77" on="1"/>
        <pt x="394" y="57" on="1"/>
      </contour>
      <contour>
        <pt x="24" y="259" on="1"/>
        <pt x="237" y="466" on="1"/>
        <pt x="263" y="446" on="1"/>
        <pt x="123" y="265" on="1"/>
        <pt x="269" y="76" on="1"/>
        <pt x="243" y="55" on="1"/>
      </contour>
    </TTGlyph>
    <TTGlyph name="guillemotright" xMin="53" yMin="55" xMax="446" yMax="466">
      <contour>
        <pt x="77" y="57" on="1"/>
        <pt x="53" y="77" on="1"/>
        <pt x="165" y="261" on="1"/>
        <pt x="58" y="445" on="1"/>
        <pt x="83" y="464" on="1"/>
        <pt x="253" y="259" on="1"/>
      </contour>
      <contour>
        <pt x="228" y="55" on="1"/>
        <pt x="202" y="76" on="1"/>
        <pt x="347" y="260" on="1"/>
        <pt x="207" y="446" on="1"/>
        <pt x="233" y="466" on="1"/>
        <pt x="446" y="259" on="1"/>
      </contour>
    </TTGlyph>
    <TTGlyph name="guilsinglleft" xMin="24" yMin="57" xMax="226" yMax="464">
      <contour>
        <pt x="24" y="259" on="1"/>
        <pt x="196" y="464" on="1"/>
        <pt x="220" y="445" on="1"/>
        <pt x="115" y="266" on="1"/>
        <pt x="226" y="77" on="1"/>
        <pt x="203" y="57" on="1"/>
      </contour>
    </TTGlyph>
    <TTGlyph name="guilsinglright" xMin="54" yMin="58" xMax="255" yMax="464">
      <contour>
        <pt x="77" y="58" on="1"/>
        <pt x="54" y="77" on="1"/>
        <pt x="165" y="261" on="1"/>
        <pt x="59" y="445" on="1"/>
        <pt x="83" y="464" on="1"/>
        <pt x="255" y="260" on="1"/>
      </contour>
    </TTGlyph>
    <TTGlyph name="h" xMin="14" yMin="0" xMax="570" yMax="752">
      <contour>
        <pt x="570" y="0" on="1"/>
        <pt x="354" y="0" on="1"/>
        <pt x="354" y="25" on="1"/>
        <pt x="378" y="38" on="0"/>
        <pt x="414" y="49" on="1"/>
        <pt x="414" y="283" on="1"/>
        <pt x="414" y="361" on="0"/>
        <pt x="370" y="450" on="0"/>
        <pt x="312" y="450" on="1"/>
        <pt x="286" y="450" on="0"/>
        <pt x="244" y="431" on="0"/>
        <pt x="210" y="401" on="0"/>
        <pt x="186" y="362" on="0"/>
        <pt x="180" y="341" on="1"/>
        <pt x="180" y="49" on="1"/>
        <pt x="196" y="45" on="0"/>
        <pt x="225" y="35" on="0"/>
        <pt x="239" y="25" on="1"/>
        <pt x="239" y="0" on="1"/>
        <pt x="24" y="0" on="1"/>
        <pt x="24" y="25" on="1"/>
        <pt x="55" y="41" on="0"/>
        <pt x="90" y="49" on="1"/>
        <pt x="90" y="682" on="1"/>
        <pt x="14" y="690" on="1"/>
        <pt x="14" y="716" on="1"/>
        <pt x="43" y="728" on="0"/>
        <pt x="120" y="746" on="0"/>
        <pt x="155" y="752" on="1"/>
        <pt x="180" y="752" on="1"/>
        <pt x="180" y="399" on="1"/>
        <pt x="181" y="399" on="1"/>
        <pt x="202" y="446" on="0"/>
        <pt x="281" y="512" on="0"/>
        <pt x="337" y="512" on="1"/>
        <pt x="377" y="512" on="0"/>
        <pt x="440" y="493" on="0"/>
        <pt x="482" y="445" on="0"/>
        <pt x="504" y="364" on="0"/>
        <pt x="504" y="302" on="1"/>
        <pt x="504" y="49" on="1"/>
        <pt x="521" y="45" on="0"/>
        <pt x="555" y="35" on="0"/>
        <pt x="570" y="25" on="1"/>
      </contour>
    </TTGlyph>
    <TTGlyph name="hyphen" xMin="71" yMin="250" xMax="353" yMax="313">
      <contour>
        <pt x="71" y="313" on="1"/>
        <pt x="353" y="313" on="1"/>
        <pt x="353" y="250" on="1"/>
        <pt x="71" y="250" on="1"/>
      </contour>
    </TTGlyph>
    <TTGlyph name="i" xMin="41" yMin="0" xMax="263" yMax="729">
      <component glyphName="dotlessi" x="0" y="0" flags="0x204"/>
      <component glyphName="dotaccent" x="28" y="0" flags="0x4"/>
    </TTGlyph>
    <TTGlyph name="iacute" xMin="41" yMin="0" xMax="291" yMax="768">
      <component glyphName="dotlessi" x="0" y="0" flags="0x204"/>
      <component glyphName="acute" x="22" y="0" flags="0x4"/>
    </TTGlyph>
    <TTGlyph name="icircumflex" xMin="26" yMin="0" xMax="275" yMax="796">
      <component glyphName="dotlessi" x="0" y="0" flags="0x204"/>
      <component glyphName="circumflex" x="-34" y="0" flags="0x4"/>
    </TTGlyph>
    <TTGlyph name="idieresis" xMin="-14" yMin="0" xMax="316" yMax="716">
      <component glyphName="dotlessi" x="0" y="0" flags="0x204"/>
      <component glyphName="dieresis" x="-74" y="0" flags="0x4"/>
    </TTGlyph>
    <TTGlyph name="igrave" xMin="-6" yMin="0" xMax="263" yMax="768">
      <component glyphName="dotlessi" x="0" y="0" flags="0x204"/>
      <component glyphName="grave" x="-66" y="0" flags="0x4"/>
    </TTGlyph>
    <TTGlyph name="j" xMin="35" yMin="-212" xMax="214" yMax="729">
      <component glyphName="uni0237" x="0" y="0" flags="0x204"/>
      <component glyphName="dotaccent" x="27" y="0" flags="0x4"/>
    </TTGlyph>
    <TTGlyph name="k" xMin="14" yMin="0" xMax="516" yMax="752">
      <contour>
        <pt x="300" y="500" on="1"/>
        <pt x="493" y="500" on="1"/>
        <pt x="493" y="474" on="1"/>
        <pt x="474" y="466" on="0"/>
        <pt x="437" y="454" on="0"/>
        <pt x="417" y="450" on="1"/>
        <pt x="402" y="430" on="0"/>
        <pt x="363" y="384" on="0"/>
        <pt x="323" y="338" on="0"/>
        <pt x="286" y="298" on="0"/>
        <pt x="273" y="285" on="1"/>
        <pt x="288" y="265" on="0"/>
        <pt x="331" y="208" on="0"/>
        <pt x="381" y="144" on="0"/>
        <pt x="434" y="78" on="0"/>
        <pt x="460" y="49" on="1"/>
        <pt x="516" y="25" on="1"/>
        <pt x="516" y="0" on="1"/>
        <pt x="392" y="0" on="1"/>
        <pt x="365" y="24" on="1"/>
        <pt x="312" y="90" on="0"/>
        <pt x="242" y="193" on="0"/>
        <pt x="213" y="238" on="1"/>
        <pt x="180" y="248" on="1"/>
        <pt x="180" y="49" on="1"/>
        <pt x="213" y="43" on="0"/>
        <pt x="245" y="25" on="1"/>
        <pt x="245" y="0" on="1"/>
        <pt x="24" y="0" on="1"/>
        <pt x="24" y="25" on="1"/>
        <pt x="57" y="41" on="0"/>
        <pt x="90" y="49" on="1"/>
        <pt x="90" y="682" on="1"/>
        <pt x="14" y="690" on="1"/>
        <pt x="14" y="716" on="1"/>
        <pt x="42" y="729" on="0"/>
        <pt x="120" y="745" on="0"/>
        <pt x="155" y="752" on="1"/>
        <pt x="180" y="752" on="1"/>
        <pt x="180" y="274" on="1"/>
        <pt x="206" y="274" on="1"/>
        <pt x="222" y="292" on="0"/>
        <pt x="260" y="336" on="0"/>
        <pt x="298" y="383" on="0"/>
        <pt x="334" y="429" on="0"/>
        <pt x="349" y="450" on="1"/>
        <pt x="324" y="457" on="0"/>
        <pt x="300" y="474" on="1"/>
      </contour>
    </TTGlyph>
    <TTGlyph name="l" xMin="31" yMin="0" xMax="263" yMax="752">
      <contour>
        <pt x="263" y="0" on="1"/>
        <pt x="41" y="0" on="1"/>
        <pt x="41" y="25" on="1"/>
        <pt x="74" y="41" on="0"/>
        <pt x="107" y="49" on="1"/>
        <pt x="107" y="682" on="1"/>
        <pt x="31" y="690" on="1"/>
        <pt x="31" y="716" on="1"/>
        <pt x="57" y="728" on="0"/>
        <pt x="135" y="746" on="0"/>
        <pt x="172" y="752" on="1"/>
        <pt x="197" y="752" on="1"/>
        <pt x="197" y="49" on="1"/>
        <pt x="230" y="41" on="0"/>
        <pt x="263" y="25" on="1"/>
      </contour>
    </TTGlyph>
    <TTGlyph name="less" xMin="44" yMin="103" xMax="468" yMax="590">
      <contour>
        <pt x="44" y="324" on="1"/>
        <pt x="44" y="355" on="1"/>
        <pt x="429" y="590" on="1"/>
        <pt x="454" y="546" on="1"/>
        <pt x="204" y="395" on="1"/>
        <pt x="118" y="355" on="1"/>
        <pt x="203" y="324" on="1"/>
        <pt x="468" y="168" on="1"/>
        <pt x="428" y="103" on="1"/>
      </contour>
    </TTGlyph>
    <TTGlyph name="logicalnot" xMin="43" yMin="198" xMax="468" yMax="387">
      <contour>
        <pt x="43" y="387" on="1"/>
        <pt x="468" y="387" on="1"/>
        <pt x="468" y="198" on="1"/>
        <pt x="406" y="198" on="1"/>
        <pt x="406" y="324" on="1"/>
        <pt x="43" y="324" on="1"/>
      </contour>
    </TTGlyph>
    <TTGlyph name="m" xMin="31" yMin="0" xMax="845" yMax="512">
      <contour>
        <pt x="548" y="0" on="1"/>
        <pt x="334" y="0" on="1"/>
        <pt x="334" y="25" on="1"/>
        <pt x="344" y="31" on="0"/>
        <pt x="373" y="44" on="0"/>
        <pt x="393" y="49" on="1"/>
        <pt x="393" y="280" on="1"/>
        <pt x="393" y="320" on="0"/>
        <pt x="386" y="384" on="0"/>
        <pt x="367" y="427" on="0"/>
        <pt x="331" y="450" on="0"/>
        <pt x="302" y="450" on="1"/>
        <pt x="280" y="450" on="0"/>
        <pt x="243" y="432" on="0"/>
        <pt x="214" y="402" on="0"/>
        <pt x="193" y="364" on="0"/>
        <pt x="187" y="343" on="1"/>
        <pt x="187" y="49" on="1"/>
        <pt x="203" y="44" on="0"/>
        <pt x="232" y="33" on="0"/>
        <pt x="246" y="25" on="1"/>
        <pt x="246" y="0" on="1"/>
        <pt x="31" y="0" on="1"/>
        <pt x="31" y="25" on="1"/>
        <pt x="45" y="32" on="0"/>
        <pt x="79" y="44" on="0"/>
        <pt x="97" y="49" on="1"/>
        <pt x="97" y="442" on="1"/>
        <pt x="31" y="450" on="1"/>
        <pt x="31" y="476" on="1"/>
        <pt x="63" y="490" on="0"/>
        <pt x="130" y="507" on="0"/>
        <pt x="162" y="512" on="1"/>
        <pt x="187" y="512" on="1"/>
        <pt x="187" y="399" on="1"/>
        <pt x="188" y="399" on="1"/>
        <pt x="204" y="446" on="0"/>
        <pt x="281" y="512" on="0"/>
        <pt x="338" y="512" on="1"/>
        <pt x="362" y="512" on="0"/>
        <pt x="406" y="502" on="0"/>
        <pt x="444" y="475" on="0"/>
        <pt x="470" y="427" on="0"/>
        <pt x="476" y="389" on="1"/>
        <pt x="494" y="444" on="0"/>
        <pt x="574" y="512" on="0"/>
        <pt x="634" y="512" on="1"/>
        <pt x="671" y="512" on="0"/>
        <pt x="726" y="493" on="0"/>
        <pt x="762" y="445" on="0"/>
        <pt x="779" y="363" on="0"/>
        <pt x="779" y="300" on="1"/>
        <pt x="779" y="49" on="1"/>
        <pt x="813" y="43" on="0"/>
        <pt x="845" y="25" on="1"/>
        <pt x="845" y="0" on="1"/>
        <pt x="630" y="0" on="1"/>
        <pt x="630" y="25" on="1"/>
        <pt x="660" y="41" on="0"/>
        <pt x="689" y="49" on="1"/>
        <pt x="689" y="298" on="1"/>
        <pt x="689" y="334" on="0"/>
        <pt x="682" y="390" on="0"/>
        <pt x="662" y="429" on="0"/>
        <pt x="626" y="450" on="0"/>
        <pt x="596" y="450" on="1"/>
        <pt x="548" y="450" on="0"/>
        <pt x="495" y="384" on="0"/>
        <pt x="483" y="333" on="1"/>
        <pt x="483" y="49" on="1"/>
        <pt x="518" y="39" on="0"/>
        <pt x="548" y="25" on="1"/>
      </contour>
    </TTGlyph>
    <TTGlyph name="macron" xMin="60" yMin="637" xMax="313" yMax="689">
      <contour>
        <pt x="60" y="637" on="1"/>
        <pt x="60" y="689" on="1"/>
        <pt x="313" y="689" on="1"/>
        <pt x="313" y="637" on="1"/>
      </contour>
    </TTGlyph>
    <TTGlyph name="minus" xMin="42" yMin="317" xMax="492" yMax="370">
      <contour>
        <pt x="42" y="370" on="1"/>
        <pt x="492" y="370" on="1"/>
        <pt x="492" y="317" on="1"/>
        <pt x="42" y="317" on="1"/>
      </contour>
    </TTGlyph>
    <TTGlyph name="mu" xMin="17" yMin="-214" xMax="550" yMax="512">
      <contour>
        <pt x="134" y="15" on="1"/>
        <pt x="169" y="-175" on="1"/>
        <pt x="169" y="-200" on="1"/>
        <pt x="121" y="-214" on="0"/>
        <pt x="77" y="-200" on="1"/>
        <pt x="77" y="442" on="1"/>
        <pt x="17" y="450" on="1"/>
        <pt x="17" y="476" on="1"/>
        <pt x="49" y="488" on="0"/>
        <pt x="116" y="506" on="0"/>
        <pt x="148" y="512" on="1"/>
        <pt x="173" y="512" on="1"/>
        <pt x="173" y="437" on="0"/>
        <pt x="167" y="289" on="0"/>
        <pt x="167" y="216" on="1"/>
        <pt x="167" y="177" on="0"/>
        <pt x="176" y="115" on="0"/>
        <pt x="199" y="73" on="0"/>
        <pt x="239" y="50" on="0"/>
        <pt x="270" y="50" on="1"/>
        <pt x="315" y="50" on="0"/>
        <pt x="377" y="115" on="0"/>
        <pt x="394" y="167" on="1"/>
        <pt x="394" y="442" on="1"/>
        <pt x="328" y="450" on="1"/>
        <pt x="328" y="476" on="1"/>
        <pt x="359" y="488" on="0"/>
        <pt x="427" y="506" on="0"/>
        <pt x="459" y="512" on="1"/>
        <pt x="484" y="512" on="1"/>
        <pt x="484" y="57" on="1"/>
        <pt x="550" y="49" on="1"/>
        <pt x="550" y="28" on="1"/>
        <pt x="521" y="15" on="0"/>
        <pt x="461" y="-5" on="0"/>
        <pt x="429" y="-10" on="1"/>
        <pt x="404" y="-10" on="1"/>
        <pt x="397" y="109" on="1"/>
        <pt x="393" y="109" on="1"/>
        <pt x="388" y="88" on="0"/>
        <pt x="363" y="45" on="0"/>
        <pt x="324" y="10" on="0"/>
        <pt x="273" y="-12" on="0"/>
        <pt x="243" y="-12" on="1"/>
        <pt x="211" y="-12" on="0"/>
        <pt x="160" y="0" on="0"/>
        <pt x="140" y="15" on="1"/>
      </contour>
    </TTGlyph>
    <TTGlyph name="multiply" xMin="88" yMin="164" xMax="446" yMax="522">
      <contour>
        <pt x="88" y="204" on="1"/>
        <pt x="228" y="344" on="1"/>
        <pt x="90" y="483" on="1"/>
        <pt x="127" y="520" on="1"/>
        <pt x="266" y="382" on="1"/>
        <pt x="406" y="522" on="1"/>
        <pt x="443" y="485" on="1"/>
        <pt x="303" y="345" on="1"/>
        <pt x="446" y="202" on="1"/>
        <pt x="408" y="164" on="1"/>
        <pt x="265" y="307" on="1"/>
        <pt x="125" y="167" on="1"/>
      </contour>
    </TTGlyph>
    <TTGlyph name="n" xMin="31" yMin="0" xMax="577" yMax="512">
      <contour>
        <pt x="577" y="0" on="1"/>
        <pt x="362" y="0" on="1"/>
        <pt x="362" y="25" on="1"/>
        <pt x="389" y="39" on="0"/>
        <pt x="421" y="49" on="1"/>
        <pt x="421" y="286" on="1"/>
        <pt x="421" y="362" on="0"/>
        <pt x="377" y="450" on="0"/>
        <pt x="319" y="450" on="1"/>
        <pt x="294" y="450" on="0"/>
        <pt x="251" y="432" on="0"/>
        <pt x="218" y="401" on="0"/>
        <pt x="194" y="362" on="0"/>
        <pt x="187" y="341" on="1"/>
        <pt x="187" y="49" on="1"/>
        <pt x="218" y="43" on="0"/>
        <pt x="247" y="25" on="1"/>
        <pt x="247" y="0" on="1"/>
        <pt x="31" y="0" on="1"/>
        <pt x="31" y="25" on="1"/>
        <pt x="56" y="38" on="0"/>
        <pt x="97" y="49" on="1"/>
        <pt x="97" y="442" on="1"/>
        <pt x="31" y="450" on="1"/>
        <pt x="31" y="476" on="1"/>
        <pt x="57" y="487" on="0"/>
        <pt x="125" y="505" on="0"/>
        <pt x="162" y="512" on="1"/>
        <pt x="187" y="512" on="1"/>
        <pt x="187" y="400" on="1"/>
        <pt x="188" y="400" on="1"/>
        <pt x="209" y="446" on="0"/>
        <pt x="288" y="512" on="0"/>
        <pt x="344" y="512" on="1"/>
        <pt x="384" y="512" on="0"/>
        <pt x="447" y="493" on="0"/>
        <pt x="489" y="445" on="0"/>
        <pt x="511" y="364" on="0"/>
        <pt x="511" y="302" on="1"/>
        <pt x="511" y="49" on="1"/>
        <pt x="551" y="42" on="0"/>
        <pt x="577" y="25" on="1"/>
      </contour>
    </TTGlyph>
    <TTGlyph name="nine" xMin="47" yMin="-12" xMax="495" yMax="712">
      <contour>
        <pt x="47" y="487" on="1"/>
        <pt x="47" y="536" on="0"/>
        <pt x="76" y="618" on="0"/>
        <pt x="133" y="678" on="0"/>
        <pt x="216" y="712" on="0"/>
        <pt x="270" y="712" on="1"/>
        <pt x="328" y="712" on="0"/>
        <pt x="413" y="673" on="0"/>
        <pt x="469" y="603" on="0"/>
        <pt x="495" y="502" on="0"/>
        <pt x="495" y="441" on="1"/>
        <pt x="495" y="348" on="0"/>
        <pt x="441" y="190" on="0"/>
        <pt x="348" y="71" on="0"/>
        <pt x="221" y="-3" on="0"/>
        <pt x="148" y="-12" on="1"/>
        <pt x="130" y="17" on="1"/>
        <pt x="189" y="33" on="0"/>
        <pt x="280" y="95" on="0"/>
        <pt x="345" y="180" on="0"/>
        <pt x="385" y="283" on="0"/>
        <pt x="393" y="340" on="1"/>
        <pt x="370" y="316" on="0"/>
        <pt x="307" y="283" on="0"/>
        <pt x="253" y="283" on="1"/>
        <pt x="208" y="283" on="0"/>
        <pt x="132" y="310" on="0"/>
        <pt x="78" y="362" on="0"/>
        <pt x="47" y="438" on="0"/>
      </contour>
      <contour>
        <pt x="143" y="488" on="1"/>
        <pt x="143" y="459" on="0"/>
        <pt x="161" y="404" on="0"/>
        <pt x="195" y="361" on="0"/>
        <pt x="243" y="335" on="0"/>
        <pt x="273" y="335" on="1"/>
        <pt x="321" y="335" on="0"/>
        <pt x="384" y="368" on="0"/>
        <pt x="399" y="393" on="1"/>
        <pt x="401" y="406" on="0"/>
        <pt x="401" y="445" on="0"/>
        <pt x="401" y="456" on="1"/>
        <pt x="401" y="492" on="0"/>
        <pt x="386" y="567" on="0"/>
        <pt x="354" y="627" on="0"/>
        <pt x="302" y="665" on="0"/>
        <pt x="266" y="665" on="1"/>
        <pt x="206" y="665" on="0"/>
        <pt x="143" y="570" on="0"/>
      </contour>
    </TTGlyph>
    <TTGlyph name="ntilde" xMin="31" yMin="0" xMax="577" yMax="712">
      <component glyphName="n" x="0" y="0" flags="0x204"/>
      <component glyphName="tilde" x="84" y="0" flags="0x4"/>
    </TTGlyph>
    <TTGlyph name="numbersign" xMin="33" yMin="58" xMax="497" yMax="642">
      <contour>
        <pt x="308" y="233" on="1"/>
        <pt x="166" y="233" on="1"/>
        <pt x="124" y="58" on="1"/>
        <pt x="71" y="58" on="1"/>
        <pt x="113" y="233" on="1"/>
        <pt x="33" y="233" on="1"/>
        <pt x="47" y="279" on="1"/>
        <pt x="123" y="279" on="1"/>
        <pt x="159" y="429" on="1"/>
        <pt x="83" y="429" on="1"/>
        <pt x="97" y="475" on="1"/>
        <pt x="170" y="475" on="1"/>
        <pt x="210" y="642" on="1"/>
        <pt x="262" y="642" on="1"/>
        <pt x="223" y="475" on="1"/>
        <pt x="365" y="475" on="1"/>
        <pt x="405" y="642" on="1"/>
        <pt x="457" y="642" on="1"/>
        <pt x="417" y="475" on="1"/>
        <pt x="497" y="475" on="1"/>
        <pt x="480" y="429" on="1"/>
        <pt x="406" y="429" on="1"/>
        <pt x="370" y="279" on="1"/>
        <pt x="447" y="279" on="1"/>
        <pt x="430" y="233" on="1"/>
        <pt x="360" y="233" on="1"/>
        <pt x="318" y="58" on="1"/>
        <pt x="266" y="58" on="1"/>
      </contour>
      <contour>
        <pt x="176" y="279" on="1"/>
        <pt x="318" y="279" on="1"/>
        <pt x="354" y="429" on="1"/>
        <pt x="212" y="429" on="1"/>
      </contour>
    </TTGlyph>
    <TTGlyph name="o" xMin="41" yMin="-12" xMax="512" yMax="512">
      <contour>
        <pt x="41" y="250" on="1"/>
        <pt x="41" y="313" on="0"/>
        <pt x="74" y="410" on="0"/>
        <pt x="136" y="477" on="0"/>
        <pt x="223" y="512" on="0"/>
        <pt x="276" y="512" on="1"/>
        <pt x="338" y="512" on="0"/>
        <pt x="428" y="474" on="0"/>
        <pt x="485" y="405" on="0"/>
        <pt x="512" y="309" on="0"/>
        <pt x="512" y="250" on="1"/>
        <pt x="512" y="124" on="0"/>
        <pt x="384" y="-12" on="0"/>
        <pt x="276" y="-12" on="1"/>
        <pt x="216" y="-12" on="0"/>
        <pt x="128" y="25" on="0"/>
        <pt x="70" y="94" on="0"/>
        <pt x="41" y="191" on="0"/>
      </contour>
      <contour>
        <pt x="137" y="250" on="1"/>
        <pt x="137" y="205" on="0"/>
        <pt x="154" y="125" on="0"/>
        <pt x="191" y="66" on="0"/>
        <pt x="251" y="32" on="0"/>
        <pt x="293" y="32" on="1"/>
        <pt x="347" y="32" on="0"/>
        <pt x="416" y="138" on="0"/>
        <pt x="416" y="250" on="1"/>
        <pt x="416" y="296" on="0"/>
        <pt x="399" y="375" on="0"/>
        <pt x="363" y="434" on="0"/>
        <pt x="307" y="468" on="0"/>
        <pt x="268" y="468" on="1"/>
        <pt x="209" y="468" on="0"/>
        <pt x="137" y="362" on="0"/>
      </contour>
    </TTGlyph>
    <TTGlyph name="oacute" xMin="41" yMin="-12" xMax="512" yMax="768">
      <component glyphName="o" x="0" y="0" flags="0x204"/>
      <component glyphName="acute" x="152" y="0" flags="0x4"/>
    </TTGlyph>
    <TTGlyph name="ocircumflex" xMin="41" yMin="-12" xMax="512" yMax="796">
      <component glyphName="o" x="0" y="0" flags="0x204"/>
      <component glyphName="circumflex" x="91" y="0" flags="0x4"/>
    </TTGlyph>
    <TTGlyph name="odieresis" xMin="41" yMin="-12" xMax="512" yMax="716">
      <component glyphName="o" x="0" y="0" flags="0x204"/>
      <component glyphName="dieresis" x="51" y="0" flags="0x4"/>
    </TTGlyph>
    <TTGlyph name="oe" xMin="41" yMin="-12" xMax="835" yMax="512">
      <contour>
        <pt x="137" y="250" on="1"/>
        <pt x="137" y="205" on="0"/>
        <pt x="154" y="125" on="0"/>
        <pt x="191" y="65" on="0"/>
        <pt x="251" y="31" on="0"/>
        <pt x="293" y="31" on="1"/>
        <pt x="347" y="31" on="0"/>
        <pt x="415" y="138" on="0"/>
        <pt x="415" y="250" on="1"/>
        <pt x="415" y="296" on="0"/>
        <pt x="399" y="375" on="0"/>
        <pt x="363" y="434" on="0"/>
        <pt x="307" y="468" on="0"/>
        <pt x="268" y="468" on="1"/>
        <pt x="208" y="468" on="0"/>
        <pt x="137" y="362" on="0"/>
      </contour>
      <contour>
        <pt x="463" y="75" on="1"/>
        <pt x="446" y="51" on="0"/>
        <pt x="402" y="18" on="0"/>
        <pt x="353" y="-3" on="0"/>
        <pt x="301" y="-12" on="0"/>
        <pt x="276" y="-12" on="1"/>
        <pt x="216" y="-12" on="0"/>
        <pt x="128" y="25" on="0"/>
        <pt x="70" y="94" on="0"/>
        <pt x="41" y="191" on="0"/>
        <pt x="41" y="250" on="1"/>
        <pt x="41" y="313" on="0"/>
        <pt x="74" y="410" on="0"/>
        <pt x="136" y="477" on="0"/>
        <pt x="223" y="512" on="0"/>
        <pt x="276" y="512" on="1"/>
        <pt x="330" y="512" on="0"/>
        <pt x="432" y="472" on="0"/>
        <pt x="461" y="426" on="1"/>
        <pt x="474" y="447" on="0"/>
        <pt x="514" y="480" on="0"/>
        <pt x="562" y="501" on="0"/>
        <pt x="615" y="512" on="0"/>
        <pt x="640" y="512" on="1"/>
        <pt x="680" y="512" on="0"/>
        <pt x="758" y="487" on="0"/>
        <pt x="812" y="426" on="0"/>
        <pt x="835" y="325" on="0"/>
        <pt x="822" y="250" on="1"/>
        <pt x="511" y="250" on="1"/>
        <pt x="511" y="208" on="0"/>
        <pt x="532" y="135" on="0"/>
        <pt x="574" y="81" on="0"/>
        <pt x="637" y="50" on="0"/>
        <pt x="680" y="50" on="1"/>
        <pt x="697" y="50" on="0"/>
        <pt x="734" y="55" on="0"/>
        <pt x="768" y="65" on="0"/>
        <pt x="796" y="78" on="0"/>
        <pt x="805" y="86" on="1"/>
        <pt x="820" y="70" on="1"/>
        <pt x="812" y="53" on="0"/>
        <pt x="778" y="23" on="0"/>
        <pt x="733" y="1" on="0"/>
        <pt x="681" y="-12" on="0"/>
        <pt x="654" y="-12" on="1"/>
        <pt x="627" y="-12" on="0"/>
        <pt x="569" y="1" on="0"/>
        <pt x="516" y="24" on="0"/>
        <pt x="474" y="56" on="0"/>
      </contour>
      <contour>
        <pt x="636" y="468" on="1"/>
        <pt x="580" y="468" on="0"/>
        <pt x="520" y="391" on="0"/>
        <pt x="514" y="294" on="1"/>
        <pt x="733" y="294" on="1"/>
        <pt x="740" y="372" on="0"/>
        <pt x="693" y="468" on="0"/>
      </contour>
    </TTGlyph>
    <TTGlyph name="ograve" xMin="41" yMin="-12" xMax="512" yMax="768">
      <component glyphName="o" x="0" y="0" flags="0x204"/>
      <component glyphName="grave" x="72" y="0" flags="0x4"/>
    </TTGlyph>
    <TTGlyph name="one" xMin="114" yMin="0" xMax="425" yMax="712">
      <contour>
        <pt x="425" y="0" on="1"/>
        <pt x="133" y="0" on="1"/>
        <pt x="133" y="29" on="1"/>
        <pt x="158" y="40" on="0"/>
        <pt x="209" y="57" on="0"/>
        <pt x="235" y="63" on="1"/>
        <pt x="235" y="554" on="1"/>
        <pt x="239" y="613" on="1"/>
        <pt x="211" y="602" on="0"/>
        <pt x="151" y="593" on="0"/>
        <pt x="119" y="594" on="1"/>
        <pt x="114" y="618" on="1"/>
        <pt x="160" y="633" on="0"/>
        <pt x="258" y="678" on="0"/>
        <pt x="300" y="712" on="1"/>
        <pt x="325" y="712" on="1"/>
        <pt x="325" y="63" on="1"/>
        <pt x="350" y="57" on="0"/>
        <pt x="400" y="40" on="0"/>
        <pt x="425" y="29" on="1"/>
      </contour>
    </TTGlyph>
    <TTGlyph name="one.numerator" xMin="78" yMin="282" xMax="365" yMax="709">
      <contour>
        <pt x="365" y="282" on="1"/>
        <pt x="85" y="282" on="1"/>
        <pt x="85" y="303" on="1"/>
        <pt x="112" y="314" on="0"/>
        <pt x="161" y="332" on="0"/>
        <pt x="186" y="337" on="1"/>
        <pt x="186" y="584" on="1"/>
        <pt x="190" y="629" on="1"/>
        <pt x="166" y="622" on="0"/>
        <pt x="107" y="617" on="0"/>
        <pt x="78" y="618" on="1"/>
        <pt x="78" y="647" on="1"/>
        <pt x="120" y="656" on="0"/>
        <pt x="198" y="689" on="0"/>
        <pt x="234" y="709" on="1"/>
        <pt x="265" y="709" on="1"/>
        <pt x="265" y="337" on="1"/>
        <pt x="291" y="331" on="0"/>
        <pt x="342" y="315" on="0"/>
        <pt x="365" y="303" on="1"/>
      </contour>
    </TTGlyph>
    <TTGlyph name="onehalf" xMin="60" yMin="-7" xMax="935" yMax="710">
      <component glyphName="one.numerator" x="-18" y="0" flags="0x4"/>
      <component glyphName="fraction" x="320" y="0" flags="0x4"/>
      <component glyphName="uni2082" x="553" y="100" flags="0x4"/>
    </TTGlyph>
    <TTGlyph name="onequarter" xMin="60" yMin="-7" xMax="871" yMax="710">
      <component glyphName="one.numerator" x="-18" y="0" flags="0x4"/>
      <component glyphName="fraction" x="320" y="0" flags="0x4"/>
      <component glyphName="uni2084" x="450" y="100" flags="0x4"/>
    </TTGlyph>
    <TTGlyph name="onesuperior" xMin="78" yMin="386" xMax="365" yMax="813">
      <component glyphName="uni2081" x="0" y="486" flags="0x4"/>
    </TTGlyph>
    <TTGlyph name="ordfeminine" xMin="49" yMin="376" xMax="392" yMax="708">
      <contour>
        <pt x="99" y="605" on="1"/>
        <pt x="89" y="616" on="0"/>
        <pt x="75" y="655" on="0"/>
        <pt x="74" y="676" on="1"/>
        <pt x="99" y="689" on="0"/>
        <pt x="172" y="708" on="0"/>
        <pt x="234" y="708" on="1"/>
        <pt x="298" y="708" on="0"/>
        <pt x="345" y="656" on="0"/>
        <pt x="345" y="607" on="1"/>
        <pt x="345" y="588" on="0"/>
        <pt x="344" y="543" on="0"/>
        <pt x="343" y="499" on="0"/>
        <pt x="342" y="458" on="0"/>
        <pt x="342" y="442" on="1"/>
        <pt x="392" y="432" on="1"/>
        <pt x="392" y="406" on="1"/>
        <pt x="373" y="395" on="0"/>
        <pt x="330" y="380" on="0"/>
        <pt x="307" y="378" on="1"/>
        <pt x="290" y="378" on="1"/>
        <pt x="283" y="395" on="0"/>
        <pt x="278" y="428" on="0"/>
        <pt x="277" y="445" on="1"/>
        <pt x="273" y="445" on="1"/>
        <pt x="268" y="436" on="0"/>
        <pt x="250" y="412" on="0"/>
        <pt x="221" y="391" on="0"/>
        <pt x="181" y="376" on="0"/>
        <pt x="154" y="376" on="1"/>
        <pt x="108" y="376" on="0"/>
        <pt x="49" y="427" on="0"/>
        <pt x="49" y="471" on="1"/>
        <pt x="49" y="502" on="0"/>
        <pt x="80" y="541" on="0"/>
        <pt x="134" y="563" on="0"/>
        <pt x="205" y="572" on="0"/>
        <pt x="245" y="572" on="1"/>
        <pt x="252" y="572" on="0"/>
        <pt x="265" y="571" on="0"/>
        <pt x="272" y="571" on="1"/>
        <pt x="273" y="577" on="0"/>
        <pt x="273" y="598" on="0"/>
        <pt x="273" y="603" on="1"/>
        <pt x="273" y="616" on="0"/>
        <pt x="267" y="640" on="0"/>
        <pt x="251" y="659" on="0"/>
        <pt x="224" y="670" on="0"/>
        <pt x="202" y="670" on="1"/>
        <pt x="190" y="670" on="0"/>
        <pt x="162" y="666" on="0"/>
        <pt x="148" y="661" on="1"/>
        <pt x="126" y="605" on="1"/>
      </contour>
      <contour>
        <pt x="182" y="422" on="1"/>
        <pt x="203" y="422" on="0"/>
        <pt x="233" y="436" on="0"/>
        <pt x="254" y="455" on="0"/>
        <pt x="268" y="477" on="0"/>
        <pt x="272" y="486" on="1"/>
        <pt x="272" y="538" on="1"/>
        <pt x="261" y="539" on="0"/>
        <pt x="241" y="539" on="0"/>
        <pt x="231" y="539" on="1"/>
        <pt x="211" y="539" on="0"/>
        <pt x="174" y="532" on="0"/>
        <pt x="146" y="517" on="0"/>
        <pt x="129" y="493" on="0"/>
        <pt x="129" y="476" on="1"/>
        <pt x="129" y="456" on="0"/>
        <pt x="156" y="422" on="0"/>
      </contour>
    </TTGlyph>
    <TTGlyph name="ordmasculine" xMin="43" yMin="372" xMax="391" yMax="712">
      <contour>
        <pt x="43" y="542" on="1"/>
        <pt x="43" y="581" on="0"/>
        <pt x="69" y="643" on="0"/>
        <pt x="116" y="688" on="0"/>
        <pt x="179" y="712" on="0"/>
        <pt x="217" y="712" on="1"/>
        <pt x="255" y="712" on="0"/>
        <pt x="319" y="691" on="0"/>
        <pt x="365" y="649" on="0"/>
        <pt x="391" y="585" on="0"/>
        <pt x="391" y="542" on="1"/>
        <pt x="391" y="503" on="0"/>
        <pt x="365" y="440" on="0"/>
        <pt x="319" y="396" on="0"/>
        <pt x="255" y="372" on="0"/>
        <pt x="217" y="372" on="1"/>
        <pt x="179" y="372" on="0"/>
        <pt x="116" y="393" on="0"/>
        <pt x="69" y="435" on="0"/>
        <pt x="43" y="499" on="0"/>
      </contour>
      <contour>
        <pt x="127" y="542" on="1"/>
        <pt x="127" y="482" on="0"/>
        <pt x="173" y="409" on="0"/>
        <pt x="217" y="409" on="1"/>
        <pt x="307" y="409" on="0"/>
        <pt x="307" y="542" on="1"/>
        <pt x="307" y="674" on="0"/>
        <pt x="217" y="674" on="1"/>
        <pt x="127" y="674" on="0"/>
      </contour>
    </TTGlyph>
    <TTGlyph name="oslash" xMin="41" yMin="-62" xMax="512" yMax="553">
      <contour>
        <pt x="116" y="41" on="1"/>
        <pt x="78" y="76" on="0"/>
        <pt x="41" y="182" on="0"/>
        <pt x="41" y="250" on="1"/>
        <pt x="41" y="313" on="0"/>
        <pt x="74" y="410" on="0"/>
        <pt x="136" y="477" on="0"/>
        <pt x="223" y="512" on="0"/>
        <pt x="276" y="512" on="1"/>
        <pt x="353" y="512" on="0"/>
        <pt x="404" y="482" on="1"/>
        <pt x="450" y="553" on="1"/>
        <pt x="488" y="527" on="1"/>
        <pt x="441" y="456" on="1"/>
        <pt x="477" y="421" on="0"/>
        <pt x="512" y="316" on="0"/>
        <pt x="512" y="250" on="1"/>
        <pt x="512" y="124" on="0"/>
        <pt x="384" y="-12" on="0"/>
        <pt x="276" y="-12" on="1"/>
        <pt x="240" y="-12" on="0"/>
        <pt x="179" y="2" on="0"/>
        <pt x="154" y="15" on="1"/>
        <pt x="104" y="-62" on="1"/>
        <pt x="66" y="-35" on="1"/>
      </contour>
      <contour>
        <pt x="137" y="250" on="1"/>
        <pt x="137" y="211" on="0"/>
        <pt x="150" y="142" on="0"/>
        <pt x="164" y="114" on="1"/>
        <pt x="366" y="425" on="1"/>
        <pt x="348" y="446" on="0"/>
        <pt x="300" y="468" on="0"/>
        <pt x="268" y="468" on="1"/>
        <pt x="208" y="468" on="0"/>
        <pt x="137" y="362" on="0"/>
      </contour>
      <contour>
        <pt x="416" y="250" on="1"/>
        <pt x="416" y="287" on="0"/>
        <pt x="404" y="353" on="0"/>
        <pt x="391" y="381" on="1"/>
        <pt x="191" y="71" on="1"/>
        <pt x="227" y="32" on="0"/>
        <pt x="293" y="32" on="1"/>
        <pt x="347" y="32" on="0"/>
        <pt x="416" y="138" on="0"/>
      </contour>
    </TTGlyph>
    <TTGlyph name="otilde" xMin="41" yMin="-12" xMax="512" yMax="712">
      <component glyphName="o" x="0" y="0" flags="0x204"/>
      <component glyphName="tilde" x="62" y="0" flags="0x4"/>
    </TTGlyph>
    <TTGlyph name="p" xMin="31" yMin="-200" xMax="525" yMax="512">
      <contour>
        <pt x="253" y="-200" on="1"/>
        <pt x="31" y="-200" on="1"/>
        <pt x="31" y="-175" on="1"/>
        <pt x="65" y="-159" on="0"/>
        <pt x="97" y="-151" on="1"/>
        <pt x="97" y="442" on="1"/>
        <pt x="31" y="450" on="1"/>
        <pt x="31" y="476" on="1"/>
        <pt x="63" y="490" on="0"/>
        <pt x="130" y="507" on="0"/>
        <pt x="162" y="512" on="1"/>
        <pt x="187" y="512" on="1"/>
        <pt x="187" y="400" on="1"/>
        <pt x="188" y="400" on="1"/>
        <pt x="208" y="451" on="0"/>
        <pt x="280" y="512" on="0"/>
        <pt x="338" y="512" on="1"/>
        <pt x="427" y="512" on="0"/>
        <pt x="525" y="394" on="0"/>
        <pt x="525" y="261" on="1"/>
        <pt x="525" y="198" on="0"/>
        <pt x="492" y="96" on="0"/>
        <pt x="431" y="26" on="0"/>
        <pt x="344" y="-12" on="0"/>
        <pt x="291" y="-12" on="1"/>
        <pt x="254" y="-12" on="0"/>
        <pt x="212" y="-3" on="0"/>
        <pt x="187" y="8" on="1"/>
        <pt x="187" y="-151" on="1"/>
        <pt x="203" y="-153" on="0"/>
        <pt x="235" y="-164" on="0"/>
        <pt x="253" y="-175" on="1"/>
      </contour>
      <contour>
        <pt x="306" y="450" on="1"/>
        <pt x="257" y="450" on="0"/>
        <pt x="199" y="388" on="0"/>
        <pt x="187" y="334" on="1"/>
        <pt x="187" y="54" on="1"/>
        <pt x="205" y="43" on="0"/>
        <pt x="250" y="32" on="0"/>
        <pt x="286" y="32" on="1"/>
        <pt x="319" y="32" on="0"/>
        <pt x="372" y="66" on="0"/>
        <pt x="409" y="128" on="0"/>
        <pt x="429" y="211" on="0"/>
        <pt x="429" y="261" on="1"/>
        <pt x="429" y="302" on="0"/>
        <pt x="416" y="371" on="0"/>
        <pt x="387" y="422" on="0"/>
        <pt x="340" y="450" on="0"/>
      </contour>
    </TTGlyph>
    <TTGlyph name="paragraph" xMin="60" yMin="-212" xMax="451" yMax="700">
      <contour>
        <pt x="376" y="94" on="1"/>
        <pt x="375" y="27" on="0"/>
        <pt x="357" y="-58" on="0"/>
        <pt x="323" y="-109" on="0"/>
        <pt x="276" y="-133" on="0"/>
        <pt x="247" y="-139" on="1"/>
        <pt x="227" y="-171" on="0"/>
        <pt x="174" y="-204" on="0"/>
        <pt x="148" y="-212" on="1"/>
        <pt x="136" y="-192" on="1"/>
        <pt x="158" y="-183" on="0"/>
        <pt x="196" y="-152" on="0"/>
        <pt x="223" y="-102" on="0"/>
        <pt x="238" y="-28" on="0"/>
        <pt x="238" y="24" on="1"/>
        <pt x="238" y="310" on="1"/>
        <pt x="206" y="310" on="0"/>
        <pt x="143" y="330" on="0"/>
        <pt x="92" y="375" on="0"/>
        <pt x="60" y="448" on="0"/>
        <pt x="60" y="500" on="1"/>
        <pt x="60" y="542" on="0"/>
        <pt x="85" y="615" on="0"/>
        <pt x="134" y="669" on="0"/>
        <pt x="210" y="700" on="0"/>
        <pt x="261" y="700" on="1"/>
        <pt x="451" y="700" on="1"/>
        <pt x="451" y="670" on="1"/>
        <pt x="434" y="662" on="0"/>
        <pt x="399" y="650" on="0"/>
        <pt x="376" y="646" on="1"/>
      </contour>
      <contour>
        <pt x="259" y="-116" on="1"/>
        <pt x="301" y="-99" on="0"/>
        <pt x="329" y="5" on="0"/>
        <pt x="329" y="94" on="1"/>
        <pt x="329" y="651" on="1"/>
        <pt x="285" y="651" on="1"/>
        <pt x="285" y="24" on="1"/>
        <pt x="285" y="-16" on="0"/>
        <pt x="273" y="-90" on="0"/>
      </contour>
    </TTGlyph>
    <TTGlyph name="parenleft" xMin="59" yMin="-210" xMax="324" yMax="702">
      <contour>
        <pt x="300" y="-210" on="1"/>
        <pt x="249" y="-173" on="0"/>
        <pt x="161" y="-85" on="0"/>
        <pt x="96" y="25" on="0"/>
        <pt x="59" y="159" on="0"/>
        <pt x="59" y="243" on="1"/>
        <pt x="59" y="325" on="0"/>
        <pt x="97" y="457" on="0"/>
        <pt x="163" y="567" on="0"/>
        <pt x="252" y="660" on="0"/>
        <pt x="303" y="702" on="1"/>
        <pt x="324" y="684" on="1"/>
        <pt x="284" y="641" on="0"/>
        <pt x="218" y="551" on="0"/>
        <pt x="171" y="445" on="0"/>
        <pt x="145" y="320" on="0"/>
        <pt x="145" y="243" on="1"/>
        <pt x="145" y="168" on="0"/>
        <pt x="173" y="41" on="0"/>
        <pt x="222" y="-66" on="0"/>
        <pt x="287" y="-154" on="0"/>
        <pt x="324" y="-190" on="1"/>
      </contour>
    </TTGlyph>
    <TTGlyph name="parenright" xMin="19" yMin="-210" xMax="284" yMax="702">
      <contour>
        <pt x="19" y="-190" on="1"/>
        <pt x="56" y="-154" on="0"/>
        <pt x="121" y="-63" on="0"/>
        <pt x="169" y="48" on="0"/>
        <pt x="197" y="178" on="0"/>
        <pt x="197" y="253" on="1"/>
        <pt x="197" y="330" on="0"/>
        <pt x="171" y="452" on="0"/>
        <pt x="125" y="554" on="0"/>
        <pt x="59" y="642" on="0"/>
        <pt x="19" y="684" on="1"/>
        <pt x="40" y="702" on="1"/>
        <pt x="91" y="663" on="0"/>
        <pt x="180" y="575" on="0"/>
        <pt x="246" y="467" on="0"/>
        <pt x="284" y="335" on="0"/>
        <pt x="284" y="253" on="1"/>
        <pt x="284" y="170" on="0"/>
        <pt x="248" y="33" on="0"/>
        <pt x="184" y="-80" on="0"/>
        <pt x="95" y="-173" on="0"/>
        <pt x="43" y="-210" on="1"/>
      </contour>
    </TTGlyph>
    <TTGlyph name="percent" xMin="52" yMin="-11" xMax="753" yMax="712">
      <component glyphName="fraction" x="242" y="0" flags="0x4"/>
      <component glyphName="ordmasculine" x="9" y="0" flags="0x4"/>
      <component glyphName="ordmasculine" x="362" y="-383" flags="0x4"/>
    </TTGlyph>
    <TTGlyph name="period" xMin="71" yMin="-8" xMax="208" yMax="123">
      <contour>
        <pt x="71" y="57" on="1"/>
        <pt x="71" y="87" on="0"/>
        <pt x="109" y="123" on="0"/>
        <pt x="139" y="123" on="1"/>
        <pt x="170" y="123" on="0"/>
        <pt x="208" y="87" on="0"/>
        <pt x="208" y="57" on="1"/>
        <pt x="208" y="28" on="0"/>
        <pt x="170" y="-8" on="0"/>
        <pt x="139" y="-8" on="1"/>
        <pt x="109" y="-8" on="0"/>
        <pt x="71" y="28" on="0"/>
      </contour>
    </TTGlyph>
    <TTGlyph name="periodcentered" xMin="53" yMin="242" xMax="190" yMax="373">
      <component glyphName="period" x="-18" y="250" flags="0x4"/>
    </TTGlyph>
    <TTGlyph name="perthousand" xMin="52" yMin="-11" xMax="1145" yMax="712">
      <component glyphName="fraction" x="242" y="0" flags="0x4"/>
      <component glyphName="ordmasculine" x="9" y="0" flags="0x4"/>
      <component glyphName="ordmasculine" x="362" y="-383" flags="0x4"/>
      <component glyphName="ordmasculine" x="754" y="-383" flags="0x4"/>
    </TTGlyph>
    <TTGlyph name="plus" xMin="42" yMin="102" xMax="491" yMax="580">
      <contour>
        <pt x="42" y="370" on="1"/>
        <pt x="240" y="370" on="1"/>
        <pt x="240" y="580" on="1"/>
        <pt x="293" y="580" on="1"/>
        <pt x="293" y="370" on="1"/>
        <pt x="491" y="370" on="1"/>
        <pt x="491" y="317" on="1"/>
        <pt x="293" y="317" on="1"/>
        <pt x="293" y="102" on="1"/>
        <pt x="240" y="102" on="1"/>
        <pt x="240" y="317" on="1"/>
        <pt x="42" y="317" on="1"/>
      </contour>
    </TTGlyph>
    <TTGlyph name="plusminus" xMin="42" yMin="177" xMax="491" yMax="700">
      <contour>
        <pt x="42" y="490" on="1"/>
        <pt x="240" y="490" on="1"/>
        <pt x="240" y="700" on="1"/>
        <pt x="293" y="700" on="1"/>
        <pt x="293" y="490" on="1"/>
        <pt x="491" y="490" on="1"/>
        <pt x="491" y="437" on="1"/>
        <pt x="293" y="437" on="1"/>
        <pt x="293" y="283" on="1"/>
        <pt x="240" y="283" on="1"/>
        <pt x="240" y="437" on="1"/>
        <pt x="42" y="437" on="1"/>
      </contour>
      <contour>
        <pt x="42" y="230" on="1"/>
        <pt x="491" y="230" on="1"/>
        <pt x="491" y="177" on="1"/>
        <pt x="42" y="177" on="1"/>
      </contour>
    </TTGlyph>
    <TTGlyph name="q" xMin="41" yMin="-200" xMax="532" yMax="509">
      <contour>
        <pt x="372" y="89" on="1"/>
        <pt x="358" y="49" on="0"/>
        <pt x="288" y="-12" on="0"/>
        <pt x="234" y="-12" on="1"/>
        <pt x="138" y="-12" on="0"/>
        <pt x="41" y="115" on="0"/>
        <pt x="41" y="247" on="1"/>
        <pt x="41" y="377" on="0"/>
        <pt x="170" y="509" on="0"/>
        <pt x="291" y="509" on="1"/>
        <pt x="345" y="509" on="0"/>
        <pt x="443" y="489" on="0"/>
        <pt x="466" y="478" on="1"/>
        <pt x="466" y="-151" on="1"/>
        <pt x="483" y="-154" on="0"/>
        <pt x="515" y="-165" on="0"/>
        <pt x="532" y="-175" on="1"/>
        <pt x="532" y="-200" on="1"/>
        <pt x="310" y="-200" on="1"/>
        <pt x="310" y="-175" on="1"/>
        <pt x="341" y="-159" on="0"/>
        <pt x="376" y="-151" on="1"/>
        <pt x="376" y="89" on="1"/>
      </contour>
      <contour>
        <pt x="258" y="50" on="1"/>
        <pt x="307" y="50" on="0"/>
        <pt x="364" y="112" on="0"/>
        <pt x="376" y="164" on="1"/>
        <pt x="376" y="451" on="1"/>
        <pt x="358" y="457" on="0"/>
        <pt x="309" y="465" on="0"/>
        <pt x="277" y="465" on="1"/>
        <pt x="210" y="465" on="0"/>
        <pt x="137" y="361" on="0"/>
        <pt x="137" y="249" on="1"/>
        <pt x="137" y="207" on="0"/>
        <pt x="149" y="135" on="0"/>
        <pt x="178" y="81" on="0"/>
        <pt x="224" y="50" on="0"/>
      </contour>
    </TTGlyph>
    <TTGlyph name="question" xMin="70" yMin="-8" xMax="438" yMax="712">
      <contour>
        <pt x="127" y="519" on="1"/>
        <pt x="102" y="519" on="1"/>
        <pt x="94" y="546" on="0"/>
        <pt x="74" y="631" on="0"/>
        <pt x="70" y="670" on="1"/>
        <pt x="108" y="693" on="0"/>
        <pt x="195" y="712" on="0"/>
        <pt x="258" y="712" on="1"/>
        <pt x="303" y="712" on="0"/>
        <pt x="370" y="687" on="0"/>
        <pt x="415" y="644" on="0"/>
        <pt x="438" y="584" on="0"/>
        <pt x="438" y="549" on="1"/>
        <pt x="438" y="504" on="0"/>
        <pt x="405" y="437" on="0"/>
        <pt x="356" y="383" on="0"/>
        <pt x="298" y="336" on="0"/>
        <pt x="248" y="284" on="0"/>
        <pt x="215" y="222" on="0"/>
        <pt x="215" y="180" on="1"/>
        <pt x="195" y="180" on="1"/>
        <pt x="188" y="209" on="0"/>
        <pt x="188" y="237" on="1"/>
        <pt x="188" y="273" on="0"/>
        <pt x="211" y="328" on="0"/>
        <pt x="245" y="374" on="0"/>
        <pt x="285" y="415" on="0"/>
        <pt x="319" y="458" on="0"/>
        <pt x="342" y="507" on="0"/>
        <pt x="342" y="539" on="1"/>
        <pt x="342" y="561" on="0"/>
        <pt x="329" y="604" on="0"/>
        <pt x="302" y="639" on="0"/>
        <pt x="260" y="660" on="0"/>
        <pt x="230" y="660" on="1"/>
        <pt x="198" y="660" on="0"/>
        <pt x="158" y="650" on="0"/>
        <pt x="150" y="642" on="1"/>
      </contour>
      <contour>
        <pt x="143" y="57" on="1"/>
        <pt x="143" y="87" on="0"/>
        <pt x="181" y="123" on="0"/>
        <pt x="211" y="123" on="1"/>
        <pt x="242" y="123" on="0"/>
        <pt x="280" y="87" on="0"/>
        <pt x="280" y="57" on="1"/>
        <pt x="280" y="28" on="0"/>
        <pt x="242" y="-8" on="0"/>
        <pt x="211" y="-8" on="1"/>
        <pt x="181" y="-8" on="0"/>
        <pt x="143" y="28" on="0"/>
      </contour>
    </TTGlyph>
    <TTGlyph name="questiondown" xMin="35" yMin="-208" xMax="403" yMax="512">
      <contour>
        <pt x="346" y="-15" on="1"/>
        <pt x="371" y="-15" on="1"/>
        <pt x="379" y="-42" on="0"/>
        <pt x="399" y="-127" on="0"/>
        <pt x="403" y="-166" on="1"/>
        <pt x="365" y="-189" on="0"/>
        <pt x="278" y="-208" on="0"/>
        <pt x="215" y="-208" on="1"/>
        <pt x="170" y="-208" on="0"/>
        <pt x="103" y="-183" on="0"/>
        <pt x="58" y="-140" on="0"/>
        <pt x="35" y="-80" on="0"/>
        <pt x="35" y="-45" on="1"/>
        <pt x="35" y="0" on="0"/>
        <pt x="68" y="67" on="0"/>
        <pt x="117" y="121" on="0"/>
        <pt x="175" y="168" on="0"/>
        <pt x="225" y="219" on="0"/>
        <pt x="258" y="281" on="0"/>
        <pt x="258" y="323" on="1"/>
        <pt x="278" y="323" on="1"/>
        <pt x="290" y="275" on="0"/>
        <pt x="278" y="204" on="0"/>
        <pt x="245" y="148" on="0"/>
        <pt x="200" y="102" on="0"/>
        <pt x="159" y="54" on="0"/>
        <pt x="131" y="0" on="0"/>
        <pt x="131" y="-35" on="1"/>
        <pt x="131" y="-57" on="0"/>
        <pt x="143" y="-100" on="0"/>
        <pt x="170" y="-135" on="0"/>
        <pt x="213" y="-156" on="0"/>
        <pt x="243" y="-156" on="1"/>
        <pt x="275" y="-156" on="0"/>
        <pt x="315" y="-146" on="0"/>
        <pt x="323" y="-138" on="1"/>
      </contour>
      <contour>
        <pt x="330" y="446" on="1"/>
        <pt x="330" y="417" on="0"/>
        <pt x="293" y="381" on="0"/>
        <pt x="263" y="381" on="1"/>
        <pt x="232" y="381" on="0"/>
        <pt x="194" y="417" on="0"/>
        <pt x="194" y="446" on="1"/>
        <pt x="194" y="476" on="0"/>
        <pt x="232" y="512" on="0"/>
        <pt x="263" y="512" on="1"/>
        <pt x="293" y="512" on="0"/>
        <pt x="330" y="476" on="0"/>
      </contour>
    </TTGlyph>
    <TTGlyph name="quotedbl" xMin="87" yMin="504" xMax="292" yMax="700">
      <component glyphName="quotesingle" x="120" y="0" flags="0x4"/>
      <component glyphName="quotesingle" x="0" y="0" flags="0x4"/>
    </TTGlyph>
    <TTGlyph name="quotedblbase" xMin="57" yMin="-145" xMax="401" yMax="114">
      <component glyphName="quotesinglbase" x="182" y="0" flags="0x4"/>
      <component glyphName="quotesinglbase" x="0" y="0" flags="0x4"/>
    </TTGlyph>
    <TTGlyph name="quotedblleft" xMin="73" yMin="574" xMax="410" yMax="824">
      <component glyphName="quoteleft" x="182" y="0" flags="0x4"/>
      <component glyphName="quoteleft" x="0" y="0" flags="0x4"/>
    </TTGlyph>
    <TTGlyph name="quotedblright" xMin="57" yMin="440" xMax="401" yMax="699">
      <component glyphName="quotesinglbase" x="182" y="585" flags="0x4"/>
      <component glyphName="quotesinglbase" x="0" y="585" flags="0x4"/>
    </TTGlyph>
    <TTGlyph name="quoteleft" xMin="73" yMin="574" xMax="228" yMax="824">
      <contour>
        <pt x="228" y="790" on="1"/>
        <pt x="190" y="778" on="0"/>
        <pt x="145" y="730" on="0"/>
        <pt x="150" y="692" on="1"/>
        <pt x="161" y="683" on="0"/>
        <pt x="201" y="664" on="0"/>
        <pt x="216" y="659" on="1"/>
        <pt x="220" y="643" on="0"/>
        <pt x="212" y="613" on="0"/>
        <pt x="194" y="590" on="0"/>
        <pt x="170" y="575" on="0"/>
        <pt x="160" y="574" on="1"/>
        <pt x="125" y="577" on="0"/>
        <pt x="73" y="623" on="0"/>
        <pt x="73" y="666" on="1"/>
        <pt x="73" y="691" on="0"/>
        <pt x="90" y="741" on="0"/>
        <pt x="124" y="784" on="0"/>
        <pt x="176" y="817" on="0"/>
        <pt x="212" y="824" on="1"/>
      </contour>
    </TTGlyph>
    <TTGlyph name="quoteright" xMin="57" yMin="440" xMax="219" yMax="699">
      <component glyphName="quotesinglbase" x="0" y="585" flags="0x204"/>
    </TTGlyph>
    <TTGlyph name="quotesinglbase" xMin="57" yMin="-145" xMax="219" yMax="114">
      <contour>
        <pt x="57" y="-111" on="1"/>
        <pt x="96" y="-99" on="0"/>
        <pt x="147" y="-41" on="0"/>
        <pt x="142" y="-3" on="1"/>
        <pt x="131" y="6" on="0"/>
        <pt x="91" y="24" on="0"/>
        <pt x="76" y="30" on="1"/>
        <pt x="71" y="46" on="0"/>
        <pt x="80" y="76" on="0"/>
        <pt x="98" y="99" on="0"/>
        <pt x="121" y="114" on="0"/>
        <pt x="132" y="114" on="1"/>
        <pt x="165" y="111" on="0"/>
        <pt x="219" y="66" on="0"/>
        <pt x="219" y="22" on="1"/>
        <pt x="219" y="-2" on="0"/>
        <pt x="199" y="-54" on="0"/>
        <pt x="161" y="-100" on="0"/>
        <pt x="107" y="-136" on="0"/>
        <pt x="74" y="-145" on="1"/>
      </contour>
    </TTGlyph>
    <TTGlyph name="quotesingle" xMin="87" yMin="504" xMax="172" yMax="700">
      <contour>
        <pt x="87" y="670" on="1"/>
        <pt x="92" y="683" on="0"/>
        <pt x="113" y="700" on="0"/>
        <pt x="130" y="700" on="1"/>
        <pt x="161" y="700" on="0"/>
        <pt x="172" y="670" on="1"/>
        <pt x="140" y="504" on="1"/>
        <pt x="120" y="504" on="1"/>
      </contour>
    </TTGlyph>
    <TTGlyph name="r" xMin="31" yMin="0" xMax="377" yMax="515">
      <contour>
        <pt x="244" y="425" on="1"/>
        <pt x="233" y="419" on="0"/>
        <pt x="200" y="382" on="0"/>
        <pt x="187" y="346" on="1"/>
        <pt x="187" y="49" on="1"/>
        <pt x="207" y="47" on="0"/>
        <pt x="247" y="36" on="0"/>
        <pt x="267" y="25" on="1"/>
        <pt x="267" y="0" on="1"/>
        <pt x="31" y="0" on="1"/>
        <pt x="31" y="25" on="1"/>
        <pt x="49" y="35" on="0"/>
        <pt x="81" y="45" on="0"/>
        <pt x="97" y="49" on="1"/>
        <pt x="97" y="442" on="1"/>
        <pt x="31" y="450" on="1"/>
        <pt x="31" y="476" on="1"/>
        <pt x="63" y="490" on="0"/>
        <pt x="131" y="507" on="0"/>
        <pt x="162" y="512" on="1"/>
        <pt x="187" y="512" on="1"/>
        <pt x="187" y="406" on="1"/>
        <pt x="191" y="406" on="1"/>
        <pt x="200" y="426" on="0"/>
        <pt x="233" y="466" on="0"/>
        <pt x="276" y="498" on="0"/>
        <pt x="327" y="515" on="0"/>
        <pt x="354" y="512" on="1"/>
        <pt x="361" y="499" on="0"/>
        <pt x="372" y="468" on="0"/>
        <pt x="377" y="451" on="1"/>
        <pt x="377" y="425" on="1"/>
      </contour>
    </TTGlyph>
</ttFont>
